<svg width="40" height="46" viewBox="0 0 40 46" fill="none" xmlns="http://www.w3.org/2000/svg">
<mask id="path-1-outside-1_2_639" maskUnits="userSpaceOnUse" x="4.94971" y="2.74414" width="29" height="43" fill="black">
<rect fill="white" x="4.94971" y="2.74414" width="29" height="43"/>
<path d="M24.5789 35.2396C25.7387 35.5808 26 36.4024 25.9648 37.4375C25.9299 38.4657 25.964 39.496 25.9548 40.5253C25.945 41.6422 25.4196 42.2099 24.3144 42.3602C24.191 42.3771 24.0233 42.5135 23.9829 42.6311C23.4459 44.1957 22.3484 45.0029 20.7004 44.9948C19.6886 44.9898 18.6669 45.0387 17.6675 44.9166C16.3957 44.7613 15.5774 43.9494 15.1811 42.7433C15.0899 42.4657 14.9923 42.3521 14.6926 42.3347C13.8616 42.2863 13.2165 41.7044 13.1885 40.878C13.142 39.4977 13.1589 38.1141 13.1873 36.7327C13.201 36.0702 13.5997 35.6145 14.1974 35.3728C14.4543 35.2689 14.5106 35.1731 14.4493 34.9063C13.7806 31.9945 12.4615 29.4362 10.302 27.3528C8.24665 25.3697 6.84704 23.0273 6.25244 20.2231C4.64183 12.6258 9.6348 5.38489 17.0252 3.98393C24.5528 2.55688 31.4373 7.67948 32.8531 14.5629C33.7868 19.1018 32.659 23.1673 29.5263 26.5829C27.7854 28.481 26.2264 30.4619 25.3298 32.8987C25.0511 33.6562 24.8346 34.4364 24.5789 35.2396ZM23.1764 26.3722C22.8374 26.392 22.5773 26.4347 22.321 26.4177C20.8247 26.3186 19.7786 25.1865 19.7677 23.6304C19.7535 21.5717 19.7638 19.5128 19.7639 17.4539C19.7639 15.3951 19.7504 13.3361 19.7696 11.2774C19.7808 10.0787 20.3204 9.16612 21.4462 8.70459C22.553 8.25082 23.5474 8.51353 24.4012 9.34536C24.5061 9.44754 24.642 9.54184 24.7804 9.58198C26.5877 10.1062 27.5861 11.3143 27.7973 13.1691C27.8309 13.4643 27.9366 13.6215 28.1796 13.7775C30.6025 15.3334 30.685 18.7666 28.3363 20.4257C28.0861 20.6025 28.0251 20.7832 28.0227 21.0663C28.0084 22.7272 26.9527 24.2162 25.3669 24.7297C24.8874 24.8849 24.6808 25.1674 24.5437 25.5989C23.5647 28.6792 22.5778 31.757 21.5953 34.8361C21.5564 34.9579 21.5368 35.0859 21.5048 35.2265C22.1911 35.2265 22.8338 35.2265 23.4826 35.2265C23.6697 34.5697 23.8326 33.9179 24.0409 33.2808C24.956 30.4822 26.5799 28.1449 28.5968 26.0171C31.4984 22.9562 32.6231 19.2653 31.8737 15.1167C30.6573 8.38205 24.0123 3.6758 17.0564 5.06223C10.4418 6.3807 5.89001 13.1255 7.24197 19.7305C7.77896 22.3538 8.9896 24.5922 10.9146 26.443C12.4168 27.8871 13.6317 29.5402 14.4318 31.4615C14.935 32.6701 15.2986 33.9368 15.7356 35.2093C16.3003 35.2093 16.9481 35.2093 17.6294 35.2093C17.5294 34.8954 17.4416 34.6201 17.354 34.3448C16.4238 31.4262 15.4919 28.5082 14.5655 25.5883C14.4346 25.1758 14.2444 24.8918 13.7778 24.743C12.1687 24.2295 11.1003 22.7377 11.0912 21.0558C11.0896 20.7651 11.0119 20.5917 10.7684 20.4188C8.44017 18.7667 8.50923 15.3479 10.9019 13.7967C11.1555 13.6323 11.2759 13.4741 11.3125 13.1584C11.5246 11.3262 12.5098 10.1218 14.296 9.59269C14.4488 9.54738 14.602 9.45124 14.7171 9.3397C15.5586 8.52362 16.5352 8.26055 17.6311 8.69154C18.7464 9.13017 19.3302 10.0161 19.3375 11.1936C19.3632 15.3726 19.3643 19.5519 19.3392 23.731C19.3302 25.2321 18.2456 26.3272 16.7835 26.4189C16.5175 26.4357 16.248 26.3953 15.9386 26.3792C16.8889 29.3526 17.8247 32.2811 18.7637 35.219C19.302 35.219 19.8192 35.219 20.3492 35.219C21.2906 32.2737 22.2264 29.3448 23.1764 26.3722ZM13.9016 23.5197C14.1449 23.4234 14.3909 23.243 14.631 23.2507C14.9945 23.2621 15.0213 23.5978 15.0578 23.9041C15.1143 24.3788 15.3271 24.7843 15.734 25.0598C16.2603 25.4164 16.821 25.4725 17.387 25.1745C18.0032 24.8499 18.2701 24.3105 18.2699 23.6234C18.2687 19.9818 18.2694 16.3403 18.2694 12.6988C18.2694 12.1917 18.2794 11.6844 18.2661 11.1777C18.2443 10.3481 17.6452 9.67332 16.8776 9.59355C15.9807 9.50036 15.2807 9.99955 15.084 10.8782C15.0541 11.0121 15.0955 11.19 15.0217 11.28C14.8809 11.4517 14.6891 11.6718 14.5024 11.688C14.3486 11.7013 14.1469 11.4695 14.0151 11.3067C13.944 11.2191 13.9751 11.0485 13.9545 10.8661C13.1592 11.2747 12.6931 11.9018 12.4632 12.7171C12.2676 13.4107 12.363 14.0822 12.6389 14.7395C12.7728 15.0586 12.6787 15.3322 12.3613 15.4644C12.0383 15.5988 11.7971 15.4462 11.6497 15.1422C11.5865 15.0121 11.5316 14.8779 11.472 14.7434C9.77613 15.6918 9.71051 18.4468 11.346 19.4747C11.4544 19.2737 11.5511 19.0668 11.673 18.8757C11.8438 18.6077 12.0925 18.5088 12.3848 18.6601C12.6828 18.8143 12.7152 19.0829 12.6113 19.3728C12.5651 19.5016 12.4819 19.6165 12.4239 19.7417C11.7291 21.2411 12.3899 22.9902 13.9016 23.5197ZM25.163 10.8875C25.1362 11.0682 25.1615 11.2538 25.081 11.3552C24.9604 11.5072 24.7566 11.7042 24.6044 11.6912C24.4234 11.6758 24.2481 11.4703 24.0949 11.3217C24.0452 11.2735 24.0775 11.1444 24.0647 11.0535C23.9326 10.1128 23.2417 9.5315 22.3229 9.58628C21.471 9.63713 20.8562 10.3375 20.8441 11.272C20.8422 11.4102 20.8436 11.5484 20.8436 11.6866C20.8436 15.6642 20.8425 19.6418 20.8446 23.6192C20.845 24.5268 21.2852 25.1292 22.0503 25.2892C23.142 25.5176 23.9212 24.9273 24.0846 23.7953C24.1134 23.5959 24.2874 23.3487 24.4639 23.2553C24.7275 23.116 24.96 23.2823 25.0917 23.5512C25.1113 23.5912 25.1331 23.63 25.1432 23.6492C25.9484 23.3668 26.5917 22.6785 26.8319 21.8391C27.056 21.0554 26.9894 20.2943 26.6044 19.5653C26.3673 19.1166 26.4176 18.812 26.7356 18.6525C27.0496 18.4949 27.3242 18.6375 27.5603 19.0825C27.6305 19.2147 27.6969 19.3489 27.7804 19.512C28.6903 18.7889 29.0788 17.8757 28.9433 16.7782C28.8367 15.9144 28.4213 15.2054 27.6497 14.7185C27.5464 14.9369 27.5098 15.1608 27.3798 15.2533C27.2047 15.3779 26.8946 15.5147 26.7576 15.4387C26.5909 15.3462 26.5076 15.0455 26.4595 14.8197C26.4324 14.6924 26.5525 14.5358 26.5998 14.3902C27.0446 13.0181 26.4543 11.5475 25.163 10.8875ZM24.8703 40.2991C24.6887 40.2991 24.538 40.2991 24.3873 40.2991C23.4512 40.2991 22.515 40.3016 21.5789 40.298C21.0712 40.2961 20.8283 40.1136 20.8501 39.7411C20.8762 39.2941 21.1856 39.2079 21.5603 39.211C22.082 39.2153 22.6039 39.212 23.1256 39.212C23.7026 39.212 24.2796 39.212 24.8934 39.212C24.8934 38.4611 24.8987 37.7732 24.8918 37.0854C24.8859 36.5056 24.6989 36.323 24.1114 36.3227C21.0728 36.3204 18.0341 36.3202 14.9955 36.3229C14.3433 36.3235 14.1381 36.5987 14.2918 37.2893C14.4496 37.2893 14.6162 37.2892 14.7826 37.2893C15.7341 37.2898 16.6858 37.2833 17.6371 37.2943C17.9983 37.2985 18.281 37.448 18.261 37.8658C18.2427 38.2504 17.9844 38.3735 17.6294 38.3715C16.7086 38.3664 15.7878 38.3698 14.867 38.3699C14.6598 38.3699 14.4525 38.3699 14.2192 38.3699C14.2192 39.1006 14.2175 39.7589 14.2197 40.4174C14.222 41.1124 14.3918 41.2832 15.0927 41.2836C18.07 41.2853 21.0473 41.2853 24.0245 41.2836C24.739 41.2829 24.9135 41.0903 24.8703 40.2991ZM16.2331 42.3814C16.3897 43.2024 17.1624 43.8766 18.0071 43.9007C19.0327 43.93 20.0604 43.9283 21.0861 43.9021C21.9604 43.8798 22.775 43.1656 22.8603 42.3814C20.6598 42.3814 18.4621 42.3814 16.2331 42.3814Z"/>
</mask>
<path d="M24.5789 35.2396C25.7387 35.5808 26 36.4024 25.9648 37.4375C25.9299 38.4657 25.964 39.496 25.9548 40.5253C25.945 41.6422 25.4196 42.2099 24.3144 42.3602C24.191 42.3771 24.0233 42.5135 23.9829 42.6311C23.4459 44.1957 22.3484 45.0029 20.7004 44.9948C19.6886 44.9898 18.6669 45.0387 17.6675 44.9166C16.3957 44.7613 15.5774 43.9494 15.1811 42.7433C15.0899 42.4657 14.9923 42.3521 14.6926 42.3347C13.8616 42.2863 13.2165 41.7044 13.1885 40.878C13.142 39.4977 13.1589 38.1141 13.1873 36.7327C13.201 36.0702 13.5997 35.6145 14.1974 35.3728C14.4543 35.2689 14.5106 35.1731 14.4493 34.9063C13.7806 31.9945 12.4615 29.4362 10.302 27.3528C8.24665 25.3697 6.84704 23.0273 6.25244 20.2231C4.64183 12.6258 9.6348 5.38489 17.0252 3.98393C24.5528 2.55688 31.4373 7.67948 32.8531 14.5629C33.7868 19.1018 32.659 23.1673 29.5263 26.5829C27.7854 28.481 26.2264 30.4619 25.3298 32.8987C25.0511 33.6562 24.8346 34.4364 24.5789 35.2396ZM23.1764 26.3722C22.8374 26.392 22.5773 26.4347 22.321 26.4177C20.8247 26.3186 19.7786 25.1865 19.7677 23.6304C19.7535 21.5717 19.7638 19.5128 19.7639 17.4539C19.7639 15.3951 19.7504 13.3361 19.7696 11.2774C19.7808 10.0787 20.3204 9.16612 21.4462 8.70459C22.553 8.25082 23.5474 8.51353 24.4012 9.34536C24.5061 9.44754 24.642 9.54184 24.7804 9.58198C26.5877 10.1062 27.5861 11.3143 27.7973 13.1691C27.8309 13.4643 27.9366 13.6215 28.1796 13.7775C30.6025 15.3334 30.685 18.7666 28.3363 20.4257C28.0861 20.6025 28.0251 20.7832 28.0227 21.0663C28.0084 22.7272 26.9527 24.2162 25.3669 24.7297C24.8874 24.8849 24.6808 25.1674 24.5437 25.5989C23.5647 28.6792 22.5778 31.757 21.5953 34.8361C21.5564 34.9579 21.5368 35.0859 21.5048 35.2265C22.1911 35.2265 22.8338 35.2265 23.4826 35.2265C23.6697 34.5697 23.8326 33.9179 24.0409 33.2808C24.956 30.4822 26.5799 28.1449 28.5968 26.0171C31.4984 22.9562 32.6231 19.2653 31.8737 15.1167C30.6573 8.38205 24.0123 3.6758 17.0564 5.06223C10.4418 6.3807 5.89001 13.1255 7.24197 19.7305C7.77896 22.3538 8.9896 24.5922 10.9146 26.443C12.4168 27.8871 13.6317 29.5402 14.4318 31.4615C14.935 32.6701 15.2986 33.9368 15.7356 35.2093C16.3003 35.2093 16.9481 35.2093 17.6294 35.2093C17.5294 34.8954 17.4416 34.6201 17.354 34.3448C16.4238 31.4262 15.4919 28.5082 14.5655 25.5883C14.4346 25.1758 14.2444 24.8918 13.7778 24.743C12.1687 24.2295 11.1003 22.7377 11.0912 21.0558C11.0896 20.7651 11.0119 20.5917 10.7684 20.4188C8.44017 18.7667 8.50923 15.3479 10.9019 13.7967C11.1555 13.6323 11.2759 13.4741 11.3125 13.1584C11.5246 11.3262 12.5098 10.1218 14.296 9.59269C14.4488 9.54738 14.602 9.45124 14.7171 9.3397C15.5586 8.52362 16.5352 8.26055 17.6311 8.69154C18.7464 9.13017 19.3302 10.0161 19.3375 11.1936C19.3632 15.3726 19.3643 19.5519 19.3392 23.731C19.3302 25.2321 18.2456 26.3272 16.7835 26.4189C16.5175 26.4357 16.248 26.3953 15.9386 26.3792C16.8889 29.3526 17.8247 32.2811 18.7637 35.219C19.302 35.219 19.8192 35.219 20.3492 35.219C21.2906 32.2737 22.2264 29.3448 23.1764 26.3722ZM13.9016 23.5197C14.1449 23.4234 14.3909 23.243 14.631 23.2507C14.9945 23.2621 15.0213 23.5978 15.0578 23.9041C15.1143 24.3788 15.3271 24.7843 15.734 25.0598C16.2603 25.4164 16.821 25.4725 17.387 25.1745C18.0032 24.8499 18.2701 24.3105 18.2699 23.6234C18.2687 19.9818 18.2694 16.3403 18.2694 12.6988C18.2694 12.1917 18.2794 11.6844 18.2661 11.1777C18.2443 10.3481 17.6452 9.67332 16.8776 9.59355C15.9807 9.50036 15.2807 9.99955 15.084 10.8782C15.0541 11.0121 15.0955 11.19 15.0217 11.28C14.8809 11.4517 14.6891 11.6718 14.5024 11.688C14.3486 11.7013 14.1469 11.4695 14.0151 11.3067C13.944 11.2191 13.9751 11.0485 13.9545 10.8661C13.1592 11.2747 12.6931 11.9018 12.4632 12.7171C12.2676 13.4107 12.363 14.0822 12.6389 14.7395C12.7728 15.0586 12.6787 15.3322 12.3613 15.4644C12.0383 15.5988 11.7971 15.4462 11.6497 15.1422C11.5865 15.0121 11.5316 14.8779 11.472 14.7434C9.77613 15.6918 9.71051 18.4468 11.346 19.4747C11.4544 19.2737 11.5511 19.0668 11.673 18.8757C11.8438 18.6077 12.0925 18.5088 12.3848 18.6601C12.6828 18.8143 12.7152 19.0829 12.6113 19.3728C12.5651 19.5016 12.4819 19.6165 12.4239 19.7417C11.7291 21.2411 12.3899 22.9902 13.9016 23.5197ZM25.163 10.8875C25.1362 11.0682 25.1615 11.2538 25.081 11.3552C24.9604 11.5072 24.7566 11.7042 24.6044 11.6912C24.4234 11.6758 24.2481 11.4703 24.0949 11.3217C24.0452 11.2735 24.0775 11.1444 24.0647 11.0535C23.9326 10.1128 23.2417 9.5315 22.3229 9.58628C21.471 9.63713 20.8562 10.3375 20.8441 11.272C20.8422 11.4102 20.8436 11.5484 20.8436 11.6866C20.8436 15.6642 20.8425 19.6418 20.8446 23.6192C20.845 24.5268 21.2852 25.1292 22.0503 25.2892C23.142 25.5176 23.9212 24.9273 24.0846 23.7953C24.1134 23.5959 24.2874 23.3487 24.4639 23.2553C24.7275 23.116 24.96 23.2823 25.0917 23.5512C25.1113 23.5912 25.1331 23.63 25.1432 23.6492C25.9484 23.3668 26.5917 22.6785 26.8319 21.8391C27.056 21.0554 26.9894 20.2943 26.6044 19.5653C26.3673 19.1166 26.4176 18.812 26.7356 18.6525C27.0496 18.4949 27.3242 18.6375 27.5603 19.0825C27.6305 19.2147 27.6969 19.3489 27.7804 19.512C28.6903 18.7889 29.0788 17.8757 28.9433 16.7782C28.8367 15.9144 28.4213 15.2054 27.6497 14.7185C27.5464 14.9369 27.5098 15.1608 27.3798 15.2533C27.2047 15.3779 26.8946 15.5147 26.7576 15.4387C26.5909 15.3462 26.5076 15.0455 26.4595 14.8197C26.4324 14.6924 26.5525 14.5358 26.5998 14.3902C27.0446 13.0181 26.4543 11.5475 25.163 10.8875ZM24.8703 40.2991C24.6887 40.2991 24.538 40.2991 24.3873 40.2991C23.4512 40.2991 22.515 40.3016 21.5789 40.298C21.0712 40.2961 20.8283 40.1136 20.8501 39.7411C20.8762 39.2941 21.1856 39.2079 21.5603 39.211C22.082 39.2153 22.6039 39.212 23.1256 39.212C23.7026 39.212 24.2796 39.212 24.8934 39.212C24.8934 38.4611 24.8987 37.7732 24.8918 37.0854C24.8859 36.5056 24.6989 36.323 24.1114 36.3227C21.0728 36.3204 18.0341 36.3202 14.9955 36.3229C14.3433 36.3235 14.1381 36.5987 14.2918 37.2893C14.4496 37.2893 14.6162 37.2892 14.7826 37.2893C15.7341 37.2898 16.6858 37.2833 17.6371 37.2943C17.9983 37.2985 18.281 37.448 18.261 37.8658C18.2427 38.2504 17.9844 38.3735 17.6294 38.3715C16.7086 38.3664 15.7878 38.3698 14.867 38.3699C14.6598 38.3699 14.4525 38.3699 14.2192 38.3699C14.2192 39.1006 14.2175 39.7589 14.2197 40.4174C14.222 41.1124 14.3918 41.2832 15.0927 41.2836C18.07 41.2853 21.0473 41.2853 24.0245 41.2836C24.739 41.2829 24.9135 41.0903 24.8703 40.2991ZM16.2331 42.3814C16.3897 43.2024 17.1624 43.8766 18.0071 43.9007C19.0327 43.93 20.0604 43.9283 21.0861 43.9021C21.9604 43.8798 22.775 43.1656 22.8603 42.3814C20.6598 42.3814 18.4621 42.3814 16.2331 42.3814Z" fill="#FF6C44"/>
<path d="M24.5789 35.2396C25.7387 35.5808 26 36.4024 25.9648 37.4375C25.9299 38.4657 25.964 39.496 25.9548 40.5253C25.945 41.6422 25.4196 42.2099 24.3144 42.3602C24.191 42.3771 24.0233 42.5135 23.9829 42.6311C23.4459 44.1957 22.3484 45.0029 20.7004 44.9948C19.6886 44.9898 18.6669 45.0387 17.6675 44.9166C16.3957 44.7613 15.5774 43.9494 15.1811 42.7433C15.0899 42.4657 14.9923 42.3521 14.6926 42.3347C13.8616 42.2863 13.2165 41.7044 13.1885 40.878C13.142 39.4977 13.1589 38.1141 13.1873 36.7327C13.201 36.0702 13.5997 35.6145 14.1974 35.3728C14.4543 35.2689 14.5106 35.1731 14.4493 34.9063C13.7806 31.9945 12.4615 29.4362 10.302 27.3528C8.24665 25.3697 6.84704 23.0273 6.25244 20.2231C4.64183 12.6258 9.6348 5.38489 17.0252 3.98393C24.5528 2.55688 31.4373 7.67948 32.8531 14.5629C33.7868 19.1018 32.659 23.1673 29.5263 26.5829C27.7854 28.481 26.2264 30.4619 25.3298 32.8987C25.0511 33.6562 24.8346 34.4364 24.5789 35.2396ZM23.1764 26.3722C22.8374 26.392 22.5773 26.4347 22.321 26.4177C20.8247 26.3186 19.7786 25.1865 19.7677 23.6304C19.7535 21.5717 19.7638 19.5128 19.7639 17.4539C19.7639 15.3951 19.7504 13.3361 19.7696 11.2774C19.7808 10.0787 20.3204 9.16612 21.4462 8.70459C22.553 8.25082 23.5474 8.51353 24.4012 9.34536C24.5061 9.44754 24.642 9.54184 24.7804 9.58198C26.5877 10.1062 27.5861 11.3143 27.7973 13.1691C27.8309 13.4643 27.9366 13.6215 28.1796 13.7775C30.6025 15.3334 30.685 18.7666 28.3363 20.4257C28.0861 20.6025 28.0251 20.7832 28.0227 21.0663C28.0084 22.7272 26.9527 24.2162 25.3669 24.7297C24.8874 24.8849 24.6808 25.1674 24.5437 25.5989C23.5647 28.6792 22.5778 31.757 21.5953 34.8361C21.5564 34.9579 21.5368 35.0859 21.5048 35.2265C22.1911 35.2265 22.8338 35.2265 23.4826 35.2265C23.6697 34.5697 23.8326 33.9179 24.0409 33.2808C24.956 30.4822 26.5799 28.1449 28.5968 26.0171C31.4984 22.9562 32.6231 19.2653 31.8737 15.1167C30.6573 8.38205 24.0123 3.6758 17.0564 5.06223C10.4418 6.3807 5.89001 13.1255 7.24197 19.7305C7.77896 22.3538 8.9896 24.5922 10.9146 26.443C12.4168 27.8871 13.6317 29.5402 14.4318 31.4615C14.935 32.6701 15.2986 33.9368 15.7356 35.2093C16.3003 35.2093 16.9481 35.2093 17.6294 35.2093C17.5294 34.8954 17.4416 34.6201 17.354 34.3448C16.4238 31.4262 15.4919 28.5082 14.5655 25.5883C14.4346 25.1758 14.2444 24.8918 13.7778 24.743C12.1687 24.2295 11.1003 22.7377 11.0912 21.0558C11.0896 20.7651 11.0119 20.5917 10.7684 20.4188C8.44017 18.7667 8.50923 15.3479 10.9019 13.7967C11.1555 13.6323 11.2759 13.4741 11.3125 13.1584C11.5246 11.3262 12.5098 10.1218 14.296 9.59269C14.4488 9.54738 14.602 9.45124 14.7171 9.3397C15.5586 8.52362 16.5352 8.26055 17.6311 8.69154C18.7464 9.13017 19.3302 10.0161 19.3375 11.1936C19.3632 15.3726 19.3643 19.5519 19.3392 23.731C19.3302 25.2321 18.2456 26.3272 16.7835 26.4189C16.5175 26.4357 16.248 26.3953 15.9386 26.3792C16.8889 29.3526 17.8247 32.2811 18.7637 35.219C19.302 35.219 19.8192 35.219 20.3492 35.219C21.2906 32.2737 22.2264 29.3448 23.1764 26.3722ZM13.9016 23.5197C14.1449 23.4234 14.3909 23.243 14.631 23.2507C14.9945 23.2621 15.0213 23.5978 15.0578 23.9041C15.1143 24.3788 15.3271 24.7843 15.734 25.0598C16.2603 25.4164 16.821 25.4725 17.387 25.1745C18.0032 24.8499 18.2701 24.3105 18.2699 23.6234C18.2687 19.9818 18.2694 16.3403 18.2694 12.6988C18.2694 12.1917 18.2794 11.6844 18.2661 11.1777C18.2443 10.3481 17.6452 9.67332 16.8776 9.59355C15.9807 9.50036 15.2807 9.99955 15.084 10.8782C15.0541 11.0121 15.0955 11.19 15.0217 11.28C14.8809 11.4517 14.6891 11.6718 14.5024 11.688C14.3486 11.7013 14.1469 11.4695 14.0151 11.3067C13.944 11.2191 13.9751 11.0485 13.9545 10.8661C13.1592 11.2747 12.6931 11.9018 12.4632 12.7171C12.2676 13.4107 12.363 14.0822 12.6389 14.7395C12.7728 15.0586 12.6787 15.3322 12.3613 15.4644C12.0383 15.5988 11.7971 15.4462 11.6497 15.1422C11.5865 15.0121 11.5316 14.8779 11.472 14.7434C9.77613 15.6918 9.71051 18.4468 11.346 19.4747C11.4544 19.2737 11.5511 19.0668 11.673 18.8757C11.8438 18.6077 12.0925 18.5088 12.3848 18.6601C12.6828 18.8143 12.7152 19.0829 12.6113 19.3728C12.5651 19.5016 12.4819 19.6165 12.4239 19.7417C11.7291 21.2411 12.3899 22.9902 13.9016 23.5197ZM25.163 10.8875C25.1362 11.0682 25.1615 11.2538 25.081 11.3552C24.9604 11.5072 24.7566 11.7042 24.6044 11.6912C24.4234 11.6758 24.2481 11.4703 24.0949 11.3217C24.0452 11.2735 24.0775 11.1444 24.0647 11.0535C23.9326 10.1128 23.2417 9.5315 22.3229 9.58628C21.471 9.63713 20.8562 10.3375 20.8441 11.272C20.8422 11.4102 20.8436 11.5484 20.8436 11.6866C20.8436 15.6642 20.8425 19.6418 20.8446 23.6192C20.845 24.5268 21.2852 25.1292 22.0503 25.2892C23.142 25.5176 23.9212 24.9273 24.0846 23.7953C24.1134 23.5959 24.2874 23.3487 24.4639 23.2553C24.7275 23.116 24.96 23.2823 25.0917 23.5512C25.1113 23.5912 25.1331 23.63 25.1432 23.6492C25.9484 23.3668 26.5917 22.6785 26.8319 21.8391C27.056 21.0554 26.9894 20.2943 26.6044 19.5653C26.3673 19.1166 26.4176 18.812 26.7356 18.6525C27.0496 18.4949 27.3242 18.6375 27.5603 19.0825C27.6305 19.2147 27.6969 19.3489 27.7804 19.512C28.6903 18.7889 29.0788 17.8757 28.9433 16.7782C28.8367 15.9144 28.4213 15.2054 27.6497 14.7185C27.5464 14.9369 27.5098 15.1608 27.3798 15.2533C27.2047 15.3779 26.8946 15.5147 26.7576 15.4387C26.5909 15.3462 26.5076 15.0455 26.4595 14.8197C26.4324 14.6924 26.5525 14.5358 26.5998 14.3902C27.0446 13.0181 26.4543 11.5475 25.163 10.8875ZM24.8703 40.2991C24.6887 40.2991 24.538 40.2991 24.3873 40.2991C23.4512 40.2991 22.515 40.3016 21.5789 40.298C21.0712 40.2961 20.8283 40.1136 20.8501 39.7411C20.8762 39.2941 21.1856 39.2079 21.5603 39.211C22.082 39.2153 22.6039 39.212 23.1256 39.212C23.7026 39.212 24.2796 39.212 24.8934 39.212C24.8934 38.4611 24.8987 37.7732 24.8918 37.0854C24.8859 36.5056 24.6989 36.323 24.1114 36.3227C21.0728 36.3204 18.0341 36.3202 14.9955 36.3229C14.3433 36.3235 14.1381 36.5987 14.2918 37.2893C14.4496 37.2893 14.6162 37.2892 14.7826 37.2893C15.7341 37.2898 16.6858 37.2833 17.6371 37.2943C17.9983 37.2985 18.281 37.448 18.261 37.8658C18.2427 38.2504 17.9844 38.3735 17.6294 38.3715C16.7086 38.3664 15.7878 38.3698 14.867 38.3699C14.6598 38.3699 14.4525 38.3699 14.2192 38.3699C14.2192 39.1006 14.2175 39.7589 14.2197 40.4174C14.222 41.1124 14.3918 41.2832 15.0927 41.2836C18.07 41.2853 21.0473 41.2853 24.0245 41.2836C24.739 41.2829 24.9135 41.0903 24.8703 40.2991ZM16.2331 42.3814C16.3897 43.2024 17.1624 43.8766 18.0071 43.9007C19.0327 43.93 20.0604 43.9283 21.0861 43.9021C21.9604 43.8798 22.775 43.1656 22.8603 42.3814C20.6598 42.3814 18.4621 42.3814 16.2331 42.3814Z" stroke="#FF6C44" stroke-width="0.6" mask="url(#path-1-outside-1_2_639)"/>
<path d="M31.1836 40.6583C31.404 39.9685 31.5675 39.3791 31.7832 38.8095C31.923 38.4402 31.9034 38.2032 31.5283 37.9855C31.1196 37.7483 30.7519 37.4388 30.3726 37.1525C29.9299 36.8184 29.7807 36.4376 29.9059 35.9999C30.0333 35.5545 30.395 35.299 30.9656 35.2827C31.4713 35.2683 31.9791 35.2566 32.4836 35.2858C32.8259 35.3056 32.97 35.1781 33.0542 34.8552C33.1814 34.3679 33.3555 33.8922 33.5214 33.4158C33.7023 32.8967 34.0169 32.6586 34.4927 32.6587C34.9657 32.6587 35.2917 32.9033 35.4681 33.4147C35.6378 33.9065 35.8088 34.3991 35.9454 34.9005C36.0231 35.1853 36.1536 35.298 36.4552 35.2847C36.9757 35.2618 37.4982 35.2691 38.0194 35.2827C38.5713 35.2971 38.9251 35.5363 39.0633 35.9564C39.2139 36.4138 39.0723 36.8051 38.6114 37.1531C38.1834 37.4762 37.7543 37.7999 37.3088 38.0979C37.0869 38.2464 37.0593 38.3891 37.1478 38.6301C37.3323 39.1323 37.4893 39.645 37.646 40.1569C37.8059 40.6792 37.6886 41.0804 37.316 41.3471C36.9385 41.6172 36.514 41.6067 36.0798 41.3022C35.6533 41.0029 35.2212 40.709 34.8161 40.3822C34.5831 40.1941 34.4159 40.1845 34.1783 40.3731C33.7465 40.7158 33.2927 41.0317 32.839 41.3457C32.4931 41.5851 32.0913 41.6246 31.761 41.3829C31.514 41.2018 31.3621 40.8907 31.1836 40.6583ZM37.7622 36.4457C37.7498 36.4131 37.7373 36.3803 37.7249 36.3477C37.1916 36.3477 36.6583 36.3514 36.1251 36.3467C35.5218 36.3416 35.2417 36.1365 35.0412 35.5538C34.8702 35.0569 34.7068 34.5576 34.5358 34.047C34.4728 34.0894 34.4341 34.1006 34.4266 34.1227C34.2689 34.5857 34.1175 35.0508 33.9592 35.5135C33.7408 36.1517 33.4767 36.3434 32.8118 36.3473C32.2878 36.3504 31.7636 36.348 31.2395 36.348C31.6198 36.7327 32.0145 37.0204 32.409 37.3083C33.03 37.7615 33.1382 38.0856 32.9061 38.8084C32.7535 39.2842 32.5978 39.7591 32.4015 40.3637C32.9144 39.985 33.3161 39.687 33.7193 39.391C34.3104 38.9572 34.6636 38.9554 35.2577 39.3803C35.6598 39.6679 36.0617 39.9555 36.4637 40.2432C36.3861 39.6886 36.2182 39.2027 36.0571 38.7146C35.8596 38.116 35.9673 37.7678 36.47 37.392C36.8978 37.0723 37.3312 36.7607 37.7622 36.4457Z" fill="#FF6C44"/>
<path d="M1.30822 40.6531C1.53449 39.954 1.70487 39.351 1.92781 38.7681C2.05818 38.4272 2.03012 38.2214 1.69945 38.0169C1.2575 37.7436 0.855676 37.4056 0.43305 37.1004C0.0499411 36.8239 -0.0737814 36.444 0.0413236 36.0067C0.159629 35.5573 0.491403 35.3121 0.951084 35.2936C1.53313 35.27 2.11691 35.2673 2.6992 35.2845C2.96376 35.2922 3.08207 35.1931 3.15347 34.95C3.30427 34.4362 3.47121 33.9268 3.64466 33.4202C3.82058 32.9064 4.14485 32.6605 4.61573 32.6587C5.09585 32.6569 5.40719 32.889 5.59012 33.4113C5.76198 33.9021 5.94061 34.3925 6.07221 34.8947C6.15568 35.2132 6.31682 35.299 6.6257 35.2847C7.13081 35.2614 7.63813 35.2687 8.1441 35.2826C8.71593 35.2984 9.08759 35.5477 9.20331 35.9977C9.32864 36.485 9.15124 36.866 8.74659 37.1544C8.30956 37.4659 7.88348 37.7929 7.44054 38.0956C7.22732 38.2414 7.18325 38.381 7.27755 38.631C7.47181 39.1458 7.62951 39.6749 7.78992 40.202C7.93839 40.6896 7.81725 41.0825 7.4435 41.3434C7.04475 41.6217 6.64059 41.6064 6.24801 41.328C5.81024 41.0178 5.36718 40.7136 4.9459 40.3821C4.71668 40.2017 4.54975 40.1775 4.30796 40.373C3.87931 40.7194 3.42344 41.0333 2.96905 41.3462C2.62374 41.5841 2.22142 41.6268 1.89064 41.3845C1.64405 41.2038 1.49263 40.8936 1.30822 40.6531ZM2.5319 40.3568C3.07049 39.9626 3.48758 39.6551 3.907 39.351C4.43316 38.9695 4.8031 38.9657 5.33234 39.3417C5.76617 39.6499 6.19495 39.9651 6.7456 40.3638C6.54248 39.7727 6.38539 39.3151 6.22794 38.8576C5.96868 38.1041 6.06729 37.7851 6.70227 37.3169C7.10065 37.0232 7.49791 36.728 7.89555 36.4335C7.40546 36.3477 6.9507 36.348 6.49582 36.3477C5.56267 36.3472 5.38293 36.2121 5.08452 35.3051C4.9459 34.884 4.79781 34.4659 4.63075 33.9785C4.56575 34.1013 4.54728 34.1268 4.53793 34.1552C4.39931 34.5768 4.26365 34.9995 4.12367 35.4206C3.87512 36.1684 3.63174 36.3456 2.85493 36.3476C2.36029 36.3488 1.86552 36.3478 1.32705 36.3478C1.38799 36.4433 1.39845 36.4755 1.42049 36.4919C1.80261 36.7744 2.18671 37.0541 2.5692 37.336C3.16258 37.7734 3.26537 38.0958 3.03713 38.804C2.88448 39.2774 2.72936 39.7503 2.5319 40.3568Z" fill="#FF6C44"/>
<path d="M20.0974 1.26847C20.0975 1.42186 20.1094 1.57648 20.0949 1.72852C20.0647 2.0438 19.8947 2.24902 19.5682 2.2564C19.241 2.26379 19.0474 2.06633 19.0233 1.75142C18.9975 1.41595 18.9983 1.07532 19.0241 0.739849C19.0484 0.424573 19.25 0.222185 19.568 0.229694C19.8848 0.237081 20.0654 0.446486 20.0945 0.762501C20.11 0.929803 20.0972 1.09969 20.0974 1.26847Z" fill="#FF6C44"/>
<path d="M2.81237 18.8054C2.62845 18.8054 2.40562 18.8707 2.26971 18.7898C2.07299 18.6726 1.84302 18.4699 1.8008 18.2674C1.73666 17.9594 1.9814 17.7589 2.29766 17.7357C2.60284 17.7131 2.91085 17.7245 3.21751 17.7295C3.55273 17.7349 3.78664 17.8835 3.80227 18.2405C3.81914 18.6251 3.57822 18.7857 3.22638 18.8111C3.08911 18.8211 2.95037 18.8127 2.81237 18.8127C2.81237 18.8103 2.81237 18.8078 2.81237 18.8054Z" fill="#FF6C44"/>
<path d="M36.3243 18.8093C36.1555 18.8093 35.9843 18.8279 35.8186 18.8053C35.5119 18.7634 35.3035 18.6026 35.3087 18.2637C35.3137 17.9301 35.5105 17.7543 35.8261 17.7344C36.147 17.7141 36.4708 17.7175 36.7923 17.7328C37.1096 17.7479 37.3162 17.9244 37.3301 18.2483C37.3443 18.5773 37.137 18.7553 36.8298 18.8024C36.665 18.8278 36.4931 18.807 36.3243 18.807C36.3243 18.8079 36.3243 18.8086 36.3243 18.8093Z" fill="#FF6C44"/>
<path d="M5.45933 10.6377C4.9978 10.3356 4.56372 10.091 4.18751 9.77716C4.09419 9.69935 4.1129 9.33126 4.21496 9.21542C4.33351 9.08086 4.635 8.97967 4.79578 9.03679C5.14799 9.16187 5.49133 9.36044 5.77756 9.60111C5.91125 9.71351 5.98056 10.0122 5.93735 10.1924C5.8998 10.3495 5.66307 10.4588 5.45933 10.6377Z" fill="#FF6C44"/>
<path d="M33.6556 25.6406C34.1159 25.9447 34.5494 26.1914 34.925 26.5071C35.0181 26.5852 34.9986 26.9539 34.8962 27.0678C34.7752 27.2024 34.4733 27.3029 34.3114 27.2453C33.9592 27.12 33.616 26.9204 33.3305 26.6787C33.1978 26.5663 33.1322 26.2654 33.1772 26.0853C33.2169 25.927 33.4531 25.8179 33.6556 25.6406Z" fill="#FF6C44"/>
<path d="M5.46066 25.8984C5.6676 26.083 5.89448 26.1922 5.9425 26.3543C5.99125 26.519 5.92625 26.8144 5.80092 26.9148C5.49414 27.1607 5.13873 27.3656 4.77187 27.5063C4.62476 27.5627 4.32684 27.4621 4.22478 27.3326C4.12285 27.2032 4.09183 26.8429 4.18281 26.767C4.56087 26.4507 4.99667 26.2035 5.46066 25.8984Z" fill="#FF6C44"/>
<path d="M34.4972 9.11035C34.7133 9.32111 34.9333 9.43942 34.9758 9.60364C35.0188 9.77008 34.9462 10.057 34.8187 10.1589C34.5134 10.4026 34.1611 10.6073 33.7967 10.7468C33.6503 10.8028 33.3673 10.6986 33.2488 10.5716C33.1468 10.4623 33.1047 10.1158 33.1836 10.0492C33.5791 9.71555 34.0232 9.43942 34.4972 9.11035Z" fill="#FF6C44"/>
<path d="M10.9403 2.58304C10.9707 2.58636 11.0013 2.58845 11.0314 2.5935C11.4193 2.65862 12.058 3.80352 11.9061 4.16077C11.7499 4.52788 11.2518 4.60359 11.0073 4.26936C10.7921 3.97525 10.6038 3.65308 10.4571 3.31971C10.2913 2.94312 10.5512 2.57934 10.9403 2.58304Z" fill="#FF6C44"/>
<path d="M28.8071 3.56048C28.5118 4.01635 28.2766 4.4439 27.9692 4.81101C27.8869 4.90937 27.5187 4.90161 27.4007 4.80177C27.2646 4.68654 27.1619 4.38136 27.2184 4.21923C27.3419 3.86456 27.5387 3.51752 27.7799 3.2297C27.8907 3.09736 28.1957 3.0358 28.3767 3.08234C28.5332 3.12259 28.6384 3.3613 28.8071 3.56048Z" fill="#FF6C44"/>
<path d="M15.8036 22.7889C14.6521 22.7513 13.8129 21.4727 14.2402 20.4067C14.3661 20.0925 14.5961 19.929 14.9269 20.0364C15.2511 20.1415 15.3478 20.3881 15.2696 20.73C15.1313 21.3342 15.3316 21.6176 15.9458 21.7166C16.3044 21.7743 16.5769 21.9181 16.5248 22.333C16.472 22.7532 16.1503 22.8042 15.8036 22.7889Z" fill="#FF6C44"/>
<path d="M14.1591 18.334C13.3785 18.3453 12.5842 17.7751 12.3343 17.0371C12.2243 16.7124 12.29 16.4519 12.6031 16.3081C12.9245 16.1607 13.1746 16.2912 13.3073 16.6052C13.4793 17.0121 13.7655 17.2564 14.2106 17.253C14.589 17.25 14.8437 17.3665 14.856 17.7799C14.8663 18.1256 14.6014 18.3276 14.1591 18.334Z" fill="#FF6C44"/>
<path d="M16.3767 10.6671C17.1483 10.6573 17.8094 11.2028 17.9553 11.9365C18.0219 12.2716 17.9138 12.5283 17.5801 12.6219C17.2468 12.7155 17.0022 12.5644 16.9139 12.2287C16.8152 11.8531 16.6294 11.6773 16.2192 11.7917C15.8852 11.8848 15.5939 11.8065 15.5025 11.4239C15.4126 11.0483 15.6353 10.8478 15.961 10.7443C16.1058 10.6981 16.2618 10.6874 16.3767 10.6671Z" fill="#FF6C44"/>
<path d="M13.4653 14.6264C13.4703 13.7898 14.2718 13.1332 15.0516 13.3301C15.3635 13.4089 15.6054 13.5825 15.5633 13.9328C15.5228 14.2699 15.2915 14.435 14.942 14.3991C14.6869 14.373 14.5039 14.426 14.56 14.7413C14.6304 15.1372 14.5062 15.4211 14.0855 15.4834C13.7604 15.5315 13.5036 15.2112 13.4714 14.7645C13.4679 14.7185 13.4671 14.6724 13.4653 14.6264Z" fill="#FF6C44"/>
<path d="M15.7544 17.0488C15.8656 16.4431 16.189 15.9515 16.6659 15.7536C16.9643 15.6297 17.2636 15.6745 17.3601 15.9706C17.4232 16.1641 17.3511 16.5233 17.2053 16.6386C16.8899 16.888 16.8839 17.0633 17.129 17.3467C17.3273 17.5759 17.2983 17.8405 17.0766 18.0456C16.8381 18.2662 16.5355 18.2706 16.3414 18.0308C16.104 17.7373 15.9466 17.3791 15.7544 17.0488Z" fill="#FF6C44"/>
<path d="M23.2323 22.7901C22.8819 22.8074 22.616 22.6909 22.5847 22.3043C22.5534 21.9173 22.8021 21.7683 23.1464 21.7156C23.7916 21.617 23.9704 21.3578 23.8367 20.7053C23.7666 20.3637 23.8777 20.1203 24.2119 20.0299C24.5525 19.9379 24.7656 20.118 24.8816 20.4325C25.2911 21.5427 24.4177 22.7915 23.2323 22.7901Z" fill="#FF6C44"/>
<path d="M25.0003 18.334C24.5236 18.3328 24.2534 18.1365 24.2574 17.7939C24.2624 17.3491 24.5415 17.2525 24.9336 17.2516C25.3107 17.2508 25.5875 17.0553 25.7582 16.7005C25.9651 16.2702 26.2348 16.1449 26.5385 16.3202C26.9193 16.5401 26.8779 16.8647 26.7157 17.194C26.3594 17.9164 25.7605 18.2769 25.0003 18.334Z" fill="#FF6C44"/>
<path d="M22.7465 10.665C22.8525 10.6883 23.0354 10.7147 23.2091 10.7698C23.5339 10.873 23.694 11.1021 23.607 11.4404C23.5162 11.7938 23.2376 11.8881 22.9223 11.7963C22.4915 11.6707 22.2976 11.8443 22.1921 12.2441C22.1031 12.5817 21.8447 12.7169 21.5157 12.6176C21.2075 12.5248 21.0977 12.2812 21.1511 11.9642C21.274 11.236 21.9284 10.6759 22.7465 10.665Z" fill="#FF6C44"/>
<path d="M24.5468 14.8008C24.6359 14.468 24.47 14.3635 24.1263 14.399C23.7937 14.4333 23.5467 14.2352 23.5671 13.9363C23.5808 13.736 23.791 13.4627 23.9823 13.378C24.4472 13.1722 24.884 13.3441 25.2439 13.683C25.6407 14.0565 25.7328 14.5244 25.5926 15.0344C25.5119 15.3278 25.3089 15.534 24.9852 15.4771C24.6506 15.4183 24.4958 15.1834 24.5468 14.8008Z" fill="#FF6C44"/>
<path d="M23.3587 17.0575C23.1653 17.3862 23.0071 17.7439 22.7675 18.0346C22.5721 18.2716 22.2691 18.2654 22.0322 18.0412C21.812 17.8328 21.7881 17.5685 21.9873 17.3415C22.2405 17.0528 22.207 16.8811 21.9016 16.6345C21.7577 16.5183 21.6913 16.1578 21.7568 15.9648C21.8573 15.6687 22.1563 15.631 22.4536 15.757C22.9375 15.9617 23.2454 16.4342 23.3587 17.0575Z" fill="#FF6C44"/>
</svg>
