<svg width="46" height="46" viewBox="0 0 46 46" fill="none" xmlns="http://www.w3.org/2000/svg">
<mask id="path-1-outside-1_2_636" maskUnits="userSpaceOnUse" x="0" y="0" width="46" height="46" fill="black">
<rect fill="white" width="46" height="46"/>
<path d="M23.6754 1C24.5043 1.22084 25.3118 1.48253 25.9878 2.04725C27.1401 3.0098 27.766 4.22945 27.7927 5.73582C27.8097 6.69493 27.8061 7.65471 27.7943 8.61393C27.7744 10.2243 27.1035 11.5151 25.8149 12.4681C25.5526 12.6622 25.4349 12.8471 25.4637 13.1669C25.4904 13.4642 25.4694 13.7658 25.4694 14.101C26.4773 14.4344 27.4761 14.7626 28.4732 15.0957C28.9333 15.2494 29.3988 15.3914 29.8464 15.576C30.6382 15.9027 31.1191 16.3463 31.8827 17.4195C31.9591 17.2918 32.0064 17.1668 32.0914 17.0777C33.4999 15.6013 35.217 15.1138 37.139 15.7411C39.078 16.374 40.2591 17.785 40.4116 19.8371C40.518 21.2684 40.464 22.7276 40.3142 24.1569C40.192 25.3217 39.4753 26.2462 38.523 26.9279C38.1972 27.1611 38.1013 27.3976 38.1132 27.7738C38.1394 28.5997 38.1226 28.596 38.8879 28.8451C39.9597 29.194 41.0326 29.5403 42.0991 29.9049C43.913 30.5252 44.9719 32.0199 44.9752 33.9393C44.9756 34.1971 44.9778 34.4548 44.9746 34.7126C44.9685 35.1896 44.7412 35.4585 44.3434 35.4643C43.9292 35.4704 43.7028 35.1946 43.6882 34.6917C43.675 34.2351 43.6878 33.7721 43.6144 33.3242C43.4515 32.331 42.8807 31.6029 41.9466 31.2523C40.7049 30.7866 39.4327 30.4024 38.1731 29.9844C38.1202 29.9668 38.0633 29.9616 38.0111 29.9513C36.9546 32.1561 34.2304 31.98 33.3133 29.9341C33.1482 29.9879 32.9772 30.0435 32.8062 30.0995C31.735 30.4507 30.6618 30.7961 29.5934 31.1555C28.7632 31.4347 28.1687 31.9725 27.8261 32.8394C28.2732 32.9903 28.6993 33.1354 29.1263 33.2779C31.305 34.0047 32.3018 35.3652 32.3281 37.6481C32.3294 37.7606 32.3394 37.873 32.3467 38.0136C34.8994 38.0136 37.4379 38.0136 40.0288 38.0136C40.0288 37.545 40.0239 37.0913 40.0301 36.6377C40.0375 36.0964 40.2707 35.8041 40.6837 35.8015C41.0993 35.799 41.3436 36.0963 41.3499 36.6264C41.3554 37.0813 41.351 37.5363 41.351 38.0164C42.1427 38.0164 42.894 38.0164 43.6656 38.0164C43.6786 37.9009 43.675 37.7864 43.706 37.6822C43.8032 37.3554 44.0325 37.1665 44.3715 37.1912C44.7045 37.2154 44.9389 37.4136 44.9657 37.7606C44.9919 38.1022 45.0352 38.4648 44.9486 38.7849C44.8911 38.9976 44.6408 39.1875 44.4334 39.3191C44.3077 39.3987 44.0992 39.354 43.9279 39.354C40.2489 39.3552 36.5699 39.3549 32.8908 39.355C32.7215 39.355 32.5523 39.355 32.3265 39.355C32.3265 39.7232 32.3361 40.0479 32.3242 40.3718C32.307 40.8438 32.0607 41.1161 31.669 41.1189C31.2773 41.1218 31.0137 40.8501 31.0074 40.3807C30.9942 39.4071 31.0063 38.4333 31.0013 37.4595C30.9938 35.9838 30.308 35.0454 28.9022 34.5791C27.7237 34.1883 26.5447 33.7991 25.3369 33.3995C24.8694 34.3752 24.1303 34.9998 23.0123 35.009C21.8922 35.0182 21.1376 34.4198 20.6409 33.3883C19.265 33.8559 17.8701 34.2669 16.5275 34.8082C15.6066 35.1796 15.0331 35.9804 15.0082 36.9811C14.9531 39.1984 14.9911 41.4182 14.9911 43.6696C15.7467 43.6696 16.4977 43.6696 17.3142 43.6696C17.3142 43.5287 17.3142 43.378 17.3142 43.2272C17.3142 42.1963 17.313 41.1652 17.3148 40.1343C17.3158 39.5626 17.5501 39.2541 17.9689 39.2639C18.3813 39.2734 18.604 39.5855 18.6044 40.159C18.6052 41.3181 18.6047 42.4771 18.6047 43.6691C21.5196 43.6691 24.4162 43.6691 27.3723 43.6691C27.3723 43.483 27.3723 43.2886 27.3723 43.0944C27.3723 42.0777 27.3698 41.0611 27.3736 40.0444C27.3755 39.5595 27.6418 39.2531 28.0359 39.2648C28.4191 39.2761 28.6592 39.5617 28.661 40.0339C28.6653 41.2351 28.6625 42.4363 28.6625 43.6697C29.4381 43.6697 30.189 43.6697 30.9659 43.6697C30.9823 43.591 31.0001 43.4968 31.0215 43.4036C31.1062 43.0345 31.3246 42.8191 31.717 42.8479C32.1144 42.877 32.2775 43.1439 32.3234 43.5072C32.3288 43.5495 32.3267 43.5929 32.3272 43.636C32.3403 44.6685 32.3957 45.0071 31.0284 44.9999C25.5458 44.971 20.063 44.9881 14.5802 44.9878C13.8426 44.9878 13.6508 44.7939 13.65 44.0412C13.6485 42.6523 13.6496 41.2632 13.6496 39.8743C13.6496 39.7191 13.6496 39.5639 13.6496 39.3549C13.4262 39.3549 13.2436 39.3549 13.061 39.3549C9.36767 39.3549 5.67432 39.3513 1.98097 39.3601C1.58968 39.361 1.2498 39.3016 1.00012 38.9753C1.00012 38.5171 1.00012 38.0589 1.00012 37.6006C1.19725 37.3429 1.41607 37.1082 1.78119 37.2018C2.19107 37.307 2.31718 37.6278 2.29755 38.0143C3.0885 38.0143 3.83929 38.0143 4.62588 38.0143C4.62588 37.5457 4.62324 37.1047 4.62657 36.6638C4.63081 36.0988 4.86914 35.7956 5.29761 35.8014C5.70921 35.807 5.93973 36.0995 5.94696 36.6419C5.95304 37.0949 5.94822 37.548 5.94822 38.013C8.54138 38.013 11.0792 38.013 13.6496 38.013C13.6496 37.8575 13.6488 37.7308 13.6497 37.6039C13.6664 35.3899 14.7127 33.9663 16.809 33.296C17.2517 33.1545 17.6891 32.9962 18.1495 32.8386C17.8415 32.0536 17.3265 31.5248 16.584 31.2374C16.0259 31.0213 15.4528 30.8433 14.884 30.6553C14.1439 30.4107 13.4015 30.1731 12.666 29.9344C11.7022 32.0305 8.98695 32.1069 7.9556 29.9201C6.60033 30.3821 5.22256 30.803 3.88439 31.3252C3.01874 31.663 2.51075 32.3918 2.36445 33.3142C2.28665 33.8046 2.31063 34.3109 2.28562 34.8098C2.26233 35.2738 1.89881 35.5717 1.4762 35.4372C1.30052 35.3813 1.15778 35.2215 1 35.1091C1 34.4503 1 33.7916 1 33.133C1.02582 33.1013 1.06724 33.0732 1.07516 33.0376C1.44338 31.3948 2.45292 30.3568 4.04538 29.8516C5.03816 29.5366 6.02373 29.1988 7.01238 28.8708C7.856 28.5907 7.8381 28.5898 7.86415 27.7258C7.87471 27.3756 7.77625 27.161 7.48331 26.9519C6.51611 26.2612 5.78678 25.3331 5.6617 24.1529C5.51035 22.7241 5.45791 21.2646 5.56474 19.8336C5.71632 17.802 6.87951 16.399 8.79968 15.755C10.7026 15.1168 12.407 15.5831 13.8316 17.0132C13.9376 17.1197 14.0367 17.2331 14.1608 17.3667C14.7955 16.2522 15.7386 15.6374 16.8935 15.29C17.8226 15.0104 18.7409 14.6944 19.6629 14.3913C20.5083 14.1133 20.4889 14.1107 20.5166 13.208C20.5274 12.8533 20.4107 12.652 20.1275 12.4405C18.8563 11.4905 18.2004 10.2067 18.1821 8.61359C18.1712 7.66872 18.1654 6.72328 18.1833 5.77864C18.2167 4.01206 18.9883 2.63228 20.49 1.71909C21.0371 1.38635 21.6942 1.23461 22.3011 1.00034C22.7592 0.999999 23.2173 1 23.6754 1ZM15.1476 23.5349C16.1609 23.5349 17.1551 23.5349 18.1447 23.5349C18.643 20.7381 20.4114 19.0108 22.8031 18.9634C25.4435 18.9111 27.1494 20.4552 27.8404 23.5292C28.8331 23.5292 29.8272 23.5292 30.8371 23.5292C30.8371 23.4002 30.8358 23.3022 30.8374 23.2043C30.8562 22.0028 30.8721 20.8013 30.8969 19.5999C30.9024 19.3312 31.0032 19.05 30.9507 18.7971C30.745 17.8052 30.1647 17.0982 29.2133 16.7213C28.9086 16.6006 28.5935 16.5054 28.2817 16.403C27.2964 16.0796 26.3104 15.7583 25.3244 15.436C24.8391 16.4676 24.0712 17.0559 22.9575 17.046C21.8467 17.0361 21.1008 16.4117 20.6419 15.4375C19.3861 15.8489 18.1644 16.2459 16.945 16.6497C16.207 16.894 15.612 17.3388 15.291 18.0516C15.1269 18.4161 15.0379 18.8398 15.0245 19.2404C15.0075 19.7497 15.1293 20.262 15.1415 20.7743C15.1633 21.6861 15.1476 22.5988 15.1476 23.5349ZM26.5673 25.1807C26.5467 25.1792 26.5262 25.1776 26.5057 25.1761C26.5057 24.6752 26.5251 24.1735 26.5022 23.6736C26.4164 21.8014 24.9982 20.3727 23.1306 20.2607C21.3837 20.1558 19.7641 21.4445 19.5469 23.267C19.4089 24.4243 19.4279 25.6117 19.4926 26.7792C19.5885 28.5101 20.965 29.9054 22.5882 30.0428C24.3913 30.1954 25.9592 29.1539 26.3626 27.4344C26.5331 26.7073 26.505 25.9334 26.5673 25.1807ZM19.5198 7.20753C19.4902 7.20822 19.4606 7.20891 19.431 7.2096C19.4679 7.87968 19.4546 8.55712 19.5517 9.21825C19.794 10.8691 21.292 12.0939 22.9988 12.0918C24.6991 12.0896 26.2323 10.861 26.4147 9.19633C26.5463 7.99412 26.5562 6.76471 26.478 5.55665C26.3582 3.70456 24.8677 2.33983 23.0635 2.29059C21.3093 2.24272 19.7991 3.50932 19.534 5.32491C19.4442 5.94013 19.5198 6.57934 19.5198 7.20753ZM13.8682 21.6778C13.8496 21.6769 13.8309 21.676 13.8123 21.675C13.8123 21.1456 13.8293 20.6157 13.8092 20.0871C13.7394 18.2527 12.1789 16.7961 10.3022 16.8C8.43788 16.8038 6.88042 18.2805 6.83097 20.1232C6.80331 21.1525 6.80504 22.1837 6.8289 23.2133C6.87021 24.9907 8.20609 26.3812 10.0386 26.5886C11.6662 26.7728 13.3543 25.5941 13.7027 23.9365C13.8566 23.2043 13.8188 22.4318 13.8682 21.6778ZM39.2017 21.6983C39.1843 21.6974 39.1668 21.6966 39.1494 21.6956C39.1494 21.1663 39.1645 20.6364 39.1466 20.1077C39.0843 18.2715 37.5271 16.8003 35.6584 16.7999C33.7868 16.7996 32.2238 18.2623 32.1686 20.1026C32.1373 21.1461 32.1387 22.1918 32.1664 23.2354C32.2134 25.0092 33.5707 26.4024 35.396 26.5905C37.0338 26.7594 38.6998 25.5784 39.0431 23.9148C39.1916 23.1957 39.1545 22.4383 39.2017 21.6983ZM26.5738 32.4211C27.15 30.9487 28.2592 30.143 29.7195 29.7299C30.5697 29.4894 31.4019 29.1862 32.243 28.9137C33.1967 28.6047 33.2067 28.6056 33.1797 27.5806C33.1752 27.411 33.0913 27.1814 32.9643 27.0874C32.2484 26.5574 31.6744 25.9201 31.2897 25.112C31.2432 25.0144 31.1223 24.8861 31.0343 24.8848C29.9668 24.8691 28.8991 24.8746 27.7966 24.8746C27.7966 25.38 27.7865 25.8353 27.7984 26.2901C27.8455 28.0877 27.1301 29.4995 25.6793 30.554C25.5746 30.6301 25.485 30.7965 25.4777 30.926C25.4109 32.1026 25.4167 32.103 26.5738 32.4211ZM20.5073 32.0701C20.5073 31.7513 20.4885 31.4785 20.5119 31.2092C20.5429 30.8527 20.4304 30.6279 20.1235 30.3994C18.8529 29.4533 18.1997 28.1675 18.1811 26.574C18.1747 26.0202 18.1801 25.4664 18.1801 24.874C17.0784 24.874 16.0232 24.8674 14.9683 24.8849C14.8689 24.8865 14.7541 25.0268 14.6769 25.1264C14.268 25.6536 13.9569 26.3059 13.4436 26.6898C12.8446 27.1378 12.7049 27.6287 12.7871 28.2841C12.7888 28.2982 12.7815 28.3172 12.7884 28.3264C12.8783 28.4456 12.9462 28.6223 13.0657 28.671C13.4741 28.8377 13.9025 28.9546 14.3203 29.0991C15.3573 29.4579 16.4162 29.7666 17.4221 30.1988C18.3943 30.6166 19.0051 31.4392 19.4125 32.428C19.7805 32.3077 20.129 32.1938 20.5073 32.0701ZM21.8569 13.3441C21.8569 13.8275 21.8169 14.3284 21.868 14.8197C21.9214 15.334 22.3761 15.6923 22.9051 15.7328C23.4155 15.7718 23.975 15.4664 24.0679 14.9807C24.1721 14.4358 24.1523 13.8672 24.1843 13.3441C23.3537 13.3441 22.6193 13.3441 21.8569 13.3441ZM21.8616 31.3139C21.8616 31.7926 21.817 32.3096 21.874 32.8151C21.9324 33.3324 22.4505 33.7074 22.9805 33.7122C23.4858 33.7168 24.0191 33.3599 24.0926 32.8722C24.1718 32.3462 24.1545 31.8056 24.1775 31.3139C23.3632 31.3139 22.6277 31.3139 21.8616 31.3139ZM36.8158 27.8442C36.0336 27.8442 35.2861 27.8442 34.5064 27.8442C34.5064 28.3034 34.4619 28.8037 34.518 29.2926C34.5841 29.8684 35.1166 30.2449 35.7146 30.224C36.2759 30.2044 36.7624 29.7848 36.8081 29.2187C36.8456 28.7544 36.8158 28.2845 36.8158 27.8442ZM9.15838 27.8445C9.15838 28.2838 9.13462 28.7391 9.16434 29.1909C9.20164 29.757 9.67611 30.193 10.2329 30.2228C10.8343 30.2549 11.3754 29.8975 11.4512 29.3199C11.5165 28.8229 11.4648 28.3105 11.4648 27.8444C10.6886 27.8445 9.95323 27.8445 9.15838 27.8445Z"/>
</mask>
<path d="M23.6754 1C24.5043 1.22084 25.3118 1.48253 25.9878 2.04725C27.1401 3.0098 27.766 4.22945 27.7927 5.73582C27.8097 6.69493 27.8061 7.65471 27.7943 8.61393C27.7744 10.2243 27.1035 11.5151 25.8149 12.4681C25.5526 12.6622 25.4349 12.8471 25.4637 13.1669C25.4904 13.4642 25.4694 13.7658 25.4694 14.101C26.4773 14.4344 27.4761 14.7626 28.4732 15.0957C28.9333 15.2494 29.3988 15.3914 29.8464 15.576C30.6382 15.9027 31.1191 16.3463 31.8827 17.4195C31.9591 17.2918 32.0064 17.1668 32.0914 17.0777C33.4999 15.6013 35.217 15.1138 37.139 15.7411C39.078 16.374 40.2591 17.785 40.4116 19.8371C40.518 21.2684 40.464 22.7276 40.3142 24.1569C40.192 25.3217 39.4753 26.2462 38.523 26.9279C38.1972 27.1611 38.1013 27.3976 38.1132 27.7738C38.1394 28.5997 38.1226 28.596 38.8879 28.8451C39.9597 29.194 41.0326 29.5403 42.0991 29.9049C43.913 30.5252 44.9719 32.0199 44.9752 33.9393C44.9756 34.1971 44.9778 34.4548 44.9746 34.7126C44.9685 35.1896 44.7412 35.4585 44.3434 35.4643C43.9292 35.4704 43.7028 35.1946 43.6882 34.6917C43.675 34.2351 43.6878 33.7721 43.6144 33.3242C43.4515 32.331 42.8807 31.6029 41.9466 31.2523C40.7049 30.7866 39.4327 30.4024 38.1731 29.9844C38.1202 29.9668 38.0633 29.9616 38.0111 29.9513C36.9546 32.1561 34.2304 31.98 33.3133 29.9341C33.1482 29.9879 32.9772 30.0435 32.8062 30.0995C31.735 30.4507 30.6618 30.7961 29.5934 31.1555C28.7632 31.4347 28.1687 31.9725 27.8261 32.8394C28.2732 32.9903 28.6993 33.1354 29.1263 33.2779C31.305 34.0047 32.3018 35.3652 32.3281 37.6481C32.3294 37.7606 32.3394 37.873 32.3467 38.0136C34.8994 38.0136 37.4379 38.0136 40.0288 38.0136C40.0288 37.545 40.0239 37.0913 40.0301 36.6377C40.0375 36.0964 40.2707 35.8041 40.6837 35.8015C41.0993 35.799 41.3436 36.0963 41.3499 36.6264C41.3554 37.0813 41.351 37.5363 41.351 38.0164C42.1427 38.0164 42.894 38.0164 43.6656 38.0164C43.6786 37.9009 43.675 37.7864 43.706 37.6822C43.8032 37.3554 44.0325 37.1665 44.3715 37.1912C44.7045 37.2154 44.9389 37.4136 44.9657 37.7606C44.9919 38.1022 45.0352 38.4648 44.9486 38.7849C44.8911 38.9976 44.6408 39.1875 44.4334 39.3191C44.3077 39.3987 44.0992 39.354 43.9279 39.354C40.2489 39.3552 36.5699 39.3549 32.8908 39.355C32.7215 39.355 32.5523 39.355 32.3265 39.355C32.3265 39.7232 32.3361 40.0479 32.3242 40.3718C32.307 40.8438 32.0607 41.1161 31.669 41.1189C31.2773 41.1218 31.0137 40.8501 31.0074 40.3807C30.9942 39.4071 31.0063 38.4333 31.0013 37.4595C30.9938 35.9838 30.308 35.0454 28.9022 34.5791C27.7237 34.1883 26.5447 33.7991 25.3369 33.3995C24.8694 34.3752 24.1303 34.9998 23.0123 35.009C21.8922 35.0182 21.1376 34.4198 20.6409 33.3883C19.265 33.8559 17.8701 34.2669 16.5275 34.8082C15.6066 35.1796 15.0331 35.9804 15.0082 36.9811C14.9531 39.1984 14.9911 41.4182 14.9911 43.6696C15.7467 43.6696 16.4977 43.6696 17.3142 43.6696C17.3142 43.5287 17.3142 43.378 17.3142 43.2272C17.3142 42.1963 17.313 41.1652 17.3148 40.1343C17.3158 39.5626 17.5501 39.2541 17.9689 39.2639C18.3813 39.2734 18.604 39.5855 18.6044 40.159C18.6052 41.3181 18.6047 42.4771 18.6047 43.6691C21.5196 43.6691 24.4162 43.6691 27.3723 43.6691C27.3723 43.483 27.3723 43.2886 27.3723 43.0944C27.3723 42.0777 27.3698 41.0611 27.3736 40.0444C27.3755 39.5595 27.6418 39.2531 28.0359 39.2648C28.4191 39.2761 28.6592 39.5617 28.661 40.0339C28.6653 41.2351 28.6625 42.4363 28.6625 43.6697C29.4381 43.6697 30.189 43.6697 30.9659 43.6697C30.9823 43.591 31.0001 43.4968 31.0215 43.4036C31.1062 43.0345 31.3246 42.8191 31.717 42.8479C32.1144 42.877 32.2775 43.1439 32.3234 43.5072C32.3288 43.5495 32.3267 43.5929 32.3272 43.636C32.3403 44.6685 32.3957 45.0071 31.0284 44.9999C25.5458 44.971 20.063 44.9881 14.5802 44.9878C13.8426 44.9878 13.6508 44.7939 13.65 44.0412C13.6485 42.6523 13.6496 41.2632 13.6496 39.8743C13.6496 39.7191 13.6496 39.5639 13.6496 39.3549C13.4262 39.3549 13.2436 39.3549 13.061 39.3549C9.36767 39.3549 5.67432 39.3513 1.98097 39.3601C1.58968 39.361 1.2498 39.3016 1.00012 38.9753C1.00012 38.5171 1.00012 38.0589 1.00012 37.6006C1.19725 37.3429 1.41607 37.1082 1.78119 37.2018C2.19107 37.307 2.31718 37.6278 2.29755 38.0143C3.0885 38.0143 3.83929 38.0143 4.62588 38.0143C4.62588 37.5457 4.62324 37.1047 4.62657 36.6638C4.63081 36.0988 4.86914 35.7956 5.29761 35.8014C5.70921 35.807 5.93973 36.0995 5.94696 36.6419C5.95304 37.0949 5.94822 37.548 5.94822 38.013C8.54138 38.013 11.0792 38.013 13.6496 38.013C13.6496 37.8575 13.6488 37.7308 13.6497 37.6039C13.6664 35.3899 14.7127 33.9663 16.809 33.296C17.2517 33.1545 17.6891 32.9962 18.1495 32.8386C17.8415 32.0536 17.3265 31.5248 16.584 31.2374C16.0259 31.0213 15.4528 30.8433 14.884 30.6553C14.1439 30.4107 13.4015 30.1731 12.666 29.9344C11.7022 32.0305 8.98695 32.1069 7.9556 29.9201C6.60033 30.3821 5.22256 30.803 3.88439 31.3252C3.01874 31.663 2.51075 32.3918 2.36445 33.3142C2.28665 33.8046 2.31063 34.3109 2.28562 34.8098C2.26233 35.2738 1.89881 35.5717 1.4762 35.4372C1.30052 35.3813 1.15778 35.2215 1 35.1091C1 34.4503 1 33.7916 1 33.133C1.02582 33.1013 1.06724 33.0732 1.07516 33.0376C1.44338 31.3948 2.45292 30.3568 4.04538 29.8516C5.03816 29.5366 6.02373 29.1988 7.01238 28.8708C7.856 28.5907 7.8381 28.5898 7.86415 27.7258C7.87471 27.3756 7.77625 27.161 7.48331 26.9519C6.51611 26.2612 5.78678 25.3331 5.6617 24.1529C5.51035 22.7241 5.45791 21.2646 5.56474 19.8336C5.71632 17.802 6.87951 16.399 8.79968 15.755C10.7026 15.1168 12.407 15.5831 13.8316 17.0132C13.9376 17.1197 14.0367 17.2331 14.1608 17.3667C14.7955 16.2522 15.7386 15.6374 16.8935 15.29C17.8226 15.0104 18.7409 14.6944 19.6629 14.3913C20.5083 14.1133 20.4889 14.1107 20.5166 13.208C20.5274 12.8533 20.4107 12.652 20.1275 12.4405C18.8563 11.4905 18.2004 10.2067 18.1821 8.61359C18.1712 7.66872 18.1654 6.72328 18.1833 5.77864C18.2167 4.01206 18.9883 2.63228 20.49 1.71909C21.0371 1.38635 21.6942 1.23461 22.3011 1.00034C22.7592 0.999999 23.2173 1 23.6754 1ZM15.1476 23.5349C16.1609 23.5349 17.1551 23.5349 18.1447 23.5349C18.643 20.7381 20.4114 19.0108 22.8031 18.9634C25.4435 18.9111 27.1494 20.4552 27.8404 23.5292C28.8331 23.5292 29.8272 23.5292 30.8371 23.5292C30.8371 23.4002 30.8358 23.3022 30.8374 23.2043C30.8562 22.0028 30.8721 20.8013 30.8969 19.5999C30.9024 19.3312 31.0032 19.05 30.9507 18.7971C30.745 17.8052 30.1647 17.0982 29.2133 16.7213C28.9086 16.6006 28.5935 16.5054 28.2817 16.403C27.2964 16.0796 26.3104 15.7583 25.3244 15.436C24.8391 16.4676 24.0712 17.0559 22.9575 17.046C21.8467 17.0361 21.1008 16.4117 20.6419 15.4375C19.3861 15.8489 18.1644 16.2459 16.945 16.6497C16.207 16.894 15.612 17.3388 15.291 18.0516C15.1269 18.4161 15.0379 18.8398 15.0245 19.2404C15.0075 19.7497 15.1293 20.262 15.1415 20.7743C15.1633 21.6861 15.1476 22.5988 15.1476 23.5349ZM26.5673 25.1807C26.5467 25.1792 26.5262 25.1776 26.5057 25.1761C26.5057 24.6752 26.5251 24.1735 26.5022 23.6736C26.4164 21.8014 24.9982 20.3727 23.1306 20.2607C21.3837 20.1558 19.7641 21.4445 19.5469 23.267C19.4089 24.4243 19.4279 25.6117 19.4926 26.7792C19.5885 28.5101 20.965 29.9054 22.5882 30.0428C24.3913 30.1954 25.9592 29.1539 26.3626 27.4344C26.5331 26.7073 26.505 25.9334 26.5673 25.1807ZM19.5198 7.20753C19.4902 7.20822 19.4606 7.20891 19.431 7.2096C19.4679 7.87968 19.4546 8.55712 19.5517 9.21825C19.794 10.8691 21.292 12.0939 22.9988 12.0918C24.6991 12.0896 26.2323 10.861 26.4147 9.19633C26.5463 7.99412 26.5562 6.76471 26.478 5.55665C26.3582 3.70456 24.8677 2.33983 23.0635 2.29059C21.3093 2.24272 19.7991 3.50932 19.534 5.32491C19.4442 5.94013 19.5198 6.57934 19.5198 7.20753ZM13.8682 21.6778C13.8496 21.6769 13.8309 21.676 13.8123 21.675C13.8123 21.1456 13.8293 20.6157 13.8092 20.0871C13.7394 18.2527 12.1789 16.7961 10.3022 16.8C8.43788 16.8038 6.88042 18.2805 6.83097 20.1232C6.80331 21.1525 6.80504 22.1837 6.8289 23.2133C6.87021 24.9907 8.20609 26.3812 10.0386 26.5886C11.6662 26.7728 13.3543 25.5941 13.7027 23.9365C13.8566 23.2043 13.8188 22.4318 13.8682 21.6778ZM39.2017 21.6983C39.1843 21.6974 39.1668 21.6966 39.1494 21.6956C39.1494 21.1663 39.1645 20.6364 39.1466 20.1077C39.0843 18.2715 37.5271 16.8003 35.6584 16.7999C33.7868 16.7996 32.2238 18.2623 32.1686 20.1026C32.1373 21.1461 32.1387 22.1918 32.1664 23.2354C32.2134 25.0092 33.5707 26.4024 35.396 26.5905C37.0338 26.7594 38.6998 25.5784 39.0431 23.9148C39.1916 23.1957 39.1545 22.4383 39.2017 21.6983ZM26.5738 32.4211C27.15 30.9487 28.2592 30.143 29.7195 29.7299C30.5697 29.4894 31.4019 29.1862 32.243 28.9137C33.1967 28.6047 33.2067 28.6056 33.1797 27.5806C33.1752 27.411 33.0913 27.1814 32.9643 27.0874C32.2484 26.5574 31.6744 25.9201 31.2897 25.112C31.2432 25.0144 31.1223 24.8861 31.0343 24.8848C29.9668 24.8691 28.8991 24.8746 27.7966 24.8746C27.7966 25.38 27.7865 25.8353 27.7984 26.2901C27.8455 28.0877 27.1301 29.4995 25.6793 30.554C25.5746 30.6301 25.485 30.7965 25.4777 30.926C25.4109 32.1026 25.4167 32.103 26.5738 32.4211ZM20.5073 32.0701C20.5073 31.7513 20.4885 31.4785 20.5119 31.2092C20.5429 30.8527 20.4304 30.6279 20.1235 30.3994C18.8529 29.4533 18.1997 28.1675 18.1811 26.574C18.1747 26.0202 18.1801 25.4664 18.1801 24.874C17.0784 24.874 16.0232 24.8674 14.9683 24.8849C14.8689 24.8865 14.7541 25.0268 14.6769 25.1264C14.268 25.6536 13.9569 26.3059 13.4436 26.6898C12.8446 27.1378 12.7049 27.6287 12.7871 28.2841C12.7888 28.2982 12.7815 28.3172 12.7884 28.3264C12.8783 28.4456 12.9462 28.6223 13.0657 28.671C13.4741 28.8377 13.9025 28.9546 14.3203 29.0991C15.3573 29.4579 16.4162 29.7666 17.4221 30.1988C18.3943 30.6166 19.0051 31.4392 19.4125 32.428C19.7805 32.3077 20.129 32.1938 20.5073 32.0701ZM21.8569 13.3441C21.8569 13.8275 21.8169 14.3284 21.868 14.8197C21.9214 15.334 22.3761 15.6923 22.9051 15.7328C23.4155 15.7718 23.975 15.4664 24.0679 14.9807C24.1721 14.4358 24.1523 13.8672 24.1843 13.3441C23.3537 13.3441 22.6193 13.3441 21.8569 13.3441ZM21.8616 31.3139C21.8616 31.7926 21.817 32.3096 21.874 32.8151C21.9324 33.3324 22.4505 33.7074 22.9805 33.7122C23.4858 33.7168 24.0191 33.3599 24.0926 32.8722C24.1718 32.3462 24.1545 31.8056 24.1775 31.3139C23.3632 31.3139 22.6277 31.3139 21.8616 31.3139ZM36.8158 27.8442C36.0336 27.8442 35.2861 27.8442 34.5064 27.8442C34.5064 28.3034 34.4619 28.8037 34.518 29.2926C34.5841 29.8684 35.1166 30.2449 35.7146 30.224C36.2759 30.2044 36.7624 29.7848 36.8081 29.2187C36.8456 28.7544 36.8158 28.2845 36.8158 27.8442ZM9.15838 27.8445C9.15838 28.2838 9.13462 28.7391 9.16434 29.1909C9.20164 29.757 9.67611 30.193 10.2329 30.2228C10.8343 30.2549 11.3754 29.8975 11.4512 29.3199C11.5165 28.8229 11.4648 28.3105 11.4648 27.8444C10.6886 27.8445 9.95323 27.8445 9.15838 27.8445Z" fill="#887EF9"/>
<path d="M23.6754 1C24.5043 1.22084 25.3118 1.48253 25.9878 2.04725C27.1401 3.0098 27.766 4.22945 27.7927 5.73582C27.8097 6.69493 27.8061 7.65471 27.7943 8.61393C27.7744 10.2243 27.1035 11.5151 25.8149 12.4681C25.5526 12.6622 25.4349 12.8471 25.4637 13.1669C25.4904 13.4642 25.4694 13.7658 25.4694 14.101C26.4773 14.4344 27.4761 14.7626 28.4732 15.0957C28.9333 15.2494 29.3988 15.3914 29.8464 15.576C30.6382 15.9027 31.1191 16.3463 31.8827 17.4195C31.9591 17.2918 32.0064 17.1668 32.0914 17.0777C33.4999 15.6013 35.217 15.1138 37.139 15.7411C39.078 16.374 40.2591 17.785 40.4116 19.8371C40.518 21.2684 40.464 22.7276 40.3142 24.1569C40.192 25.3217 39.4753 26.2462 38.523 26.9279C38.1972 27.1611 38.1013 27.3976 38.1132 27.7738C38.1394 28.5997 38.1226 28.596 38.8879 28.8451C39.9597 29.194 41.0326 29.5403 42.0991 29.9049C43.913 30.5252 44.9719 32.0199 44.9752 33.9393C44.9756 34.1971 44.9778 34.4548 44.9746 34.7126C44.9685 35.1896 44.7412 35.4585 44.3434 35.4643C43.9292 35.4704 43.7028 35.1946 43.6882 34.6917C43.675 34.2351 43.6878 33.7721 43.6144 33.3242C43.4515 32.331 42.8807 31.6029 41.9466 31.2523C40.7049 30.7866 39.4327 30.4024 38.1731 29.9844C38.1202 29.9668 38.0633 29.9616 38.0111 29.9513C36.9546 32.1561 34.2304 31.98 33.3133 29.9341C33.1482 29.9879 32.9772 30.0435 32.8062 30.0995C31.735 30.4507 30.6618 30.7961 29.5934 31.1555C28.7632 31.4347 28.1687 31.9725 27.8261 32.8394C28.2732 32.9903 28.6993 33.1354 29.1263 33.2779C31.305 34.0047 32.3018 35.3652 32.3281 37.6481C32.3294 37.7606 32.3394 37.873 32.3467 38.0136C34.8994 38.0136 37.4379 38.0136 40.0288 38.0136C40.0288 37.545 40.0239 37.0913 40.0301 36.6377C40.0375 36.0964 40.2707 35.8041 40.6837 35.8015C41.0993 35.799 41.3436 36.0963 41.3499 36.6264C41.3554 37.0813 41.351 37.5363 41.351 38.0164C42.1427 38.0164 42.894 38.0164 43.6656 38.0164C43.6786 37.9009 43.675 37.7864 43.706 37.6822C43.8032 37.3554 44.0325 37.1665 44.3715 37.1912C44.7045 37.2154 44.9389 37.4136 44.9657 37.7606C44.9919 38.1022 45.0352 38.4648 44.9486 38.7849C44.8911 38.9976 44.6408 39.1875 44.4334 39.3191C44.3077 39.3987 44.0992 39.354 43.9279 39.354C40.2489 39.3552 36.5699 39.3549 32.8908 39.355C32.7215 39.355 32.5523 39.355 32.3265 39.355C32.3265 39.7232 32.3361 40.0479 32.3242 40.3718C32.307 40.8438 32.0607 41.1161 31.669 41.1189C31.2773 41.1218 31.0137 40.8501 31.0074 40.3807C30.9942 39.4071 31.0063 38.4333 31.0013 37.4595C30.9938 35.9838 30.308 35.0454 28.9022 34.5791C27.7237 34.1883 26.5447 33.7991 25.3369 33.3995C24.8694 34.3752 24.1303 34.9998 23.0123 35.009C21.8922 35.0182 21.1376 34.4198 20.6409 33.3883C19.265 33.8559 17.8701 34.2669 16.5275 34.8082C15.6066 35.1796 15.0331 35.9804 15.0082 36.9811C14.9531 39.1984 14.9911 41.4182 14.9911 43.6696C15.7467 43.6696 16.4977 43.6696 17.3142 43.6696C17.3142 43.5287 17.3142 43.378 17.3142 43.2272C17.3142 42.1963 17.313 41.1652 17.3148 40.1343C17.3158 39.5626 17.5501 39.2541 17.9689 39.2639C18.3813 39.2734 18.604 39.5855 18.6044 40.159C18.6052 41.3181 18.6047 42.4771 18.6047 43.6691C21.5196 43.6691 24.4162 43.6691 27.3723 43.6691C27.3723 43.483 27.3723 43.2886 27.3723 43.0944C27.3723 42.0777 27.3698 41.0611 27.3736 40.0444C27.3755 39.5595 27.6418 39.2531 28.0359 39.2648C28.4191 39.2761 28.6592 39.5617 28.661 40.0339C28.6653 41.2351 28.6625 42.4363 28.6625 43.6697C29.4381 43.6697 30.189 43.6697 30.9659 43.6697C30.9823 43.591 31.0001 43.4968 31.0215 43.4036C31.1062 43.0345 31.3246 42.8191 31.717 42.8479C32.1144 42.877 32.2775 43.1439 32.3234 43.5072C32.3288 43.5495 32.3267 43.5929 32.3272 43.636C32.3403 44.6685 32.3957 45.0071 31.0284 44.9999C25.5458 44.971 20.063 44.9881 14.5802 44.9878C13.8426 44.9878 13.6508 44.7939 13.65 44.0412C13.6485 42.6523 13.6496 41.2632 13.6496 39.8743C13.6496 39.7191 13.6496 39.5639 13.6496 39.3549C13.4262 39.3549 13.2436 39.3549 13.061 39.3549C9.36767 39.3549 5.67432 39.3513 1.98097 39.3601C1.58968 39.361 1.2498 39.3016 1.00012 38.9753C1.00012 38.5171 1.00012 38.0589 1.00012 37.6006C1.19725 37.3429 1.41607 37.1082 1.78119 37.2018C2.19107 37.307 2.31718 37.6278 2.29755 38.0143C3.0885 38.0143 3.83929 38.0143 4.62588 38.0143C4.62588 37.5457 4.62324 37.1047 4.62657 36.6638C4.63081 36.0988 4.86914 35.7956 5.29761 35.8014C5.70921 35.807 5.93973 36.0995 5.94696 36.6419C5.95304 37.0949 5.94822 37.548 5.94822 38.013C8.54138 38.013 11.0792 38.013 13.6496 38.013C13.6496 37.8575 13.6488 37.7308 13.6497 37.6039C13.6664 35.3899 14.7127 33.9663 16.809 33.296C17.2517 33.1545 17.6891 32.9962 18.1495 32.8386C17.8415 32.0536 17.3265 31.5248 16.584 31.2374C16.0259 31.0213 15.4528 30.8433 14.884 30.6553C14.1439 30.4107 13.4015 30.1731 12.666 29.9344C11.7022 32.0305 8.98695 32.1069 7.9556 29.9201C6.60033 30.3821 5.22256 30.803 3.88439 31.3252C3.01874 31.663 2.51075 32.3918 2.36445 33.3142C2.28665 33.8046 2.31063 34.3109 2.28562 34.8098C2.26233 35.2738 1.89881 35.5717 1.4762 35.4372C1.30052 35.3813 1.15778 35.2215 1 35.1091C1 34.4503 1 33.7916 1 33.133C1.02582 33.1013 1.06724 33.0732 1.07516 33.0376C1.44338 31.3948 2.45292 30.3568 4.04538 29.8516C5.03816 29.5366 6.02373 29.1988 7.01238 28.8708C7.856 28.5907 7.8381 28.5898 7.86415 27.7258C7.87471 27.3756 7.77625 27.161 7.48331 26.9519C6.51611 26.2612 5.78678 25.3331 5.6617 24.1529C5.51035 22.7241 5.45791 21.2646 5.56474 19.8336C5.71632 17.802 6.87951 16.399 8.79968 15.755C10.7026 15.1168 12.407 15.5831 13.8316 17.0132C13.9376 17.1197 14.0367 17.2331 14.1608 17.3667C14.7955 16.2522 15.7386 15.6374 16.8935 15.29C17.8226 15.0104 18.7409 14.6944 19.6629 14.3913C20.5083 14.1133 20.4889 14.1107 20.5166 13.208C20.5274 12.8533 20.4107 12.652 20.1275 12.4405C18.8563 11.4905 18.2004 10.2067 18.1821 8.61359C18.1712 7.66872 18.1654 6.72328 18.1833 5.77864C18.2167 4.01206 18.9883 2.63228 20.49 1.71909C21.0371 1.38635 21.6942 1.23461 22.3011 1.00034C22.7592 0.999999 23.2173 1 23.6754 1ZM15.1476 23.5349C16.1609 23.5349 17.1551 23.5349 18.1447 23.5349C18.643 20.7381 20.4114 19.0108 22.8031 18.9634C25.4435 18.9111 27.1494 20.4552 27.8404 23.5292C28.8331 23.5292 29.8272 23.5292 30.8371 23.5292C30.8371 23.4002 30.8358 23.3022 30.8374 23.2043C30.8562 22.0028 30.8721 20.8013 30.8969 19.5999C30.9024 19.3312 31.0032 19.05 30.9507 18.7971C30.745 17.8052 30.1647 17.0982 29.2133 16.7213C28.9086 16.6006 28.5935 16.5054 28.2817 16.403C27.2964 16.0796 26.3104 15.7583 25.3244 15.436C24.8391 16.4676 24.0712 17.0559 22.9575 17.046C21.8467 17.0361 21.1008 16.4117 20.6419 15.4375C19.3861 15.8489 18.1644 16.2459 16.945 16.6497C16.207 16.894 15.612 17.3388 15.291 18.0516C15.1269 18.4161 15.0379 18.8398 15.0245 19.2404C15.0075 19.7497 15.1293 20.262 15.1415 20.7743C15.1633 21.6861 15.1476 22.5988 15.1476 23.5349ZM26.5673 25.1807C26.5467 25.1792 26.5262 25.1776 26.5057 25.1761C26.5057 24.6752 26.5251 24.1735 26.5022 23.6736C26.4164 21.8014 24.9982 20.3727 23.1306 20.2607C21.3837 20.1558 19.7641 21.4445 19.5469 23.267C19.4089 24.4243 19.4279 25.6117 19.4926 26.7792C19.5885 28.5101 20.965 29.9054 22.5882 30.0428C24.3913 30.1954 25.9592 29.1539 26.3626 27.4344C26.5331 26.7073 26.505 25.9334 26.5673 25.1807ZM19.5198 7.20753C19.4902 7.20822 19.4606 7.20891 19.431 7.2096C19.4679 7.87968 19.4546 8.55712 19.5517 9.21825C19.794 10.8691 21.292 12.0939 22.9988 12.0918C24.6991 12.0896 26.2323 10.861 26.4147 9.19633C26.5463 7.99412 26.5562 6.76471 26.478 5.55665C26.3582 3.70456 24.8677 2.33983 23.0635 2.29059C21.3093 2.24272 19.7991 3.50932 19.534 5.32491C19.4442 5.94013 19.5198 6.57934 19.5198 7.20753ZM13.8682 21.6778C13.8496 21.6769 13.8309 21.676 13.8123 21.675C13.8123 21.1456 13.8293 20.6157 13.8092 20.0871C13.7394 18.2527 12.1789 16.7961 10.3022 16.8C8.43788 16.8038 6.88042 18.2805 6.83097 20.1232C6.80331 21.1525 6.80504 22.1837 6.8289 23.2133C6.87021 24.9907 8.20609 26.3812 10.0386 26.5886C11.6662 26.7728 13.3543 25.5941 13.7027 23.9365C13.8566 23.2043 13.8188 22.4318 13.8682 21.6778ZM39.2017 21.6983C39.1843 21.6974 39.1668 21.6966 39.1494 21.6956C39.1494 21.1663 39.1645 20.6364 39.1466 20.1077C39.0843 18.2715 37.5271 16.8003 35.6584 16.7999C33.7868 16.7996 32.2238 18.2623 32.1686 20.1026C32.1373 21.1461 32.1387 22.1918 32.1664 23.2354C32.2134 25.0092 33.5707 26.4024 35.396 26.5905C37.0338 26.7594 38.6998 25.5784 39.0431 23.9148C39.1916 23.1957 39.1545 22.4383 39.2017 21.6983ZM26.5738 32.4211C27.15 30.9487 28.2592 30.143 29.7195 29.7299C30.5697 29.4894 31.4019 29.1862 32.243 28.9137C33.1967 28.6047 33.2067 28.6056 33.1797 27.5806C33.1752 27.411 33.0913 27.1814 32.9643 27.0874C32.2484 26.5574 31.6744 25.9201 31.2897 25.112C31.2432 25.0144 31.1223 24.8861 31.0343 24.8848C29.9668 24.8691 28.8991 24.8746 27.7966 24.8746C27.7966 25.38 27.7865 25.8353 27.7984 26.2901C27.8455 28.0877 27.1301 29.4995 25.6793 30.554C25.5746 30.6301 25.485 30.7965 25.4777 30.926C25.4109 32.1026 25.4167 32.103 26.5738 32.4211ZM20.5073 32.0701C20.5073 31.7513 20.4885 31.4785 20.5119 31.2092C20.5429 30.8527 20.4304 30.6279 20.1235 30.3994C18.8529 29.4533 18.1997 28.1675 18.1811 26.574C18.1747 26.0202 18.1801 25.4664 18.1801 24.874C17.0784 24.874 16.0232 24.8674 14.9683 24.8849C14.8689 24.8865 14.7541 25.0268 14.6769 25.1264C14.268 25.6536 13.9569 26.3059 13.4436 26.6898C12.8446 27.1378 12.7049 27.6287 12.7871 28.2841C12.7888 28.2982 12.7815 28.3172 12.7884 28.3264C12.8783 28.4456 12.9462 28.6223 13.0657 28.671C13.4741 28.8377 13.9025 28.9546 14.3203 29.0991C15.3573 29.4579 16.4162 29.7666 17.4221 30.1988C18.3943 30.6166 19.0051 31.4392 19.4125 32.428C19.7805 32.3077 20.129 32.1938 20.5073 32.0701ZM21.8569 13.3441C21.8569 13.8275 21.8169 14.3284 21.868 14.8197C21.9214 15.334 22.3761 15.6923 22.9051 15.7328C23.4155 15.7718 23.975 15.4664 24.0679 14.9807C24.1721 14.4358 24.1523 13.8672 24.1843 13.3441C23.3537 13.3441 22.6193 13.3441 21.8569 13.3441ZM21.8616 31.3139C21.8616 31.7926 21.817 32.3096 21.874 32.8151C21.9324 33.3324 22.4505 33.7074 22.9805 33.7122C23.4858 33.7168 24.0191 33.3599 24.0926 32.8722C24.1718 32.3462 24.1545 31.8056 24.1775 31.3139C23.3632 31.3139 22.6277 31.3139 21.8616 31.3139ZM36.8158 27.8442C36.0336 27.8442 35.2861 27.8442 34.5064 27.8442C34.5064 28.3034 34.4619 28.8037 34.518 29.2926C34.5841 29.8684 35.1166 30.2449 35.7146 30.224C36.2759 30.2044 36.7624 29.7848 36.8081 29.2187C36.8456 28.7544 36.8158 28.2845 36.8158 27.8442ZM9.15838 27.8445C9.15838 28.2838 9.13462 28.7391 9.16434 29.1909C9.20164 29.757 9.67611 30.193 10.2329 30.2228C10.8343 30.2549 11.3754 29.8975 11.4512 29.3199C11.5165 28.8229 11.4648 28.3105 11.4648 27.8444C10.6886 27.8445 9.95323 27.8445 9.15838 27.8445Z" stroke="#887EF9" stroke-width="0.6" mask="url(#path-1-outside-1_2_636)"/>
</svg>
