<svg width="91" height="206" viewBox="0 0 91 206" fill="none" xmlns="http://www.w3.org/2000/svg">
<g opacity="0.6">
<path d="M60.2724 4.6792C-31.7416 30.9692 10.8364 126.555 10.8364 126.555" stroke="#12CCE5" stroke-miterlimit="10"/>
<path d="M15.6584 121.733H6.0144V131.377H15.6584V121.733Z" fill="#12CCE5"/>
<path d="M65.6663 0H56.0223V9.644H65.6663V0Z" fill="#12CCE5"/>
<path d="M80.4303 178.45L63.2952 195.585L70.0586 202.348L87.1937 185.213L80.4303 178.45Z" fill="#12CCE5"/>
<path d="M18.8272 136.444L42.0277 159.645L42.028 159.645C42.709 160.325 43.8113 160.325 44.4918 159.645L44.4921 159.644C45.1717 158.963 45.1722 157.861 44.4918 157.181L21.2913 133.98L22.0484 133.223L66.5707 146.421L77.3955 175.804L60.6499 192.549L31.2674 181.725L18.0702 137.201L18.8272 136.444Z" stroke="#12CCE5"/>
</g>
</svg>
