<svg width="81" height="96" viewBox="0 0 81 96" fill="none" xmlns="http://www.w3.org/2000/svg">
<g opacity="0.6">
<path d="M2.88338 78.0698C2.72782 78.0698 2.60156 77.9438 2.60156 77.788C2.60156 57.6875 10.4291 38.79 24.6424 24.577C38.8557 10.3637 57.7532 2.53613 77.8537 2.53613C78.0095 2.53613 78.1355 2.66239 78.1355 2.81795C78.1355 2.97352 78.0095 3.09977 77.8537 3.09977C57.9036 3.09977 39.1477 10.8687 25.0409 24.9755C10.9341 39.0823 3.1652 57.8379 3.1652 77.788C3.1652 77.9438 3.03895 78.0698 2.88338 78.0698Z" fill="#28D2FF"/>
<path d="M80.672 0H75.0356V5.6364H80.672V0Z" fill="#12CCE5"/>
<path d="M5.63652 74.9185H0.00012207V80.5549H5.63652V74.9185Z" fill="#12CCE5"/>
<path d="M27.1037 22.5098H23.4401V26.1734H27.1037V22.5098Z" fill="#12CCE5"/>
<path d="M70.3686 58.3855L58.0729 70.1953L63.0556 75.383L75.3513 63.5732L70.3686 58.3855Z" fill="#12CCE5"/>
<path d="M50.0604 45.5827C49.3941 44.889 48.4558 44.6315 47.583 44.7941L30.6201 26.2906L59.892 33.0071L68.0755 56.456L56.2492 67.8152L33.6518 58.2129L27.6486 29.2212L45.4149 46.8766C45.2173 47.7421 45.4367 48.6898 46.103 49.3836C47.1524 50.4764 48.8893 50.5115 49.9821 49.4619C51.075 48.4124 51.1101 46.6755 50.0604 45.5827Z" stroke="#12CCE5"/>
<path d="M20.3732 93.1816C20.2566 93.1816 20.1619 93.0869 20.1619 92.9703V59.3886C20.1619 59.2719 20.2566 59.1772 20.3732 59.1772C20.4899 59.1772 20.5846 59.2719 20.5846 59.3886V92.9703C20.5846 93.0869 20.4899 93.1816 20.3732 93.1816Z" fill="#12CCE5"/>
<path d="M52.6473 91.8197H19.0656C18.9489 91.8197 18.8542 91.725 18.8542 91.6083C18.8542 91.4917 18.9489 91.397 19.0656 91.397H52.6473C52.7639 91.397 52.8586 91.4917 52.8586 91.6083C52.8586 91.725 52.7639 91.8197 52.6473 91.8197Z" fill="#12CCE5"/>
<path d="M20.3732 95.7474C22.5522 95.7474 24.3187 93.981 24.3187 91.8019C24.3187 89.6229 22.5522 87.8564 20.3732 87.8564C18.1942 87.8564 16.4277 89.6229 16.4277 91.8019C16.4277 93.981 18.1942 95.7474 20.3732 95.7474Z" fill="#12CCE5"/>
</g>
</svg>
