<svg width="123" height="123" viewBox="0 0 123 123" fill="none" xmlns="http://www.w3.org/2000/svg">
<g opacity="0.6">
<path d="M49.2438 0.000369396C51.1673 1.20816 51.82 2.34521 51.4648 3.86923C51.1179 5.35807 49.9136 6.38694 48.4539 6.44104C47.0297 6.49399 45.6691 5.56952 45.2462 4.26111C44.7726 2.79724 45.3359 1.30235 46.6769 0.452014C46.9008 0.310166 47.1138 0.150926 47.3316 0C47.9686 0.000378262 48.6064 0.000369396 49.2438 0.000369396Z" fill="#887EF9"/>
<path d="M75.0651 0.000488281C76.0735 0.687033 77.0967 1.33689 77.2571 2.73192C77.4477 4.39098 76.5865 5.80492 74.9944 6.31293C73.535 6.77857 71.9048 6.06327 71.202 4.64895C70.4795 3.19529 70.9202 1.49728 72.2714 0.557676C72.5562 0.359467 72.8585 0.185458 73.1527 0.000488281C73.7901 0.000488281 74.4274 0.000488281 75.0651 0.000488281Z" fill="#887EF9"/>
<path d="M122.404 49.2517C121.196 51.176 120.06 51.8277 118.535 51.4729C117.046 51.1264 116.017 49.922 115.963 48.4619C115.91 47.0378 116.835 45.6772 118.143 45.2539C119.608 44.7803 121.101 45.3432 121.952 46.6845C122.094 46.9084 122.252 47.1214 122.404 47.3393C122.404 47.9766 122.404 48.6144 122.404 49.2517Z" fill="#887EF9"/>
<path d="M122.404 75.0731C121.722 76.0873 121.068 77.1044 119.673 77.2652C118.014 77.4566 116.601 76.5964 116.092 75.0043C115.624 73.5404 116.336 71.9177 117.755 71.2149C119.214 70.4924 120.908 70.9304 121.847 72.2797C122.045 72.5645 122.218 72.8667 122.404 73.161C122.404 73.798 122.404 74.4358 122.404 75.0731Z" fill="#887EF9"/>
<path d="M38.6659 48.3513C38.6349 43.0204 42.8877 38.7139 48.2557 38.6799C53.6069 38.6459 57.9374 42.7973 57.9835 48.3528C58.0274 53.647 53.5702 58.0053 48.3127 58.0144C43.0409 58.0234 38.697 53.6723 38.6659 48.3513Z" fill="#887EF9"/>
<path d="M74.0594 38.6744C79.3929 38.6498 83.6959 42.9057 83.7246 48.2706C83.7534 53.6332 79.5892 57.9533 74.045 57.9907C68.7433 58.0267 64.388 53.5639 64.3899 48.314C64.3922 43.0343 68.7407 38.6986 74.0594 38.6744Z" fill="#887EF9"/>
<path d="M48.3662 83.7381C43.0471 83.7918 38.7441 79.5473 38.6677 74.1711C38.5921 68.8524 43.0177 64.3722 48.3217 64.3976C53.5924 64.4225 57.9579 68.7816 58.0067 74.0686C58.0551 79.3151 53.6989 83.6844 48.3662 83.7381Z" fill="#887EF9"/>
<path d="M83.7298 74.069C83.7533 79.4025 79.4967 83.7056 74.1325 83.7332C68.768 83.7608 64.4498 79.5946 64.4135 74.052C64.3787 68.7495 68.8433 64.3938 74.091 64.398C79.3723 64.4021 83.7064 68.7506 83.7298 74.069Z" fill="#887EF9"/>
<path d="M48.3003 28.9675C44.731 28.9626 41.8275 26.0522 41.8539 22.5064C41.88 19.0426 44.7957 16.1183 48.2667 16.0752C51.7607 16.0317 54.7315 18.9946 54.7398 22.5314C54.7481 26.1169 51.8907 28.9728 48.3003 28.9675Z" fill="#887EF9"/>
<path d="M74.0972 28.9671C70.5068 28.9731 67.6483 26.1176 67.6563 22.5332C67.6642 18.9961 70.6332 16.0332 74.1275 16.0751C77.5973 16.1168 80.5145 19.0407 80.5421 22.5045C80.5697 26.0499 77.6665 28.961 74.0972 28.9671Z" fill="#887EF9"/>
<path d="M28.9593 48.2789C28.9801 51.8175 26.1703 54.7086 22.6725 54.7472C19.053 54.7869 16.0545 51.8626 16.067 48.3046C16.0791 44.8503 19.0041 41.9071 22.4686 41.8628C26.0099 41.8174 28.9381 44.7119 28.9593 48.2789Z" fill="#887EF9"/>
<path d="M93.4369 48.3604C93.415 44.793 96.3018 41.8664 99.8468 41.8618C103.348 41.8573 106.357 44.866 106.33 48.3437C106.302 51.826 103.403 54.7238 99.924 54.7477C96.3256 54.7723 93.4585 51.9489 93.4369 48.3604Z" fill="#887EF9"/>
<path d="M28.9587 74.1537C28.9273 77.7195 25.9885 80.6068 22.4483 80.5497C18.9849 80.4937 16.0581 77.5304 16.0664 74.0882C16.0751 70.522 19.0697 67.6192 22.6919 67.6661C26.1848 67.7107 28.9901 70.615 28.9587 74.1537Z" fill="#887EF9"/>
<path d="M93.4372 74.1413C93.4122 70.6031 96.2203 67.7063 99.7154 67.6655C103.336 67.6231 106.333 70.5388 106.329 74.1001C106.325 77.5495 103.399 80.5007 99.9352 80.5498C96.3947 80.5998 93.4625 77.708 93.4372 74.1413Z" fill="#887EF9"/>
<path d="M48.3485 93.4449C51.9378 93.465 54.7627 96.3314 54.7389 99.9295C54.7158 103.41 51.8221 106.307 48.338 106.338C44.8617 106.369 41.8508 103.36 41.853 99.858C41.8557 96.3129 44.7811 93.4249 48.3485 93.4449Z" fill="#887EF9"/>
<path d="M67.6561 99.87C67.6508 96.2879 70.5166 93.4339 74.1063 93.4449C77.6748 93.4558 80.5752 96.3726 80.5419 99.9165C80.5094 103.38 77.5828 106.305 74.119 106.337C70.6205 106.37 67.6614 103.408 67.6561 99.87Z" fill="#887EF9"/>
<path d="M28.9629 22.5902C28.9432 26.1701 26.0537 29.0067 22.4693 28.9662C18.9635 28.9265 16.0857 26.051 16.0649 22.5668C16.0441 19.0966 19.0794 16.0592 22.5526 16.0732C26.0787 16.0875 28.9829 19.0399 28.9629 22.5902Z" fill="#887EF9"/>
<path d="M99.8729 28.9686C96.2877 28.9803 93.4265 26.1214 93.4348 22.5366C93.4435 18.9829 96.394 16.0328 99.8971 16.0752C103.362 16.1171 106.281 19.0339 106.329 22.5015C106.377 26.0015 103.427 28.9572 99.8729 28.9686Z" fill="#887EF9"/>
<path d="M22.5388 93.4428C26.1236 93.4397 28.9773 96.3058 28.9602 99.8913C28.9432 103.445 25.978 106.396 22.4829 106.337C19.012 106.278 16.0979 103.352 16.0668 99.8948C16.0351 96.3871 18.9855 93.4458 22.5388 93.4428Z" fill="#887EF9"/>
<path d="M93.4348 99.8658C93.4318 96.281 96.2976 93.4274 99.8836 93.4444C103.437 93.4614 106.388 96.4266 106.329 99.9218C106.27 103.393 103.344 106.307 99.8869 106.338C96.3793 106.37 93.4378 103.419 93.4348 99.8658Z" fill="#887EF9"/>
<path d="M3.1915 45.1007C4.95004 45.0878 6.39755 46.4893 6.43425 48.2406C6.47169 50.0219 4.99808 51.5621 3.23878 51.5807C1.49084 51.5992 -0.0142718 50.0688 0.000102116 48.2875C0.0137195 46.5271 1.42956 45.1139 3.1915 45.1007Z" fill="#887EF9"/>
<path d="M6.4344 74.0953C6.43326 75.8565 5.03156 77.2795 3.26886 77.3098C1.45887 77.3404 -0.00390788 75.8966 0.000252995 74.0836C0.00403561 72.3466 1.4361 70.8748 3.16173 70.8343C4.90665 70.7931 6.43591 72.3171 6.4344 74.0953Z" fill="#887EF9"/>
<path d="M48.3202 122.404C46.5495 122.408 45.1311 121.022 45.0959 119.253C45.0596 117.444 46.5026 115.97 48.3111 115.97C50.0893 115.969 51.6119 117.499 51.5699 119.244C51.5291 120.97 50.0575 122.401 48.3202 122.404Z" fill="#887EF9"/>
<path d="M77.3027 119.22C77.2853 121.032 75.814 122.446 73.99 122.404C72.2659 122.364 70.8008 120.862 70.8239 119.158C70.8477 117.396 72.3873 115.929 74.1708 115.97C75.9221 116.01 77.3197 117.461 77.3027 119.22Z" fill="#887EF9"/>
</g>
</svg>
