<svg width="193" height="175" viewBox="0 0 193 175" fill="none" xmlns="http://www.w3.org/2000/svg">
<path d="M66.8695 166.754C78.7822 163.566 82.6947 150.563 80.9834 139.824C79.3347 129.453 72.2765 120.385 69.6962 110.352C67.6725 102.478 69.0331 94.9498 71.1366 87.2571C53.0722 102.904 31.379 134.53 40.8744 154.329C45.8897 164.784 55.3474 169.836 66.8695 166.754Z" fill="#887EF9"/>
<path d="M24.2977 104.522C33.158 106.36 40.4732 99.4244 45.706 93.523C51.5751 86.9017 59.5469 79.9692 67.9986 77.1425C56.5712 74.4353 43.593 73.0407 31.958 75.7765C25.0765 77.4004 16.8745 81.702 14.7461 89.4035C12.7832 96.5137 17.5484 103.118 24.2977 104.522Z" fill="#12CCE5"/>
<path d="M97.1235 64.6902C110.198 49.2676 127.888 25.5785 151.422 33.6674C162.583 37.5029 168.504 49.7923 162.905 60.6078C156.876 72.2632 144.061 73.8801 132.823 68.5301C120.076 62.4579 113.525 60.4518 97.1235 64.6902Z" fill="#FFF09D"/>
<path d="M86.2531 63.4362C88.576 56.9894 93.0063 52.4179 98.2643 48.2271C103.347 44.166 109.957 39.2812 107.598 31.8748C105.274 24.5905 97.5951 20.596 90.4882 22.9546C83.3252 25.3289 81.3724 32.8848 81.4623 39.5659C81.5783 47.6391 84.1716 55.6958 86.2531 63.4362Z" fill="#FFC53E"/>
<path d="M47.5174 61.7137C51.2963 64.1034 56.4006 63.504 60.6548 64.0694C66.2425 64.8199 69.7034 65.103 74.4547 68.0063C72.7358 58.7923 71.865 46.7533 61.3673 43.133C56.8887 41.5894 50.4592 42.1691 46.7886 45.3609C42.1945 49.3693 42.1632 58.3307 47.5174 61.7137Z" fill="#FF6C44"/>
</svg>
