<svg width="178" height="178" viewBox="0 0 178 178" fill="none" xmlns="http://www.w3.org/2000/svg">
<g opacity="0.4">
<path d="M71.4473 0.000535951C74.2381 1.7529 75.1851 3.40263 74.6698 5.61381C74.1665 7.77394 72.4191 9.26672 70.3012 9.3452C68.2349 9.42203 66.2609 8.08073 65.6473 6.18238C64.9602 4.05847 65.7775 1.88955 67.723 0.65582C68.0479 0.450015 68.3569 0.218977 68.673 0C69.5972 0.000548814 70.5226 0.000535951 71.4473 0.000535951Z" fill="#887EF9"/>
<path d="M108.911 0.000976562C110.374 0.997074 111.859 1.93994 112.091 3.96397C112.368 6.37107 111.118 8.42254 108.808 9.1596C106.691 9.83519 104.326 8.79737 103.306 6.74535C102.258 4.63626 102.897 2.17265 104.858 0.809392C105.271 0.521814 105.709 0.269347 106.136 0.000976562C107.061 0.000976562 107.986 0.000976562 108.911 0.000976562Z" fill="#887EF9"/>
<path d="M177.594 71.4585C175.841 74.2503 174.194 75.196 171.981 74.6812C169.82 74.1785 168.328 72.431 168.249 70.3126C168.172 68.2463 169.514 66.2722 171.412 65.6581C173.537 64.971 175.704 65.7876 176.938 67.7337C177.144 68.0586 177.374 68.3676 177.594 68.6837C177.594 69.6085 177.594 70.5338 177.594 71.4585Z" fill="#887EF9"/>
<path d="M177.594 108.923C176.605 110.394 175.656 111.87 173.632 112.103C171.225 112.381 169.174 111.133 168.436 108.823C167.757 106.699 168.79 104.344 170.849 103.325C172.965 102.276 175.424 102.912 176.785 104.87C177.073 105.283 177.325 105.721 177.594 106.148C177.594 107.072 177.594 107.998 177.594 108.923Z" fill="#887EF9"/>
<path d="M56.0998 70.1525C56.0548 62.4181 62.2252 56.1698 70.0134 56.1204C77.7775 56.071 84.0605 62.0943 84.1274 70.1547C84.1911 77.8359 77.7242 84.1593 70.0962 84.1725C62.4474 84.1857 56.1448 77.8727 56.0998 70.1525Z" fill="#887EF9"/>
<path d="M107.452 56.1125C115.19 56.0768 121.433 62.2515 121.475 70.0353C121.517 77.8159 115.475 84.0839 107.431 84.1382C99.7386 84.1903 93.4196 77.7154 93.4223 70.0984C93.4256 62.4381 99.7348 56.1476 107.452 56.1125Z" fill="#887EF9"/>
<path d="M70.1738 121.495C62.4564 121.573 56.2133 115.414 56.1024 107.614C55.9926 99.8971 62.4137 93.397 70.1092 93.4337C77.7564 93.47 84.0903 99.7945 84.1611 107.465C84.2313 115.077 77.911 121.417 70.1738 121.495Z" fill="#887EF9"/>
<path d="M121.483 107.466C121.517 115.204 115.341 121.447 107.558 121.487C99.7747 121.527 93.5095 115.483 93.4568 107.441C93.4063 99.7477 99.884 93.428 107.498 93.4341C115.16 93.4401 121.449 99.7493 121.483 107.466Z" fill="#887EF9"/>
<path d="M70.0782 42.0282C64.8996 42.0211 60.6869 37.7985 60.7254 32.6539C60.7632 27.6284 64.9936 23.3855 70.0295 23.323C75.0989 23.2598 79.4091 27.5587 79.4212 32.6901C79.4333 37.8923 75.2876 42.0359 70.0782 42.0282Z" fill="#887EF9"/>
<path d="M107.507 42.0276C102.297 42.0364 98.1501 37.8934 98.1616 32.6928C98.1732 27.5608 102.481 23.262 107.551 23.3229C112.585 23.3833 116.817 27.6256 116.858 32.6511C116.898 37.7951 112.685 42.0188 107.507 42.0276Z" fill="#887EF9"/>
<path d="M42.0163 70.0471C42.0465 75.1812 37.9699 79.3758 32.895 79.4318C27.6434 79.4894 23.293 75.2465 23.3111 70.0844C23.3287 65.0726 27.5725 60.8023 32.5991 60.7381C37.7371 60.6722 41.9856 64.8717 42.0163 70.0471Z" fill="#887EF9"/>
<path d="M135.566 70.165C135.534 64.9891 139.723 60.7429 144.866 60.7363C149.947 60.7297 154.312 65.095 154.272 70.1408C154.231 75.1932 150.026 79.3977 144.978 79.4322C139.757 79.4679 135.597 75.3716 135.566 70.165Z" fill="#887EF9"/>
<path d="M42.0158 107.588C41.9702 112.762 37.7063 116.951 32.5699 116.868C27.545 116.787 23.2985 112.488 23.3105 107.493C23.3232 102.319 27.6679 98.1076 32.9234 98.1756C37.9911 98.2404 42.0613 102.454 42.0158 107.588Z" fill="#887EF9"/>
<path d="M135.567 107.571C135.53 102.437 139.605 98.2342 144.676 98.175C149.929 98.1135 154.277 102.344 154.271 107.511C154.266 112.515 150.021 116.797 144.995 116.869C139.858 116.941 135.603 112.745 135.567 107.571Z" fill="#887EF9"/>
<path d="M70.1483 135.578C75.356 135.607 79.4546 139.766 79.42 144.986C79.3865 150.036 75.1881 154.239 70.133 154.284C65.0894 154.329 60.7208 149.963 60.7241 144.882C60.728 139.739 64.9724 135.549 70.1483 135.578Z" fill="#887EF9"/>
<path d="M98.1611 144.9C98.1534 139.703 102.311 135.562 107.52 135.578C112.697 135.594 116.905 139.826 116.857 144.967C116.81 149.992 112.564 154.236 107.538 154.283C102.462 154.33 98.1688 150.033 98.1611 144.9Z" fill="#887EF9"/>
<path d="M42.0218 32.7759C41.9933 37.9699 37.8009 42.0854 32.6003 42.0267C27.5139 41.9691 23.3384 37.797 23.3083 32.7419C23.2781 27.7071 27.682 23.3001 32.7212 23.3204C37.8372 23.3412 42.0509 27.6247 42.0218 32.7759Z" fill="#887EF9"/>
<path d="M144.904 42.0298C139.702 42.0468 135.551 37.8989 135.563 32.6978C135.576 27.5417 139.856 23.2615 144.939 23.3229C149.966 23.3838 154.201 27.6158 154.27 32.6467C154.341 37.7249 150.06 42.0133 144.904 42.0298Z" fill="#887EF9"/>
<path d="M32.7015 135.575C37.9026 135.571 42.0429 139.729 42.0182 144.931C41.9936 150.087 37.6914 154.368 32.6203 154.283C27.5844 154.198 23.3564 149.952 23.3114 144.936C23.2653 139.847 27.546 135.58 32.7015 135.575Z" fill="#887EF9"/>
<path d="M135.563 144.893C135.559 139.692 139.717 135.552 144.919 135.577C150.075 135.601 154.356 139.904 154.27 144.975C154.185 150.011 149.94 154.239 144.924 154.284C139.835 154.33 135.567 150.049 135.563 144.893Z" fill="#887EF9"/>
<path d="M4.6305 65.4357C7.18194 65.417 9.28211 67.4504 9.33535 69.9914C9.38968 72.5757 7.25163 74.8105 4.6991 74.8374C2.16303 74.8643 -0.0207068 72.6438 0.000148159 70.0594C0.0199055 67.5052 2.07412 65.4549 4.6305 65.4357Z" fill="#887EF9"/>
<path d="M9.3357 107.503C9.33405 110.059 7.30034 112.123 4.74287 112.167C2.11679 112.212 -0.00553583 110.117 0.000501128 107.486C0.00598927 104.966 2.08375 102.831 4.58744 102.772C7.11912 102.712 9.3379 104.924 9.3357 107.503Z" fill="#887EF9"/>
<path d="M70.1068 177.595C67.5378 177.6 65.4797 175.589 65.4287 173.023C65.376 170.398 67.4697 168.259 70.0936 168.259C72.6736 168.258 74.8827 170.477 74.8218 173.01C74.7625 175.514 72.6275 177.589 70.1068 177.595Z" fill="#887EF9"/>
<path d="M112.157 172.975C112.132 175.603 109.997 177.655 107.351 177.594C104.849 177.536 102.724 175.357 102.757 172.885C102.792 170.328 105.025 168.199 107.613 168.259C110.154 168.317 112.182 170.422 112.157 172.975Z" fill="#887EF9"/>
</g>
</svg>
