<svg width="113" height="104" viewBox="0 0 113 104" fill="none" xmlns="http://www.w3.org/2000/svg">
<g opacity="0.6" clip-path="url(#clip0_2_1242)">
<path d="M20.5119 7.22659C17.3368 14.6244 15.7679 22.8477 16.2215 31.433C17.7997 61.3042 43.2697 84.2421 73.1109 82.6655C87.1998 81.9211 99.7442 75.8451 108.896 66.4945" stroke="#12CCE5" stroke-miterlimit="10"/>
<path d="M3.4512 41.7153L66.1922 98.217" stroke="#12CCE5" stroke-miterlimit="10"/>
<path d="M19.5467 6.79806L20.3195 4.99463L22.1212 5.76846L21.3484 7.57189L19.5467 6.79806Z" stroke="#12CCE5" stroke-miterlimit="10"/>
<path d="M33.3458 70.0883L34.6569 68.6294L36.1144 69.942L34.8033 71.4009L33.3458 70.0883Z" fill="#FDFAE0" stroke="#12CCE5" stroke-miterlimit="10"/>
<path d="M108.058 66.0638L109.441 64.6738L110.83 66.059L109.447 67.449L108.058 66.0638Z" stroke="#12CCE5" stroke-miterlimit="10"/>
<path d="M68.078 98.7378C68.1141 99.4206 67.5903 100.003 66.9081 100.039C66.2259 100.076 65.6437 99.5512 65.6076 98.8683C65.5715 98.1854 66.0953 97.6026 66.7775 97.5666C67.4596 97.5305 68.0419 98.0549 68.078 98.7378Z" fill="#12CCE5"/>
<path d="M4.36162 41.3579C4.39769 42.0408 3.87393 42.6236 3.19175 42.6596C2.50957 42.6957 1.9273 42.1713 1.89122 41.4884C1.85515 40.8055 2.37891 40.2227 3.06109 40.1867C3.74327 40.1507 4.32554 40.675 4.36162 41.3579Z" fill="#12CCE5"/>
<path d="M31.1665 71.9486L25.7598 73.4731L25.7598 73.4731L25.7539 73.4747L19.776 75.0817L19.7759 75.0817C18.7714 75.3515 17.9628 76.0979 17.6122 77.079L17.6122 77.079L14.1965 86.637L20.1524 92.0007L29.2867 87.5937L29.2867 87.5937C30.2239 87.1416 30.8799 86.2582 31.0428 85.2288L32.0093 79.1089L32.0092 79.1089L32.0103 79.1029L32.9542 73.5603L27.0685 80.1095C27.0092 80.1754 26.9853 80.2844 27.0366 80.3996C27.0366 80.3997 27.0366 80.3997 27.0367 80.3998L26.58 80.6035M31.1665 71.9486L24.8439 79.0386M31.1665 71.9486L25.2775 78.5014C25.2182 78.5673 25.1147 78.6012 24.9995 78.5635M31.1665 71.9486L24.9995 78.5635M26.58 80.6035C26.9123 81.3468 26.5708 82.0417 25.9913 82.6865C25.1537 83.6185 23.6797 83.6359 22.8215 82.6738C22.0678 81.8281 22.1913 80.4845 22.9875 79.6794C23.5306 79.1306 24.1365 78.8061 24.8439 79.0386M26.58 80.6035C26.4561 80.3256 26.4929 80.0019 26.6966 79.7752L33.1114 72.6374L26.58 80.6035ZM24.8439 79.0386L24.9995 78.5635M24.8439 79.0386L25.0001 78.5636C24.9999 78.5636 24.9997 78.5635 24.9995 78.5635M17.1414 76.9108C17.547 75.7754 18.4829 74.9112 19.6462 74.5988L17.1414 76.9108ZM17.1414 76.9108L13.6129 86.7843L20.0673 92.5969L29.5039 88.044M17.1414 76.9108L29.5039 88.044M29.5039 88.044C30.589 87.5206 31.3482 86.4979 31.5367 85.307L29.5039 88.044Z" stroke="#12CCE5"/>
<path d="M10.9067 89.4083L11.5454 88.6976C11.8523 88.3561 12.0597 87.9373 12.1452 87.4864L12.1498 87.4628C12.0595 87.3815 12.0405 87.2563 12.1066 87.1828C12.1727 87.1093 12.2998 87.115 12.3893 87.1963L19.5729 93.6656C19.6632 93.7469 19.6829 93.8721 19.6161 93.9456C19.55 94.0191 19.4229 94.0134 19.3327 93.9321C18.8686 94.0595 18.4509 94.3172 18.1295 94.6748L17.5149 95.3587" fill="#12CCE5"/>
</g>
<g opacity="0.6">
<path d="M57.169 36.337L56.029 32.994C55.278 30.791 53.547 29.06 51.344 28.309L48 27.169L51.406 25.927C53.506 25.161 55.161 23.506 55.927 21.406L57.169 18L58.039 20.735C58.881 23.382 60.956 25.456 63.603 26.299L66.338 27.169L63.526 28.277C61.125 29.223 59.435 29.988 58.277 33.526L57.169 36.337Z" fill="#12CCE5"/>
<path d="M72.8749 51.932C70.3039 51.932 68.2119 49.84 68.2119 47.269C68.2119 44.698 70.3039 42.606 72.8749 42.606C75.4459 42.606 77.5379 44.698 77.5379 47.269C77.5379 49.84 75.4459 51.932 72.8749 51.932ZM72.8749 44.006C71.0759 44.006 69.6119 45.47 69.6119 47.269C69.6119 49.068 71.0759 50.532 72.8749 50.532C74.6739 50.532 76.1379 49.068 76.1379 47.269C76.1379 45.47 74.6739 44.006 72.8749 44.006Z" fill="#887EF9"/>
</g>
<defs>
<clipPath id="clip0_2_1242">
<rect width="97.7448" height="107.888" fill="white" transform="matrix(0.0527603 0.998607 0.998607 -0.0527603 0 5.69238)"/>
</clipPath>
</defs>
</svg>
