<svg width="148" height="148" viewBox="0 0 148 148" fill="none" xmlns="http://www.w3.org/2000/svg">
<g opacity="0.2">
<path d="M59.3785 0.000445421C61.6978 1.45681 62.4849 2.82787 62.0566 4.66554C61.6383 6.46079 60.1861 7.70142 58.426 7.76664C56.7087 7.8305 55.0681 6.71577 54.5581 5.13808C53.9871 3.37293 54.6663 1.57038 56.2833 0.545042C56.5533 0.374 56.81 0.181988 57.0728 0C57.8409 0.000456111 58.6099 0.000445421 59.3785 0.000445421Z" fill="#12CCE5"/>
<path d="M90.5141 0.000488281C91.7301 0.828329 92.9638 1.61193 93.1572 3.29407C93.3871 5.29457 92.3486 6.99951 90.4288 7.61207C88.6691 8.17354 86.7033 7.31103 85.8559 5.60563C84.9847 3.8528 85.5161 1.80533 87.1454 0.672349C87.4888 0.433348 87.8533 0.223526 88.2081 0.000488281C88.9767 0.000488281 89.7451 0.000488281 90.5141 0.000488281Z" fill="#12CCE5"/>
<path d="M147.596 59.3879C146.138 61.7081 144.77 62.494 142.93 62.0662C141.135 61.6484 139.894 60.1961 139.829 58.4355C139.765 56.7183 140.88 55.0776 142.458 54.5673C144.224 53.9962 146.025 54.6749 147.05 56.2923C147.221 56.5623 147.413 56.8191 147.595 57.0818C147.596 57.8503 147.596 58.6193 147.596 59.3879Z" fill="#12CCE5"/>
<path d="M147.596 90.5237C146.774 91.7465 145.985 92.973 144.303 93.1669C142.302 93.3977 140.598 92.3605 139.984 90.4407C139.42 88.6756 140.279 86.7189 141.99 85.8714C143.749 85.0002 145.792 85.5284 146.923 87.1554C147.162 87.4988 147.372 87.8632 147.595 88.2181C147.596 88.9862 147.596 89.7552 147.596 90.5237Z" fill="#12CCE5"/>
<path d="M46.6237 58.3023C46.5863 51.8743 51.7144 46.6815 58.187 46.6405C64.6396 46.5994 69.8613 51.6052 69.9169 58.3041C69.9699 64.6879 64.5953 69.9432 58.2558 69.9541C51.899 69.9651 46.6611 64.7184 46.6237 58.3023Z" fill="#12CCE5"/>
<path d="M89.3013 46.6339C95.7325 46.6042 100.921 51.7359 100.956 58.205C100.99 64.6712 95.9692 69.8805 89.284 69.9256C82.8911 69.969 77.6395 64.5878 77.6418 58.2574C77.6445 51.891 82.888 46.6631 89.3013 46.6339Z" fill="#12CCE5"/>
<path d="M58.3202 100.972C51.9064 101.037 46.7178 95.9187 46.6257 89.436C46.5344 83.0226 51.8709 77.6204 58.2665 77.651C64.622 77.6811 69.8859 82.9373 69.9448 89.3124C70.0031 95.6386 64.7504 100.907 58.3202 100.972Z" fill="#12CCE5"/>
<path d="M100.962 89.3128C100.99 95.7439 95.8575 100.933 89.3894 100.966C82.9208 100.999 77.714 95.9756 77.6702 89.2922C77.6282 82.8985 83.0117 77.6464 89.3393 77.6514C95.7075 77.6564 100.934 82.8998 100.962 89.3128Z" fill="#12CCE5"/>
<path d="M58.2408 34.929C53.9369 34.9231 50.4358 31.4138 50.4677 27.1382C50.4992 22.9616 54.015 19.4354 58.2002 19.3834C62.4133 19.3309 65.9955 22.9037 66.0056 27.1683C66.0156 31.4918 62.5702 34.9354 58.2408 34.929Z" fill="#12CCE5"/>
<path d="M89.3469 34.9285C85.0175 34.9358 81.5708 31.4926 81.5803 27.1705C81.5899 22.9054 85.1699 19.3327 89.3834 19.3833C93.5673 19.4335 97.0849 22.9593 97.1182 27.1359C97.1515 31.411 93.6508 34.9212 89.3469 34.9285Z" fill="#12CCE5"/>
<path d="M34.9192 58.2152C34.9443 62.4821 31.5562 65.9682 27.3386 66.0147C22.9741 66.0626 19.3585 62.5364 19.3736 58.2462C19.3882 54.081 22.9152 50.532 27.0927 50.4787C31.3628 50.4239 34.8937 53.9141 34.9192 58.2152Z" fill="#12CCE5"/>
<path d="M112.667 58.313C112.64 54.0115 116.121 50.4825 120.396 50.4771C124.618 50.4716 128.246 54.0995 128.213 58.293C128.179 62.4919 124.684 65.9862 120.489 66.0149C116.15 66.0446 112.693 62.6402 112.667 58.313Z" fill="#12CCE5"/>
<path d="M34.9187 89.4152C34.8808 93.715 31.3371 97.1965 27.0684 97.1276C22.8922 97.0601 19.363 93.4869 19.3731 89.3363C19.3836 85.0361 22.9944 81.5359 27.3621 81.5925C31.5739 81.6463 34.9565 85.1483 34.9187 89.4152Z" fill="#12CCE5"/>
<path d="M112.667 89.4C112.637 85.1335 116.023 81.6406 120.238 81.5914C124.603 81.5403 128.217 85.056 128.212 89.3503C128.208 93.5095 124.68 97.0681 120.503 97.1274C116.233 97.1876 112.698 93.7006 112.667 89.4Z" fill="#12CCE5"/>
<path d="M58.2988 112.676C62.6269 112.701 66.0331 116.157 66.0044 120.496C65.9766 124.692 62.4874 128.186 58.2861 128.222C54.0945 128.26 50.4638 124.632 50.4666 120.409C50.4697 116.135 53.9972 112.652 58.2988 112.676Z" fill="#12CCE5"/>
<path d="M81.5801 120.424C81.5737 116.104 85.0293 112.663 89.3578 112.676C93.6607 112.69 97.1581 116.207 97.1179 120.48C97.0787 124.656 93.5498 128.183 89.3732 128.222C85.1546 128.261 81.5865 124.69 81.5801 120.424Z" fill="#12CCE5"/>
<path d="M34.9235 27.2397C34.8998 31.5564 31.4156 34.9767 27.0935 34.9279C22.8662 34.8801 19.3961 31.4127 19.371 27.2115C19.3459 23.0271 23.0059 19.3645 27.1939 19.3814C31.4458 19.3987 34.9477 22.9587 34.9235 27.2397Z" fill="#12CCE5"/>
<path d="M120.427 34.9303C116.104 34.9445 112.654 31.4972 112.664 27.1746C112.675 22.8895 116.232 19.3323 120.457 19.3834C124.634 19.434 128.154 22.9511 128.212 27.1322C128.27 31.3526 124.712 34.9167 120.427 34.9303Z" fill="#12CCE5"/>
<path d="M27.1776 112.674C31.5001 112.67 34.9411 116.126 34.9206 120.45C34.9 124.735 31.3246 128.292 27.1101 128.221C22.9248 128.151 19.411 124.623 19.3736 120.454C19.3353 116.224 22.8929 112.677 27.1776 112.674Z" fill="#12CCE5"/>
<path d="M112.664 120.419C112.661 116.096 116.116 112.655 120.44 112.676C124.725 112.696 128.283 116.272 128.212 120.486C128.141 124.672 124.613 128.186 120.444 128.223C116.215 128.261 112.668 124.704 112.664 120.419Z" fill="#12CCE5"/>
<path d="M3.84833 54.3829C5.96879 54.3674 7.71422 56.0573 7.75846 58.1691C7.80361 60.3169 6.02672 62.1742 3.90535 62.1965C1.79766 62.2189 -0.0172091 60.3735 0.000123132 58.2256C0.0165431 56.1029 1.72377 54.3989 3.84833 54.3829Z" fill="#12CCE5"/>
<path d="M7.75859 89.3447C7.75722 91.4684 6.06703 93.1843 3.94156 93.2208C1.75907 93.2577 -0.0047624 91.5167 0.000254818 89.3306C0.00481592 87.2361 1.73161 85.4614 3.81239 85.4126C5.91642 85.3629 7.76041 87.2005 7.75859 89.3447Z" fill="#12CCE5"/>
<path d="M58.2649 147.596C56.1298 147.6 54.4194 145.929 54.377 143.796C54.3332 141.614 56.0733 139.837 58.254 139.837C60.3981 139.836 62.2341 141.681 62.1835 143.785C62.1342 145.866 60.3598 147.591 58.2649 147.596Z" fill="#12CCE5"/>
<path d="M93.212 143.756C93.191 145.941 91.4168 147.646 89.2174 147.595C87.1385 147.547 85.3719 145.736 85.3997 143.682C85.4285 141.556 87.2849 139.788 89.4355 139.837C91.5473 139.885 93.2325 141.635 93.212 143.756Z" fill="#12CCE5"/>
</g>
</svg>
