<svg width="36" height="30" viewBox="0 0 36 30" fill="none" xmlns="http://www.w3.org/2000/svg">
<g opacity="0.6">
<path d="M9.16901 18.336L8.02901 14.993C7.27801 12.79 5.54701 11.059 3.34401 10.308L0 9.168L3.40601 7.926C5.50601 7.16 7.161 5.505 7.927 3.405L9.16901 0L10.039 2.735C10.881 5.382 12.955 7.456 15.603 8.299L18.338 9.169L15.526 10.277C13.125 11.223 11.435 11.988 10.277 15.526L9.16901 18.336Z" fill="#12CCE5"/>
<path d="M30.3019 29.9168C27.7309 29.9168 25.6389 27.8248 25.6389 25.2538C25.6389 22.6828 27.7309 20.5908 30.3019 20.5908C32.8729 20.5908 34.9649 22.6828 34.9649 25.2538C34.9649 27.8248 32.8729 29.9168 30.3019 29.9168ZM30.3019 21.9908C28.5029 21.9908 27.0389 23.4548 27.0389 25.2538C27.0389 27.0528 28.5029 28.5168 30.3019 28.5168C32.1009 28.5168 33.5649 27.0528 33.5649 25.2538C33.5649 23.4548 32.1009 21.9908 30.3019 21.9908Z" fill="#12CCE5"/>
<path d="M33.2431 4.66095C32.1081 4.66095 31.1851 3.73795 31.1851 2.60295C31.1851 1.46795 32.1081 0.543945 33.2431 0.543945C34.3781 0.543945 35.3021 1.46795 35.3021 2.60295C35.3011 3.73695 34.3781 4.66095 33.2431 4.66095ZM33.2431 1.16095C32.4491 1.16095 31.8021 1.80695 31.8021 2.60195C31.8021 3.39595 32.4481 4.04295 33.2431 4.04295C34.0371 4.04295 34.6841 3.39695 34.6841 2.60195C34.6831 1.80795 34.0371 1.16095 33.2431 1.16095Z" fill="#887EF9"/>
</g>
</svg>
