<svg width="152" height="224" viewBox="0 0 152 224" fill="none" xmlns="http://www.w3.org/2000/svg">
<g opacity="0.6">
<path d="M29.815 23.7502C125.372 18.6006 116.289 122.846 116.289 122.846" stroke="#12CCE5" stroke-miterlimit="10"/>
<path d="M110.158 119.859L119.275 116.715L122.419 125.832L113.302 128.976L110.158 119.859Z" fill="#12CCE5"/>
<path d="M23.1901 21.0856L32.307 17.941L35.4516 27.0579L26.3346 30.2025L23.1901 21.0856Z" fill="#12CCE5"/>
<path d="M67.4196 194.596L89.2054 205.208L85.017 213.807L63.2311 203.195L67.4196 194.596Z" fill="#12CCE5"/>
<path d="M111.959 134.8L97.5913 164.297L97.5911 164.298C97.1689 165.162 96.127 165.522 95.2619 165.101L95.2614 165.101C94.3969 164.678 94.037 163.637 94.4584 162.771L108.826 133.274L107.863 132.805L70.0779 159.799L69.4254 191.106L90.716 201.476L114.963 181.662L112.921 135.269L111.959 134.8Z" stroke="#12CCE5"/>
</g>
</svg>
