<svg width="21" height="22" viewBox="0 0 21 22" fill="none" xmlns="http://www.w3.org/2000/svg">
<path d="M9.35229 21.2837C9.18509 21.1749 9.12933 21.0213 9.14249 20.8242C9.15582 20.6247 9.14543 20.4236 9.14543 20.1995C7.06018 19.8842 5.25373 19.0073 3.76392 17.5163C2.27799 16.0291 1.39968 14.23 1.08494 12.1381C0.840164 12.1381 0.605885 12.1404 0.37166 12.1375C0.12272 12.1344 0.00265791 12.0163 0.0017139 11.7677C-0.00061835 11.1303 -0.000505989 10.493 0.00165968 9.85566C0.00254815 9.59655 0.121773 9.48255 0.386817 9.48033C0.614711 9.47844 0.842667 9.47994 1.06973 9.47994C1.69783 5.97017 3.62726 3.48932 6.89881 2.0064C6.81668 2.00168 6.76697 1.9964 6.71728 1.9964C6.0176 1.99585 5.31786 1.99901 4.61824 1.99329C4.49275 1.99223 4.42462 2.02561 4.36165 2.14244C4.14053 2.55264 3.6839 2.74767 3.25405 2.635C2.78693 2.51255 2.49168 2.12844 2.4949 1.64745C2.49796 1.19293 2.79504 0.81684 3.24644 0.696062C3.68646 0.578284 4.13858 0.775575 4.3692 1.19666C4.42151 1.29211 4.47248 1.33643 4.5891 1.33604C5.97457 1.33115 7.3601 1.33282 8.74562 1.33238C8.77289 1.33238 8.80009 1.32793 8.83857 1.32454C8.94458 0.884357 9.17714 0.527416 9.55613 0.274477C9.87226 0.0635195 10.2223 -0.0146153 10.601 0.00221027C11.298 0.0331959 11.8747 0.529695 12.1142 1.33293C12.1756 1.33293 12.2432 1.33293 12.3109 1.33293C13.648 1.33293 14.985 1.33115 16.322 1.3357C16.4539 1.33614 16.5272 1.3045 16.5937 1.17933C16.8093 0.773242 17.2735 0.580441 17.7053 0.695832C18.1647 0.818664 18.4578 1.19777 18.4569 1.66789C18.4561 2.13556 18.1591 2.51404 17.6982 2.63488C17.2677 2.74771 16.8081 2.55141 16.5902 2.14266C16.528 2.0261 16.4612 1.99202 16.3351 1.99302C15.5872 1.9989 14.8392 1.9959 14.0278 1.9959C17.3191 3.48299 19.2501 5.96856 19.8799 9.47983C20.1059 9.47983 20.3338 9.47833 20.5617 9.48022C20.8263 9.48239 20.9465 9.59694 20.9475 9.85526C20.9497 10.4926 20.9498 11.1299 20.9474 11.7673C20.9465 12.0155 20.8257 12.1343 20.5774 12.1374C20.3492 12.1403 20.121 12.138 19.8654 12.138C19.551 14.2203 18.6749 16.0269 17.1848 17.5166C15.6982 19.0027 13.9002 19.883 11.8037 20.1985C11.8037 20.4129 11.7933 20.6192 11.8067 20.824C11.8196 21.0211 11.7634 21.1744 11.5969 21.2836C10.8486 21.2837 10.1005 21.2837 9.35229 21.2837ZM11.8036 19.5176C13.886 19.1776 15.6237 18.2572 17.0209 16.7132C18.1963 15.4144 18.906 13.8917 19.1791 12.1379C18.9763 12.1379 18.804 12.1419 18.6319 12.1369C18.4199 12.1309 18.2932 12.0108 18.2918 11.8011C18.2876 11.143 18.2879 10.4849 18.2915 9.82683C18.2927 9.60421 18.4172 9.48594 18.6424 9.48078C18.8141 9.47683 18.986 9.47999 19.1818 9.47999C18.8656 7.5606 18.0453 5.92681 16.6862 4.57049C15.4023 3.28925 13.8612 2.49261 12.0788 2.14782C11.8096 2.83939 11.3381 3.26731 10.6103 3.31784C9.75026 3.37754 9.18703 2.93541 8.86362 2.14583C6.68569 2.58341 4.90384 3.65418 3.53464 5.39177C2.5903 6.59016 2.00702 7.94942 1.77651 9.45334C1.81427 9.47038 1.82055 9.47555 1.82682 9.47567C1.97914 9.47739 2.13157 9.47754 2.28389 9.4801C2.53511 9.48432 2.65721 9.59943 2.65821 9.84571C2.66088 10.4899 2.66105 11.1342 2.65805 11.7784C2.65694 12.0135 2.53393 12.1327 2.29799 12.1373C2.12818 12.1406 1.95826 12.138 1.76468 12.138C2.11763 14.2775 3.07547 16.0481 4.68267 17.4547C5.95974 18.5723 7.44483 19.2517 9.1456 19.5125C9.1456 19.3135 9.14282 19.148 9.14626 18.9826C9.15109 18.7471 9.26998 18.6264 9.5072 18.6254C10.1514 18.6226 10.7957 18.6227 11.4399 18.6253C11.6774 18.6263 11.7978 18.7469 11.8029 18.981C11.8065 19.1465 11.8036 19.312 11.8036 19.5176ZM9.47745 1.66805C9.48455 2.20997 9.93652 2.66031 10.4733 2.66031C11.0188 2.66031 11.4819 2.19059 11.4703 1.6489C11.4587 1.10859 11.0029 0.663966 10.4638 0.667132C9.92951 0.670297 9.47051 1.13613 9.47745 1.66805ZM1.98725 10.1584C1.53712 10.1584 1.10548 10.1584 0.681236 10.1584C0.681236 10.6056 0.681236 11.0373 0.681236 11.4634C1.12531 11.4634 1.552 11.4634 1.98725 11.4634C1.98725 11.025 1.98725 10.5984 1.98725 10.1584ZM18.9633 10.1514C18.9633 10.6013 18.9633 11.0279 18.9633 11.4631C19.4051 11.4631 19.8367 11.4631 20.2713 11.4631C20.2713 11.0193 20.2713 10.5878 20.2713 10.1514C19.8308 10.1514 19.4041 10.1514 18.9633 10.1514ZM11.1263 20.6097C11.1263 20.1629 11.1263 19.7313 11.1263 19.3037C10.6801 19.3037 10.2485 19.3037 9.81918 19.3037C9.81918 19.7466 9.81918 20.1733 9.81918 20.6097C10.2564 20.6097 10.683 20.6097 11.1263 20.6097ZM3.48883 1.33254C3.31819 1.33398 3.15837 1.49618 3.15992 1.66644C3.16148 1.83797 3.32302 1.99729 3.49338 1.99535C3.66514 1.9934 3.82356 1.8327 3.82233 1.66167C3.82111 1.49052 3.65964 1.33115 3.48883 1.33254ZM17.4636 1.33331C17.2921 1.33004 17.1309 1.48563 17.1268 1.65855C17.1226 1.82925 17.2792 1.99162 17.4518 1.99546C17.6224 1.99929 17.7849 1.84247 17.7887 1.67028C17.7924 1.49947 17.6353 1.33659 17.4636 1.33331Z" fill="#887EF9"/>
<path d="M10.4553 16.6276C9.49285 16.6276 8.53046 16.6281 7.56807 16.6273C7.21079 16.627 7.08002 16.4457 7.19297 16.1031C7.368 15.5722 7.55424 15.0448 7.71861 14.5107C7.75298 14.3989 7.74765 14.2493 7.70162 14.1426C7.32701 13.2738 6.94131 12.4097 6.55154 11.5475C6.47691 11.3825 6.47835 11.2381 6.54948 11.0726C7.51798 8.82023 8.4841 6.56677 9.44415 4.3107C9.54155 4.08186 9.67625 3.97658 9.93175 3.98897C10.291 4.00635 10.6524 4.00812 11.0114 3.98852C11.2789 3.97391 11.4111 4.09137 11.5104 4.32492C12.3368 6.27019 13.171 8.21201 14.0028 10.155C14.1333 10.4598 14.2554 10.7684 14.3959 11.0685C14.4767 11.2409 14.4665 11.3912 14.3893 11.5621C13.9991 12.4243 13.6145 13.289 13.2386 14.1574C13.1971 14.253 13.1917 14.3876 13.2229 14.4874C13.3898 15.021 13.5747 15.5489 13.7511 16.0794C13.8736 16.4476 13.7459 16.6272 13.3633 16.6274C12.3939 16.6279 11.4246 16.6276 10.4553 16.6276ZM10.1319 4.66831C10.1149 4.65898 10.098 4.64961 10.0811 4.64022C10.0429 4.69847 9.99495 4.75256 9.96785 4.81564C9.05933 6.9296 8.15163 9.04396 7.25044 11.161C7.21557 11.243 7.21457 11.3659 7.24983 11.4472C7.59061 12.2334 7.94489 13.0137 8.28879 13.7985C8.34188 13.9197 8.39846 13.9744 8.54384 13.9736C9.83224 13.9662 11.1207 13.9673 12.4091 13.9723C12.5384 13.9728 12.601 13.9362 12.6538 13.8145C12.9563 13.1172 13.2543 12.4172 13.5865 11.7341C13.7321 11.4348 13.7286 11.1914 13.5951 10.886C12.7149 8.87325 11.8561 6.8512 10.9886 4.83285C10.9592 4.76444 10.9119 4.70374 10.8729 4.63944C10.8541 4.64921 10.8352 4.65899 10.8163 4.66876C10.8163 6.27974 10.8163 7.89072 10.8163 9.50025C11.8388 9.77679 12.2317 10.6373 12.1227 11.3806C12.0014 12.2074 11.3062 12.8012 10.484 12.8033C9.65516 12.8053 8.96548 12.2302 8.82965 11.3994C8.71437 10.6943 9.0526 9.80466 10.1319 9.49914C10.1319 7.88961 10.1319 6.27896 10.1319 4.66831ZM12.9994 15.9585C12.8567 15.5277 12.7262 15.1213 12.583 14.7193C12.5679 14.6769 12.4786 14.6363 12.4235 14.636C11.1227 14.6314 9.82181 14.6308 8.52097 14.6379C8.46327 14.6383 8.3778 14.7067 8.35375 14.7638C8.27357 14.954 8.21416 15.1531 8.14941 15.3497C8.08411 15.5479 8.02197 15.7471 7.95439 15.9585C9.64666 15.9585 11.3061 15.9585 12.9994 15.9585ZM9.4773 11.1298C9.47325 11.6684 9.91832 12.126 10.4576 12.1377C10.9992 12.1495 11.4704 11.6861 11.4703 11.1419C11.4702 10.6041 11.0218 10.1528 10.4794 10.1447C9.94769 10.1367 9.4813 10.5952 9.4773 11.1298Z" fill="#887EF9"/>
</svg>
