<svg width="38" height="38" viewBox="0 0 38 38" fill="none" xmlns="http://www.w3.org/2000/svg">
<g clip-path="url(#clip0_2_783)">
<mask id="path-1-outside-1_2_783" maskUnits="userSpaceOnUse" x="-1.00003" y="-0.999878" width="40" height="40" fill="black">
<rect fill="white" x="-1.00003" y="-0.999878" width="40" height="40"/>
<path d="M38 35.9973C38 36.0962 38 36.1952 38 36.2942C37.9768 36.3497 37.9437 36.4032 37.9318 36.4611C37.7378 37.4036 37.029 37.9987 36.0761 37.9988C24.6777 38.0003 13.2793 38.0005 1.88093 37.9985C0.83424 37.9984 0.00625488 37.1782 3.31362e-06 36.1544C-0.00614902 35.1391 0.827592 34.3068 1.86853 34.2939C2.28927 34.2886 2.71011 34.2927 3.13085 34.2926C3.39282 34.2925 3.65479 34.2926 3.98503 34.2926C2.65513 32.7358 2.46511 31.0877 3.10396 29.2685C3.73288 27.4776 4.27171 25.6553 4.88496 23.8588C5.04998 23.3754 5.29329 22.9013 5.58553 22.482C6.33502 21.4068 7.44522 20.8974 8.69415 20.6383C8.83515 20.6091 9.01784 20.5825 9.09683 20.4859C9.51519 19.9746 10.0565 19.6904 10.7067 19.5674C10.7067 19.3833 10.7068 19.2233 10.7067 19.0632C10.7045 15.1801 10.6924 11.297 10.7029 7.41393C10.7125 3.86994 12.916 1.02915 16.2724 0.196647C16.5563 0.126247 16.8426 0.0653659 17.1277 0.00012207C18.3657 0.00012207 19.6036 0.00012207 20.8416 0.00012207C21.1151 0.0612014 21.3897 0.118017 21.6621 0.183955C25.0252 0.998214 27.25 3.85883 27.2671 7.41333C27.2782 9.72552 27.2672 12.0379 27.2645 14.3501C27.2644 14.4732 27.2596 14.5981 27.2385 14.7189C27.1921 14.9836 27.0224 15.1323 26.7594 15.1581C26.4811 15.1855 26.2708 15.068 26.1831 14.7982C26.1386 14.6612 26.1314 14.5081 26.1302 14.362C26.1249 13.6987 26.1279 13.0352 26.1279 12.4034C25.8542 12.4034 25.6286 12.381 25.4113 12.4136C25.3139 12.4282 25.1745 12.5391 25.1532 12.6296C24.8091 14.0951 24.0044 15.2621 22.875 16.2312C22.7826 16.3104 22.7044 16.4804 22.7183 16.5966C22.7943 17.2334 22.8699 17.8737 23.0133 18.4973C23.0676 18.7334 23.2589 19.0467 23.4624 19.1213C24.3031 19.4296 25.1667 19.6985 26.127 19.5444C26.127 19.4144 26.127 19.2938 26.127 19.1732C26.1272 18.555 26.1221 17.9366 26.1295 17.3184C26.1341 16.9255 26.3609 16.6631 26.6825 16.6519C27.006 16.6406 27.2398 16.8939 27.26 17.2882C27.2689 17.4609 27.2629 17.6343 27.263 17.8074C27.2632 18.3961 27.2631 18.9848 27.2631 19.4727C27.7215 19.7081 28.1749 19.8291 28.4626 20.116C28.8577 20.51 29.3142 20.6568 29.8157 20.7862C31.4509 21.2083 32.5495 22.2301 33.0838 23.825C33.7417 25.789 34.3778 27.7605 35.0022 29.7353C35.4967 31.2989 35.2117 32.7327 34.2038 34.0251C34.1474 34.0973 34.0993 34.1759 34.0184 34.2937C34.764 34.2937 35.4549 34.2862 36.1458 34.2957C36.9729 34.307 37.7072 34.8927 37.9101 35.6844C37.9372 35.7894 37.9699 35.893 38 35.9973ZM6.44467 34.2918C6.40498 34.0871 6.37472 33.9432 6.34941 33.7984C6.16762 32.7567 6.64978 32.1751 7.69866 32.1706C7.99308 32.1693 8.2876 32.1704 8.62687 32.1704C8.62687 31.9949 8.62687 31.8619 8.62687 31.7289C8.62687 30.6036 8.62607 29.4782 8.62766 28.3528C8.62796 28.1429 8.62339 27.9313 8.64731 27.7236C8.67956 27.4434 8.85609 27.2764 9.13384 27.2481C9.43094 27.2177 9.63754 27.3631 9.72238 27.6471C9.76019 27.7739 9.76068 27.9149 9.76098 28.0494C9.76366 29.2861 9.76257 30.5227 9.76257 31.7594C9.76257 31.8893 9.76257 32.0192 9.76257 32.1401C15.9424 32.1401 22.0612 32.1401 28.1917 32.1401C28.1981 32.0506 28.2063 31.9903 28.2063 31.9301C28.2068 28.5911 28.2097 25.2522 28.2041 21.9132C28.2029 21.1738 27.6904 20.7016 26.9088 20.7013C21.6243 20.6994 16.3397 20.6993 11.0552 20.7014C10.243 20.7017 9.76703 21.181 9.76386 21.9931C9.75979 23.0195 9.76604 24.0459 9.76088 25.0723C9.7587 25.5044 9.54535 25.7501 9.19427 25.7524C8.84121 25.7548 8.6357 25.5194 8.62975 25.0758C8.62151 24.4575 8.62717 23.8391 8.62697 23.2208C8.62687 22.7683 8.62697 22.3159 8.62697 21.8275C7.29558 22.1368 6.39516 22.8598 5.97938 24.1167C5.31324 26.1301 4.66357 28.1491 4.0152 30.1684C3.83033 30.7442 3.83261 31.3311 3.95427 31.9247C4.14876 32.8734 4.81688 33.5165 5.40413 34.2125C5.44432 34.2601 5.53304 34.2862 5.60022 34.2882C5.87062 34.2967 6.14152 34.2918 6.44467 34.2918ZM16.5947 6.54622C16.0742 7.39132 15.369 7.82879 14.441 7.91486C13.9209 7.96315 13.7988 8.10206 13.8008 8.61519C13.8043 9.51809 13.7895 10.4221 13.8314 11.3233C13.8554 11.8361 13.904 12.3688 14.0665 12.8504C14.7274 14.8089 16.2192 15.9212 18.0747 16.6292C18.6739 16.8578 19.2806 16.8529 19.8886 16.6411C21.1953 16.1859 22.272 15.4175 23.1396 14.3369C24.4099 12.7551 24.126 10.8969 24.1484 9.04711C23.2876 9.04711 22.461 9.05276 21.6345 9.04572C20.5648 9.0366 19.5582 8.7778 18.6159 8.26725C17.8349 7.84426 17.1808 7.27035 16.5947 6.54622ZM18.9814 36.8893C24.5881 36.8893 30.1948 36.8895 35.8014 36.8884C35.9494 36.8884 36.1015 36.8942 36.2445 36.8638C36.6083 36.7864 36.8236 36.5109 36.8251 36.1519C36.8267 35.7897 36.6183 35.5183 36.25 35.438C36.0953 35.4043 35.9306 35.4075 35.7706 35.4075C24.582 35.4062 13.3934 35.4062 2.20482 35.4074C2.04466 35.4074 1.88004 35.4029 1.72524 35.4365C1.31799 35.5246 1.10008 35.8472 1.1492 36.2568C1.19901 36.6727 1.51665 36.8889 2.08723 36.8889C7.7186 36.8895 13.3501 36.8893 18.9814 36.8893ZM26.0976 7.92755C26.402 5.10322 24.7216 2.42971 22.104 1.48546C20.6779 0.971046 19.2002 1.08002 17.7368 1.15071C16.994 1.18661 16.4852 1.83131 16.4424 2.5485C16.2854 5.18136 18.4489 7.69612 21.0799 7.86736C22.3365 7.94907 23.6009 7.91258 24.8618 7.92695C25.2672 7.93142 25.6729 7.92755 26.0976 7.92755ZM31.5351 34.2581C32.1489 34.3814 32.6704 34.3207 33.0004 33.7146C33.0931 33.5444 33.2527 33.4114 33.3734 33.2552C34.0612 32.3653 34.302 31.3518 33.9783 30.2877C33.3258 28.1432 32.6358 26.0088 31.8968 23.8928C31.4925 22.735 30.5725 22.1054 29.3643 21.8356C29.3643 25.2916 29.3643 28.7087 29.3643 32.1707C29.7162 32.1707 30.0474 32.1656 30.3784 32.1717C31.2809 32.1881 31.7909 32.8002 31.6416 33.6841C31.609 33.8762 31.5706 34.0673 31.5351 34.2581ZM7.45524 33.3271C7.47211 34.1576 7.60459 34.2925 8.36351 34.2925C15.5059 34.2925 22.6482 34.2925 29.7906 34.2925C30.2726 34.2925 30.3826 34.2089 30.4878 33.7366C30.5161 33.6097 30.5125 33.4758 30.5251 33.3271C22.8201 33.3271 15.1503 33.3271 7.45524 33.3271ZM11.8644 12.3695C11.8644 14.7825 11.8644 17.1613 11.8644 19.5481C12.8094 19.6942 13.6776 19.444 14.512 19.1152C14.7261 19.0308 14.8996 18.6773 14.9645 18.4158C15.0946 17.8917 15.1069 17.339 15.2264 16.8113C15.3014 16.4806 15.2065 16.3026 14.9602 16.0941C14.0469 15.3211 13.3787 14.3682 12.9882 13.231C12.8973 12.9664 12.8982 12.5975 12.7168 12.4567C12.5315 12.313 12.1741 12.3907 11.8644 12.3695ZM15.4684 1.67733C12.9714 2.73362 11.5019 5.51293 11.8994 7.92735C12.1128 7.92735 12.324 7.94064 12.5322 7.9214C12.6274 7.91258 12.7681 7.8633 12.8005 7.7924C13.1362 7.05677 13.7454 6.81444 14.5034 6.75683C15.394 6.6892 15.9805 5.728 15.6893 4.86852C15.3404 3.8388 15.1386 2.79827 15.4684 1.67733ZM21.6045 17.0772C19.871 18.1909 18.1081 18.1852 16.3694 17.0742C16.1905 17.9368 16.0224 18.7471 15.856 19.5496C17.9222 19.5496 20.0564 19.5496 22.1068 19.5496C21.941 18.7332 21.778 17.9309 21.6045 17.0772ZM12.662 9.06476C11.9822 9.0241 11.8423 9.15092 11.8407 9.77084C11.84 10.0426 11.8397 10.3145 11.8408 10.5863C11.8432 11.1829 12.0204 11.3306 12.662 11.2534C12.662 10.5331 12.662 9.8104 12.662 9.06476ZM25.3059 9.06396C25.3059 9.80752 25.3059 10.5303 25.3059 11.2504C25.9431 11.3342 26.1259 11.1835 26.1285 10.5893C26.1297 10.3174 26.1293 10.0456 26.1286 9.77371C26.1272 9.15241 25.9888 9.02589 25.3059 9.06396Z"/>
</mask>
<path d="M38 35.9973C38 36.0962 38 36.1952 38 36.2942C37.9768 36.3497 37.9437 36.4032 37.9318 36.4611C37.7378 37.4036 37.029 37.9987 36.0761 37.9988C24.6777 38.0003 13.2793 38.0005 1.88093 37.9985C0.83424 37.9984 0.00625488 37.1782 3.31362e-06 36.1544C-0.00614902 35.1391 0.827592 34.3068 1.86853 34.2939C2.28927 34.2886 2.71011 34.2927 3.13085 34.2926C3.39282 34.2925 3.65479 34.2926 3.98503 34.2926C2.65513 32.7358 2.46511 31.0877 3.10396 29.2685C3.73288 27.4776 4.27171 25.6553 4.88496 23.8588C5.04998 23.3754 5.29329 22.9013 5.58553 22.482C6.33502 21.4068 7.44522 20.8974 8.69415 20.6383C8.83515 20.6091 9.01784 20.5825 9.09683 20.4859C9.51519 19.9746 10.0565 19.6904 10.7067 19.5674C10.7067 19.3833 10.7068 19.2233 10.7067 19.0632C10.7045 15.1801 10.6924 11.297 10.7029 7.41393C10.7125 3.86994 12.916 1.02915 16.2724 0.196647C16.5563 0.126247 16.8426 0.0653659 17.1277 0.00012207C18.3657 0.00012207 19.6036 0.00012207 20.8416 0.00012207C21.1151 0.0612014 21.3897 0.118017 21.6621 0.183955C25.0252 0.998214 27.25 3.85883 27.2671 7.41333C27.2782 9.72552 27.2672 12.0379 27.2645 14.3501C27.2644 14.4732 27.2596 14.5981 27.2385 14.7189C27.1921 14.9836 27.0224 15.1323 26.7594 15.1581C26.4811 15.1855 26.2708 15.068 26.1831 14.7982C26.1386 14.6612 26.1314 14.5081 26.1302 14.362C26.1249 13.6987 26.1279 13.0352 26.1279 12.4034C25.8542 12.4034 25.6286 12.381 25.4113 12.4136C25.3139 12.4282 25.1745 12.5391 25.1532 12.6296C24.8091 14.0951 24.0044 15.2621 22.875 16.2312C22.7826 16.3104 22.7044 16.4804 22.7183 16.5966C22.7943 17.2334 22.8699 17.8737 23.0133 18.4973C23.0676 18.7334 23.2589 19.0467 23.4624 19.1213C24.3031 19.4296 25.1667 19.6985 26.127 19.5444C26.127 19.4144 26.127 19.2938 26.127 19.1732C26.1272 18.555 26.1221 17.9366 26.1295 17.3184C26.1341 16.9255 26.3609 16.6631 26.6825 16.6519C27.006 16.6406 27.2398 16.8939 27.26 17.2882C27.2689 17.4609 27.2629 17.6343 27.263 17.8074C27.2632 18.3961 27.2631 18.9848 27.2631 19.4727C27.7215 19.7081 28.1749 19.8291 28.4626 20.116C28.8577 20.51 29.3142 20.6568 29.8157 20.7862C31.4509 21.2083 32.5495 22.2301 33.0838 23.825C33.7417 25.789 34.3778 27.7605 35.0022 29.7353C35.4967 31.2989 35.2117 32.7327 34.2038 34.0251C34.1474 34.0973 34.0993 34.1759 34.0184 34.2937C34.764 34.2937 35.4549 34.2862 36.1458 34.2957C36.9729 34.307 37.7072 34.8927 37.9101 35.6844C37.9372 35.7894 37.9699 35.893 38 35.9973ZM6.44467 34.2918C6.40498 34.0871 6.37472 33.9432 6.34941 33.7984C6.16762 32.7567 6.64978 32.1751 7.69866 32.1706C7.99308 32.1693 8.2876 32.1704 8.62687 32.1704C8.62687 31.9949 8.62687 31.8619 8.62687 31.7289C8.62687 30.6036 8.62607 29.4782 8.62766 28.3528C8.62796 28.1429 8.62339 27.9313 8.64731 27.7236C8.67956 27.4434 8.85609 27.2764 9.13384 27.2481C9.43094 27.2177 9.63754 27.3631 9.72238 27.6471C9.76019 27.7739 9.76068 27.9149 9.76098 28.0494C9.76366 29.2861 9.76257 30.5227 9.76257 31.7594C9.76257 31.8893 9.76257 32.0192 9.76257 32.1401C15.9424 32.1401 22.0612 32.1401 28.1917 32.1401C28.1981 32.0506 28.2063 31.9903 28.2063 31.9301C28.2068 28.5911 28.2097 25.2522 28.2041 21.9132C28.2029 21.1738 27.6904 20.7016 26.9088 20.7013C21.6243 20.6994 16.3397 20.6993 11.0552 20.7014C10.243 20.7017 9.76703 21.181 9.76386 21.9931C9.75979 23.0195 9.76604 24.0459 9.76088 25.0723C9.7587 25.5044 9.54535 25.7501 9.19427 25.7524C8.84121 25.7548 8.6357 25.5194 8.62975 25.0758C8.62151 24.4575 8.62717 23.8391 8.62697 23.2208C8.62687 22.7683 8.62697 22.3159 8.62697 21.8275C7.29558 22.1368 6.39516 22.8598 5.97938 24.1167C5.31324 26.1301 4.66357 28.1491 4.0152 30.1684C3.83033 30.7442 3.83261 31.3311 3.95427 31.9247C4.14876 32.8734 4.81688 33.5165 5.40413 34.2125C5.44432 34.2601 5.53304 34.2862 5.60022 34.2882C5.87062 34.2967 6.14152 34.2918 6.44467 34.2918ZM16.5947 6.54622C16.0742 7.39132 15.369 7.82879 14.441 7.91486C13.9209 7.96315 13.7988 8.10206 13.8008 8.61519C13.8043 9.51809 13.7895 10.4221 13.8314 11.3233C13.8554 11.8361 13.904 12.3688 14.0665 12.8504C14.7274 14.8089 16.2192 15.9212 18.0747 16.6292C18.6739 16.8578 19.2806 16.8529 19.8886 16.6411C21.1953 16.1859 22.272 15.4175 23.1396 14.3369C24.4099 12.7551 24.126 10.8969 24.1484 9.04711C23.2876 9.04711 22.461 9.05276 21.6345 9.04572C20.5648 9.0366 19.5582 8.7778 18.6159 8.26725C17.8349 7.84426 17.1808 7.27035 16.5947 6.54622ZM18.9814 36.8893C24.5881 36.8893 30.1948 36.8895 35.8014 36.8884C35.9494 36.8884 36.1015 36.8942 36.2445 36.8638C36.6083 36.7864 36.8236 36.5109 36.8251 36.1519C36.8267 35.7897 36.6183 35.5183 36.25 35.438C36.0953 35.4043 35.9306 35.4075 35.7706 35.4075C24.582 35.4062 13.3934 35.4062 2.20482 35.4074C2.04466 35.4074 1.88004 35.4029 1.72524 35.4365C1.31799 35.5246 1.10008 35.8472 1.1492 36.2568C1.19901 36.6727 1.51665 36.8889 2.08723 36.8889C7.7186 36.8895 13.3501 36.8893 18.9814 36.8893ZM26.0976 7.92755C26.402 5.10322 24.7216 2.42971 22.104 1.48546C20.6779 0.971046 19.2002 1.08002 17.7368 1.15071C16.994 1.18661 16.4852 1.83131 16.4424 2.5485C16.2854 5.18136 18.4489 7.69612 21.0799 7.86736C22.3365 7.94907 23.6009 7.91258 24.8618 7.92695C25.2672 7.93142 25.6729 7.92755 26.0976 7.92755ZM31.5351 34.2581C32.1489 34.3814 32.6704 34.3207 33.0004 33.7146C33.0931 33.5444 33.2527 33.4114 33.3734 33.2552C34.0612 32.3653 34.302 31.3518 33.9783 30.2877C33.3258 28.1432 32.6358 26.0088 31.8968 23.8928C31.4925 22.735 30.5725 22.1054 29.3643 21.8356C29.3643 25.2916 29.3643 28.7087 29.3643 32.1707C29.7162 32.1707 30.0474 32.1656 30.3784 32.1717C31.2809 32.1881 31.7909 32.8002 31.6416 33.6841C31.609 33.8762 31.5706 34.0673 31.5351 34.2581ZM7.45524 33.3271C7.47211 34.1576 7.60459 34.2925 8.36351 34.2925C15.5059 34.2925 22.6482 34.2925 29.7906 34.2925C30.2726 34.2925 30.3826 34.2089 30.4878 33.7366C30.5161 33.6097 30.5125 33.4758 30.5251 33.3271C22.8201 33.3271 15.1503 33.3271 7.45524 33.3271ZM11.8644 12.3695C11.8644 14.7825 11.8644 17.1613 11.8644 19.5481C12.8094 19.6942 13.6776 19.444 14.512 19.1152C14.7261 19.0308 14.8996 18.6773 14.9645 18.4158C15.0946 17.8917 15.1069 17.339 15.2264 16.8113C15.3014 16.4806 15.2065 16.3026 14.9602 16.0941C14.0469 15.3211 13.3787 14.3682 12.9882 13.231C12.8973 12.9664 12.8982 12.5975 12.7168 12.4567C12.5315 12.313 12.1741 12.3907 11.8644 12.3695ZM15.4684 1.67733C12.9714 2.73362 11.5019 5.51293 11.8994 7.92735C12.1128 7.92735 12.324 7.94064 12.5322 7.9214C12.6274 7.91258 12.7681 7.8633 12.8005 7.7924C13.1362 7.05677 13.7454 6.81444 14.5034 6.75683C15.394 6.6892 15.9805 5.728 15.6893 4.86852C15.3404 3.8388 15.1386 2.79827 15.4684 1.67733ZM21.6045 17.0772C19.871 18.1909 18.1081 18.1852 16.3694 17.0742C16.1905 17.9368 16.0224 18.7471 15.856 19.5496C17.9222 19.5496 20.0564 19.5496 22.1068 19.5496C21.941 18.7332 21.778 17.9309 21.6045 17.0772ZM12.662 9.06476C11.9822 9.0241 11.8423 9.15092 11.8407 9.77084C11.84 10.0426 11.8397 10.3145 11.8408 10.5863C11.8432 11.1829 12.0204 11.3306 12.662 11.2534C12.662 10.5331 12.662 9.8104 12.662 9.06476ZM25.3059 9.06396C25.3059 9.80752 25.3059 10.5303 25.3059 11.2504C25.9431 11.3342 26.1259 11.1835 26.1285 10.5893C26.1297 10.3174 26.1293 10.0456 26.1286 9.77371C26.1272 9.15241 25.9888 9.02589 25.3059 9.06396Z" fill="#F4BA01"/>
<path d="M38 35.9973C38 36.0962 38 36.1952 38 36.2942C37.9768 36.3497 37.9437 36.4032 37.9318 36.4611C37.7378 37.4036 37.029 37.9987 36.0761 37.9988C24.6777 38.0003 13.2793 38.0005 1.88093 37.9985C0.83424 37.9984 0.00625488 37.1782 3.31362e-06 36.1544C-0.00614902 35.1391 0.827592 34.3068 1.86853 34.2939C2.28927 34.2886 2.71011 34.2927 3.13085 34.2926C3.39282 34.2925 3.65479 34.2926 3.98503 34.2926C2.65513 32.7358 2.46511 31.0877 3.10396 29.2685C3.73288 27.4776 4.27171 25.6553 4.88496 23.8588C5.04998 23.3754 5.29329 22.9013 5.58553 22.482C6.33502 21.4068 7.44522 20.8974 8.69415 20.6383C8.83515 20.6091 9.01784 20.5825 9.09683 20.4859C9.51519 19.9746 10.0565 19.6904 10.7067 19.5674C10.7067 19.3833 10.7068 19.2233 10.7067 19.0632C10.7045 15.1801 10.6924 11.297 10.7029 7.41393C10.7125 3.86994 12.916 1.02915 16.2724 0.196647C16.5563 0.126247 16.8426 0.0653659 17.1277 0.00012207C18.3657 0.00012207 19.6036 0.00012207 20.8416 0.00012207C21.1151 0.0612014 21.3897 0.118017 21.6621 0.183955C25.0252 0.998214 27.25 3.85883 27.2671 7.41333C27.2782 9.72552 27.2672 12.0379 27.2645 14.3501C27.2644 14.4732 27.2596 14.5981 27.2385 14.7189C27.1921 14.9836 27.0224 15.1323 26.7594 15.1581C26.4811 15.1855 26.2708 15.068 26.1831 14.7982C26.1386 14.6612 26.1314 14.5081 26.1302 14.362C26.1249 13.6987 26.1279 13.0352 26.1279 12.4034C25.8542 12.4034 25.6286 12.381 25.4113 12.4136C25.3139 12.4282 25.1745 12.5391 25.1532 12.6296C24.8091 14.0951 24.0044 15.2621 22.875 16.2312C22.7826 16.3104 22.7044 16.4804 22.7183 16.5966C22.7943 17.2334 22.8699 17.8737 23.0133 18.4973C23.0676 18.7334 23.2589 19.0467 23.4624 19.1213C24.3031 19.4296 25.1667 19.6985 26.127 19.5444C26.127 19.4144 26.127 19.2938 26.127 19.1732C26.1272 18.555 26.1221 17.9366 26.1295 17.3184C26.1341 16.9255 26.3609 16.6631 26.6825 16.6519C27.006 16.6406 27.2398 16.8939 27.26 17.2882C27.2689 17.4609 27.2629 17.6343 27.263 17.8074C27.2632 18.3961 27.2631 18.9848 27.2631 19.4727C27.7215 19.7081 28.1749 19.8291 28.4626 20.116C28.8577 20.51 29.3142 20.6568 29.8157 20.7862C31.4509 21.2083 32.5495 22.2301 33.0838 23.825C33.7417 25.789 34.3778 27.7605 35.0022 29.7353C35.4967 31.2989 35.2117 32.7327 34.2038 34.0251C34.1474 34.0973 34.0993 34.1759 34.0184 34.2937C34.764 34.2937 35.4549 34.2862 36.1458 34.2957C36.9729 34.307 37.7072 34.8927 37.9101 35.6844C37.9372 35.7894 37.9699 35.893 38 35.9973ZM6.44467 34.2918C6.40498 34.0871 6.37472 33.9432 6.34941 33.7984C6.16762 32.7567 6.64978 32.1751 7.69866 32.1706C7.99308 32.1693 8.2876 32.1704 8.62687 32.1704C8.62687 31.9949 8.62687 31.8619 8.62687 31.7289C8.62687 30.6036 8.62607 29.4782 8.62766 28.3528C8.62796 28.1429 8.62339 27.9313 8.64731 27.7236C8.67956 27.4434 8.85609 27.2764 9.13384 27.2481C9.43094 27.2177 9.63754 27.3631 9.72238 27.6471C9.76019 27.7739 9.76068 27.9149 9.76098 28.0494C9.76366 29.2861 9.76257 30.5227 9.76257 31.7594C9.76257 31.8893 9.76257 32.0192 9.76257 32.1401C15.9424 32.1401 22.0612 32.1401 28.1917 32.1401C28.1981 32.0506 28.2063 31.9903 28.2063 31.9301C28.2068 28.5911 28.2097 25.2522 28.2041 21.9132C28.2029 21.1738 27.6904 20.7016 26.9088 20.7013C21.6243 20.6994 16.3397 20.6993 11.0552 20.7014C10.243 20.7017 9.76703 21.181 9.76386 21.9931C9.75979 23.0195 9.76604 24.0459 9.76088 25.0723C9.7587 25.5044 9.54535 25.7501 9.19427 25.7524C8.84121 25.7548 8.6357 25.5194 8.62975 25.0758C8.62151 24.4575 8.62717 23.8391 8.62697 23.2208C8.62687 22.7683 8.62697 22.3159 8.62697 21.8275C7.29558 22.1368 6.39516 22.8598 5.97938 24.1167C5.31324 26.1301 4.66357 28.1491 4.0152 30.1684C3.83033 30.7442 3.83261 31.3311 3.95427 31.9247C4.14876 32.8734 4.81688 33.5165 5.40413 34.2125C5.44432 34.2601 5.53304 34.2862 5.60022 34.2882C5.87062 34.2967 6.14152 34.2918 6.44467 34.2918ZM16.5947 6.54622C16.0742 7.39132 15.369 7.82879 14.441 7.91486C13.9209 7.96315 13.7988 8.10206 13.8008 8.61519C13.8043 9.51809 13.7895 10.4221 13.8314 11.3233C13.8554 11.8361 13.904 12.3688 14.0665 12.8504C14.7274 14.8089 16.2192 15.9212 18.0747 16.6292C18.6739 16.8578 19.2806 16.8529 19.8886 16.6411C21.1953 16.1859 22.272 15.4175 23.1396 14.3369C24.4099 12.7551 24.126 10.8969 24.1484 9.04711C23.2876 9.04711 22.461 9.05276 21.6345 9.04572C20.5648 9.0366 19.5582 8.7778 18.6159 8.26725C17.8349 7.84426 17.1808 7.27035 16.5947 6.54622ZM18.9814 36.8893C24.5881 36.8893 30.1948 36.8895 35.8014 36.8884C35.9494 36.8884 36.1015 36.8942 36.2445 36.8638C36.6083 36.7864 36.8236 36.5109 36.8251 36.1519C36.8267 35.7897 36.6183 35.5183 36.25 35.438C36.0953 35.4043 35.9306 35.4075 35.7706 35.4075C24.582 35.4062 13.3934 35.4062 2.20482 35.4074C2.04466 35.4074 1.88004 35.4029 1.72524 35.4365C1.31799 35.5246 1.10008 35.8472 1.1492 36.2568C1.19901 36.6727 1.51665 36.8889 2.08723 36.8889C7.7186 36.8895 13.3501 36.8893 18.9814 36.8893ZM26.0976 7.92755C26.402 5.10322 24.7216 2.42971 22.104 1.48546C20.6779 0.971046 19.2002 1.08002 17.7368 1.15071C16.994 1.18661 16.4852 1.83131 16.4424 2.5485C16.2854 5.18136 18.4489 7.69612 21.0799 7.86736C22.3365 7.94907 23.6009 7.91258 24.8618 7.92695C25.2672 7.93142 25.6729 7.92755 26.0976 7.92755ZM31.5351 34.2581C32.1489 34.3814 32.6704 34.3207 33.0004 33.7146C33.0931 33.5444 33.2527 33.4114 33.3734 33.2552C34.0612 32.3653 34.302 31.3518 33.9783 30.2877C33.3258 28.1432 32.6358 26.0088 31.8968 23.8928C31.4925 22.735 30.5725 22.1054 29.3643 21.8356C29.3643 25.2916 29.3643 28.7087 29.3643 32.1707C29.7162 32.1707 30.0474 32.1656 30.3784 32.1717C31.2809 32.1881 31.7909 32.8002 31.6416 33.6841C31.609 33.8762 31.5706 34.0673 31.5351 34.2581ZM7.45524 33.3271C7.47211 34.1576 7.60459 34.2925 8.36351 34.2925C15.5059 34.2925 22.6482 34.2925 29.7906 34.2925C30.2726 34.2925 30.3826 34.2089 30.4878 33.7366C30.5161 33.6097 30.5125 33.4758 30.5251 33.3271C22.8201 33.3271 15.1503 33.3271 7.45524 33.3271ZM11.8644 12.3695C11.8644 14.7825 11.8644 17.1613 11.8644 19.5481C12.8094 19.6942 13.6776 19.444 14.512 19.1152C14.7261 19.0308 14.8996 18.6773 14.9645 18.4158C15.0946 17.8917 15.1069 17.339 15.2264 16.8113C15.3014 16.4806 15.2065 16.3026 14.9602 16.0941C14.0469 15.3211 13.3787 14.3682 12.9882 13.231C12.8973 12.9664 12.8982 12.5975 12.7168 12.4567C12.5315 12.313 12.1741 12.3907 11.8644 12.3695ZM15.4684 1.67733C12.9714 2.73362 11.5019 5.51293 11.8994 7.92735C12.1128 7.92735 12.324 7.94064 12.5322 7.9214C12.6274 7.91258 12.7681 7.8633 12.8005 7.7924C13.1362 7.05677 13.7454 6.81444 14.5034 6.75683C15.394 6.6892 15.9805 5.728 15.6893 4.86852C15.3404 3.8388 15.1386 2.79827 15.4684 1.67733ZM21.6045 17.0772C19.871 18.1909 18.1081 18.1852 16.3694 17.0742C16.1905 17.9368 16.0224 18.7471 15.856 19.5496C17.9222 19.5496 20.0564 19.5496 22.1068 19.5496C21.941 18.7332 21.778 17.9309 21.6045 17.0772ZM12.662 9.06476C11.9822 9.0241 11.8423 9.15092 11.8407 9.77084C11.84 10.0426 11.8397 10.3145 11.8408 10.5863C11.8432 11.1829 12.0204 11.3306 12.662 11.2534C12.662 10.5331 12.662 9.8104 12.662 9.06476ZM25.3059 9.06396C25.3059 9.80752 25.3059 10.5303 25.3059 11.2504C25.9431 11.3342 26.1259 11.1835 26.1285 10.5893C26.1297 10.3174 26.1293 10.0456 26.1286 9.77371C26.1272 9.15241 25.9888 9.02589 25.3059 9.06396Z" stroke="#F4BA01" stroke-width="0.8" mask="url(#path-1-outside-1_2_783)"/>
<path d="M18.9692 23.9514C20.3809 23.9418 21.5164 25.0583 21.5333 26.4725C21.5502 27.8923 20.4047 29.047 18.9814 29.0447C17.5718 29.0425 16.4399 27.9126 16.4353 26.5032C16.4308 25.0946 17.5566 23.9609 18.9692 23.9514ZM18.9835 27.9165C19.7749 27.9168 20.3987 27.3025 20.4048 26.5167C20.4112 25.7063 19.7918 25.0784 18.9856 25.0782C18.1944 25.0779 17.5707 25.6921 17.5646 26.4776C17.5583 27.2876 18.1782 27.9162 18.9835 27.9165Z" fill="#F4BA01"/>
</g>
<defs>
<clipPath id="clip0_2_783">
<rect width="38" height="38" fill="white"/>
</clipPath>
</defs>
</svg>
