<svg width="40" height="40" viewBox="0 0 40 40" fill="none" xmlns="http://www.w3.org/2000/svg">
<path d="M29.1204 0.8L29.1388 0.803484C29.2955 0.833116 29.4564 0.860573 29.6193 0.888378C29.9804 0.950017 30.3516 1.01336 30.709 1.10588C34.6728 2.13157 37.3811 4.59848 38.6361 8.48845C39.7409 11.913 39.2165 15.189 37.1146 18.1362C36.8505 18.5066 36.5452 18.8434 36.2368 19.1671C36.1473 19.2612 36.0579 19.3537 35.969 19.4456C35.7489 19.6734 35.5324 19.8975 35.3258 20.1318C35.2338 20.2361 35.1684 20.3769 35.1672 20.4689C35.1505 21.7529 35.1523 23.0377 35.1613 24.3231C35.1626 24.5198 35.1396 24.7216 35.0544 24.9009C34.966 25.0868 34.8173 25.2344 34.5962 25.3278C34.3738 25.4217 34.159 25.4318 33.9571 25.3702C33.7602 25.31 33.5903 25.1863 33.4428 25.0377L33.5773 24.9043L33.4428 25.0377C33.1594 24.7519 32.8729 24.4668 32.5859 24.1812C32.066 23.6638 31.5444 23.1447 31.0358 22.6163M29.1204 0.8L31.1799 22.4776M29.1204 0.8H29.1017M29.1204 0.8H29.1017M31.0358 22.6163L31.1799 22.4776M31.0358 22.6163C31.0358 22.6163 31.0359 22.6163 31.0359 22.6163L31.1799 22.4776M31.0358 22.6163C30.9588 22.5362 30.8992 22.5049 30.8462 22.4914C30.7892 22.477 30.7175 22.4775 30.6049 22.4984L30.5692 22.3058L30.6049 22.4984C28.2018 22.9435 25.7873 22.9779 23.3991 22.3669C21.1201 21.7839 19.2433 20.516 17.7805 18.6894C15.8699 16.3035 15.0186 13.5503 15.4258 10.5065L15.5586 10.5242L15.4258 10.5065C16.0022 6.19763 18.372 3.18586 22.3924 1.55094L22.4677 1.73621M31.1799 22.4776C30.9878 22.278 30.8168 22.2557 30.5684 22.3017C28.1872 22.7428 25.8029 22.7754 23.4487 22.1732C21.2144 21.6016 19.3742 20.3594 17.9366 18.5643C16.0575 16.2179 15.2246 13.5187 15.624 10.533C16.1908 6.29642 18.5128 3.34453 22.4677 1.73621M22.4677 1.73621L22.3924 1.55094C22.8249 1.37507 23.2778 1.25988 23.7273 1.16214C23.8973 1.12518 24.0648 1.09108 24.2308 1.05729C24.5106 1.00034 24.786 0.944263 25.0619 0.876833L25.0619 0.87683C25.1246 0.861493 25.1868 0.845877 25.2497 0.830081C25.2815 0.822079 25.3135 0.814031 25.3459 0.805949L25.3698 0.8H25.3943H29.1017M22.4677 1.73621L29.1017 0.8M32.0106 20.9144C31.8266 20.719 31.6247 20.5799 31.3909 20.5144C31.1567 20.4487 30.91 20.4624 30.6461 20.5395C29.2417 20.9497 27.8006 20.909 26.3235 20.8674C26.2038 20.864 26.0839 20.8606 25.9637 20.8575C24.2926 20.8137 22.7588 20.3261 21.3725 19.4048C19.1413 17.9218 17.7691 15.8657 17.3577 13.2118C16.9023 10.2735 17.7124 7.702 19.7366 5.53567C21.2989 3.86364 23.2463 2.92602 25.5345 2.74542C27.0454 2.6262 28.5455 2.58951 30.0181 2.89107C33.6263 3.62994 36.4651 6.46839 37.0969 10.0932L37.2939 10.0588L37.0969 10.0932C37.6939 13.5173 36.6765 16.4252 34.0328 18.7131C33.7748 18.9363 33.5656 19.1689 33.43 19.444C33.2928 19.7221 33.2373 20.0302 33.2656 20.3935C33.3034 20.8801 33.2952 21.3649 33.2862 21.8983C33.2846 21.997 33.2829 22.0974 33.2814 22.1998C33.2161 22.1348 33.1516 22.0708 33.088 22.0076C32.7061 21.6284 32.3529 21.2778 32.0106 20.9144ZM32.0106 20.9144L31.8676 21.0491L32.0106 20.9144C32.0106 20.9144 32.0106 20.9144 32.0106 20.9144Z" fill="#12CCE5" stroke="#12CCE5" stroke-width="0.4"/>
<path d="M0.800187 18.4096L0.810133 18.3793C0.865408 18.2106 0.912482 18.0434 0.960829 17.8717C0.990177 17.7675 1.01999 17.6616 1.0524 17.5527C1.13589 17.2721 1.23275 16.9864 1.37202 16.7178M0.800187 18.4096L1.37202 16.7178M0.800187 18.4096V18.4415C0.800187 22.6968 0.800186 26.9521 0.8 31.2071L0.799998 31.257L0.823394 31.301C0.832693 31.3185 0.842418 31.3341 0.849557 31.3454C0.852366 31.3498 0.854687 31.3535 0.85671 31.3566C0.860765 31.363 0.863622 31.3675 0.866809 31.3727C0.868206 31.3751 0.869284 31.3769 0.870098 31.3784M0.800187 18.4096L0.870098 31.3784M1.37202 16.7178C2.35864 14.8149 3.95859 13.7618 6.11867 13.7259C7.88784 13.6964 9.6586 13.7034 11.4269 13.7103C12.1303 13.7131 12.8332 13.7159 13.5356 13.7164C13.8411 13.7166 14.1107 13.7953 14.308 13.9605C14.5093 14.1291 14.6144 14.3706 14.6165 14.6491C14.6186 14.9287 14.5149 15.173 14.3159 15.3447C14.1202 15.5134 13.8513 15.596 13.5471 15.5962M1.37202 16.7178L13.5471 15.5962M13.5471 15.5962L13.5469 15.3962M13.5471 15.5962L13.5469 15.3962M13.5471 15.5962C12.258 15.5974 10.9684 15.5973 9.67884 15.5971C8.59569 15.597 7.51263 15.5968 6.43007 15.5975C5.30308 15.5982 4.36937 15.983 3.71774 16.6369C3.06605 17.2908 2.68256 18.2279 2.6822 19.3593C2.68099 23.0078 2.68072 26.6564 2.68229 30.3049C2.68278 31.4238 3.06706 32.3571 3.71709 33.0104C4.36706 33.6637 5.29552 34.0499 6.40847 34.0513C6.58633 34.0516 6.76419 34.0518 6.94202 34.0521C8.247 34.0539 9.55106 34.0557 10.8551 34.048C11.0577 34.0468 11.235 34.0856 11.3982 34.1672C11.5593 34.2478 11.6965 34.365 11.8264 34.5062L11.6828 34.6382L11.8264 34.5062C12.2104 34.9236 12.6179 35.3151 13.0467 35.7271C13.1165 35.7941 13.1868 35.8617 13.2577 35.93M13.5471 15.5962L15.1382 35.9333M13.5469 15.3962C12.2577 15.3974 10.9685 15.3973 9.67922 15.3971C8.59612 15.397 7.51302 15.3968 6.42994 15.3975C4.08253 15.399 2.48294 17.0039 2.4822 19.3592C2.48099 23.0078 2.48072 26.6564 2.48229 30.305C2.48332 32.6368 4.08735 34.2484 6.40821 34.2513C6.58609 34.2516 6.76396 34.2518 6.94184 34.2521C8.2467 34.2539 9.5515 34.2557 10.8563 34.248C11.2059 34.2459 11.4389 34.3805 11.6792 34.6416C12.0676 35.0638 12.482 35.4619 12.9129 35.8759C13.0269 35.9855 13.142 36.0961 13.2582 36.2086M13.5469 15.3962C14.0863 15.3958 14.42 15.1039 14.4165 14.6506C14.4131 14.1978 14.0818 13.9167 13.5354 13.9164C12.8317 13.9159 12.1279 13.9131 11.4241 13.9103C9.65653 13.9034 7.88898 13.8964 6.122 13.9258C4.03934 13.9605 2.50421 14.9686 1.54957 16.8099C1.37062 17.155 1.26294 17.5371 1.15526 17.9192L13.2582 36.2086M13.2582 36.2086C13.2581 36.1356 13.2579 36.0633 13.2578 35.9917C13.2577 35.9711 13.2577 35.9505 13.2577 35.93M13.2582 36.2086L1 31.2071C1.00713 31.2205 1.01554 31.2337 1.02394 31.2469C1.04193 31.2751 1.0599 31.3032 1.06528 31.3336C1.53072 33.9688 3.60809 35.727 6.26984 35.7327C6.70512 35.7336 7.14042 35.7332 7.5757 35.7328C8.48724 35.7319 9.39877 35.7311 10.3102 35.7425C10.4822 35.7447 10.6941 35.8313 10.8173 35.9511C11.5766 36.6895 12.3242 37.44 13.0716 38.1905C13.2227 38.3421 13.3738 38.4938 13.5249 38.6454C13.7936 38.9147 14.0871 39.1032 14.4816 38.9383C14.875 38.7738 14.9483 38.4427 14.9419 38.0549M13.2577 35.93C13.324 35.9939 13.3908 36.0585 13.458 36.1238C13.458 36.0789 13.4579 36.0343 13.4578 35.99C13.4572 35.6968 13.4566 35.4148 13.459 35.1329C13.4643 34.5287 13.7392 34.2531 14.347 34.2525C15.8085 34.2513 17.27 34.2515 18.7315 34.2516C19.8029 34.2517 20.8744 34.2519 21.9459 34.2514C24.3197 34.2505 25.9134 32.6526 25.9147 30.2733C25.9149 29.7249 25.9147 29.1765 25.9146 28.6281C25.9142 27.581 25.9138 26.5339 25.9168 25.4868C25.9181 25.0489 26.1644 24.7466 26.5393 24.6879C26.8795 24.6346 27.2163 24.8223 27.338 25.1519C27.3795 25.2645 27.3923 25.3932 27.3925 25.5146C27.3931 25.9497 27.3945 26.3849 27.3958 26.82C27.3999 28.1288 27.4039 29.4376 27.3883 30.7463C27.3597 33.1443 25.4181 35.3297 23.0456 35.6581C22.717 35.7036 22.3829 35.7292 22.0512 35.7301C20.3705 35.7348 18.6898 35.7342 17.0092 35.7337C16.4658 35.7335 15.9224 35.7333 15.3791 35.7333H15.1383C15.1383 35.8003 15.1383 35.8669 15.1382 35.9333M13.2577 35.93C13.2571 35.6581 13.2567 35.3943 13.259 35.1312L13.259 35.1312C13.2619 34.8032 13.3379 34.5215 13.536 34.3245C13.7343 34.1275 14.0168 34.0529 14.3468 34.0525C15.8084 34.0513 17.2702 34.0515 18.7319 34.0516C19.8033 34.0517 20.8747 34.0519 21.9458 34.0514C23.0868 34.051 24.0254 33.6676 24.6784 33.013C25.3314 32.3583 25.714 31.4172 25.7147 30.2732C25.7149 29.7251 25.7147 29.1768 25.7146 28.6284C25.7142 27.5812 25.7138 26.5336 25.7168 25.4862C25.7176 25.2299 25.7904 24.9994 25.9309 24.8213C26.0723 24.6421 26.2736 24.5271 26.5084 24.4903L26.5084 24.4903C26.9393 24.4228 27.3698 24.6605 27.5256 25.0827L27.5256 25.0827C27.5787 25.2266 27.5923 25.3819 27.5925 25.5143C27.5931 25.9487 27.5945 26.3834 27.5958 26.8183C27.5999 28.1275 27.6039 29.4384 27.5883 30.7486C27.5585 33.2464 25.5428 35.5144 23.073 35.8562C22.7363 35.9028 22.3933 35.9291 22.0518 35.9301C20.3709 35.9348 18.6898 35.9342 17.0092 35.9337C16.4658 35.9335 15.9224 35.9333 15.3791 35.9333H15.3783H15.3775H15.3767H15.3759H15.3752H15.3744H15.3736H15.3728H15.372H15.3713H15.3705H15.3697H15.3689H15.3681H15.3674H15.3666H15.3658H15.365H15.3643H15.3635H15.3627H15.3619H15.3611H15.3604H15.3596H15.3588H15.358H15.3572H15.3565H15.3557H15.3549H15.3541H15.3533H15.3526H15.3518H15.351H15.3502H15.3494H15.3487H15.3479H15.3471H15.3463H15.3455H15.3448H15.344H15.3432H15.3424H15.3416H15.3409H15.3401H15.3393H15.3385H15.3377H15.337H15.3362H15.3354H15.3346H15.3338H15.333H15.3323H15.3315H15.3307H15.3299H15.3291H15.3283H15.3276H15.3268H15.326H15.3252H15.3244H15.3237H15.3229H15.3221H15.3213H15.3205H15.3197H15.3189H15.3182H15.3174H15.3166H15.3158H15.315H15.3142H15.3135H15.3127H15.3119H15.3111H15.3103H15.3095H15.3087H15.308H15.3072H15.3064H15.3056H15.3048H15.304H15.3032H15.3024H15.3017H15.3009H15.3001H15.2993H15.2985H15.2977H15.2969H15.2961H15.2953H15.2946H15.2938H15.293H15.2922H15.2914H15.2906H15.2898H15.289H15.2882H15.2874H15.2866H15.2859H15.2851H15.2843H15.2835H15.2827H15.2819H15.2811H15.2803H15.2795H15.2787H15.2779H15.2771H15.2763H15.2755H15.2747H15.2739H15.2731H15.2724H15.2716H15.2708H15.27H15.2692H15.2684H15.2676H15.2668H15.266H15.2652H15.2644H15.2636H15.2628H15.262H15.2612H15.2604H15.2596H15.2588H15.258H15.2572H15.2564H15.2556H15.2548H15.254H15.2532H15.2524H15.2516H15.2508H15.25H15.2491H15.2483H15.2475H15.2467H15.2459H15.2451H15.2443H15.2435H15.2427H15.2419H15.2411H15.2403H15.2395H15.2387H15.2379H15.237H15.2362H15.2354H15.2346H15.2338H15.233H15.2322H15.2314H15.2306H15.2297H15.2289H15.2281H15.2273H15.2265H15.2257H15.2249H15.2241H15.2232H15.2224H15.2216H15.2208H15.22H15.2192H15.2183H15.2175H15.2167H15.2159H15.2151H15.2142H15.2134H15.2126H15.2118H15.211H15.2101H15.2093H15.2085H15.2077H15.2069H15.206H15.2052H15.2044H15.2036H15.2027H15.2019H15.2011H15.2003H15.1994H15.1986H15.1978H15.1969H15.1961H15.1953H15.1945H15.1936H15.1928H15.192H15.1911H15.1903H15.1895H15.1886H15.1878H15.187H15.1861H15.1853H15.1845H15.1836H15.1828H15.182H15.1811H15.1803H15.1795H15.1786H15.1778H15.1769H15.1761H15.1753H15.1744H15.1736H15.1727H15.1719H15.1711H15.1702H15.1694H15.1685H15.1677H15.1668H15.166H15.1652H15.1643H15.1635H15.1626H15.1618H15.1609H15.1601H15.1592H15.1584H15.1575H15.1567H15.1558H15.155H15.1541H15.1533H15.1524H15.1516H15.1507H15.1498H15.149H15.1481H15.1473H15.1464H15.1456H15.1447H15.1438H15.143H15.1421H15.1413H15.1404H15.1395H15.1387H15.1382M15.1382 35.9333H15.1378H15.137H15.1361H15.1352H15.1344H15.1335H15.1326H15.1318H15.1309H15.13H15.1292H15.1283H15.1274H15.1266H15.1257H15.1248H15.1239H15.1231H15.1222H15.1213H15.1205H15.1196H15.1187H15.1178H15.1169H15.1161H15.1152H15.1143H15.1134H15.1126H15.1117H15.1108H15.1099H15.109H15.1082H15.1073H15.1064H15.1055H15.1046H15.1037H15.1028H15.102H15.1011H15.1002H15.0993H15.0984H15.0975H15.0966H15.0957H15.0948H15.0939H15.093H15.0922H15.0913H15.0904H15.0895H15.0886H15.0877H15.0868H15.0859H15.085H15.0841H15.0832H15.0823H15.0814H15.0805H15.0796H15.0787H15.0778H15.0769H15.0759H15.075H15.0741H15.0732H15.0723H15.0714H15.0705H15.0696H15.0687H15.0678H15.0668H15.0659H15.065H15.0641H15.0632H15.0623H15.0614H15.0604H15.0595H15.0586H15.0577H15.0568H15.0558H15.0549H15.054H15.0531H15.0521H15.0512H15.0503H15.0494H15.0484H15.0475H15.0466H15.0456H15.0447H15.0438H15.0428H15.0419H15.041H15.04H15.0391H15.0382H15.0372H15.0363H15.0354H15.0344H15.0335H15.0325H15.0316H15.0307H15.0297H15.0288H15.0278H15.0269H15.0259H15.025H15.024H15.0231H15.0221H15.0212H15.0202H15.0193H15.0183H15.0174H15.0164H15.0155H15.0145H15.0136H15.0126H15.0116H15.0107H15.0097H15.0088H15.0078H15.0068H15.0059H15.0049H15.0039H15.003H15.002H15.001H15.0001H14.9991H14.9981H14.9972H14.9962H14.9952H14.9942H14.9933H14.9923H14.9913H14.9903H14.9894H14.9884H14.9874H14.9864H14.9855H14.9845H14.9835H14.9825H14.9815H14.9805H14.9795H14.9786H14.9776H14.9766H14.9756H14.9746H14.9736H14.9726H14.9716H14.9706H14.9696H14.9686H14.9676H14.9666H14.9656H14.9646H14.9636H14.9626H14.9616H14.9606H14.9596H14.9586H14.9576H14.9566H14.9556H14.9546H14.9536H14.9526H14.9516H14.9505H14.9495H14.9485H14.9475H14.9465H14.9455H14.9445H14.9434H14.9424H14.9414H14.9404H14.9393H14.9383V35.7333C14.9383 35.9684 14.9376 36.2006 14.9368 36.4308C14.935 36.9799 14.9332 37.5175 14.9419 38.0549M14.9419 38.0549L15.1419 38.0517M14.9419 38.0549L15.1419 38.0516C15.1419 38.0516 15.1419 38.0517 15.1419 38.0517M15.1419 38.0517C15.1452 38.255 15.1289 38.4693 15.0448 38.6608C14.9567 38.8612 14.8012 39.0215 14.5588 39.1228C14.3142 39.225 14.0888 39.2201 13.8842 39.1413C13.6885 39.066 13.5241 38.9277 13.3833 38.7866C13.232 38.6349 13.0808 38.4831 12.9297 38.3314C12.1822 37.5809 11.436 36.8317 10.6779 36.0945C10.5918 36.0108 10.4292 35.944 10.3077 35.9425C9.39764 35.9311 8.4885 35.9319 7.57778 35.9328C7.14211 35.9332 6.70608 35.9336 6.26942 35.9327C3.51315 35.9268 1.3557 34.1025 0.870098 31.3784M15.1419 38.0517L0.870098 31.3784" fill="#12CCE5" stroke="#12CCE5" stroke-width="0.4"/>
<path d="M12.4674 25.6913C10.3168 25.6913 8.1662 25.6913 6.01564 25.6909C5.99408 25.6909 5.97105 25.6912 5.94684 25.6914C5.84817 25.6926 5.73058 25.6939 5.61857 25.6784C5.61853 25.6784 5.61849 25.6784 5.61845 25.6784L5.64589 25.4803L12.4674 25.6913ZM12.4674 25.6913C12.8354 25.6913 13.2034 25.6913 13.5715 25.6913M12.4674 25.6913L13.5715 25.6913M22.1278 24.7654L22.3277 24.7693C22.3189 25.2238 21.9833 25.6114 21.5255 25.6773C21.4123 25.6936 21.2935 25.6923 21.1942 25.6912C21.1707 25.691 21.1483 25.6907 21.1274 25.6907L22.1278 24.7654ZM22.1278 24.7654L22.3277 24.7693C22.3369 24.2958 21.9937 23.8879 21.5174 23.8223M22.1278 24.7654L21.4901 24.0204L21.5174 23.8223M13.5715 25.6913C13.9938 25.6913 14.4162 25.6913 14.8385 25.6913M13.5715 25.6913L14.8385 25.6913M21.5174 23.8223C21.4055 23.8069 21.288 23.8082 21.1894 23.8094C21.1651 23.8097 21.1419 23.8099 21.1203 23.8099C16.0831 23.8095 11.0459 23.8095 6.00871 23.8099L21.5174 23.8223ZM14.8385 25.6913C16.9347 25.6913 19.031 25.6913 21.1273 25.6907L14.8385 25.6913ZM4.80824 24.7315L4.80824 24.7315L6.0087 23.8099C5.98785 23.8099 5.96562 23.8097 5.94232 23.8094C5.84286 23.8084 5.7239 23.8071 5.6105 23.8234L5.6105 23.8234C5.15264 23.8894 4.81709 24.2769 4.80824 24.7315Z" fill="#12CCE5" stroke="#12CCE5" stroke-width="0.4"/>
<path d="M5.61705 29.8342L5.61703 29.8342C5.14041 29.7678 4.79779 29.3587 4.80829 28.8849L4.80829 28.8848C4.81846 28.4291 5.15591 28.0458 5.61248 27.9787L5.61705 29.8342ZM5.61705 29.8342C5.72925 29.8498 5.84709 29.8485 5.94592 29.8473C5.97007 29.8471 5.99309 29.8468 6.01461 29.8468C7.63898 29.8473 9.26343 29.8472 10.8878 29.8472C11.2895 29.8472 11.6911 29.8472 12.0927 29.8472C12.5943 29.8472 13.0958 29.8472 13.5974 29.8472C15.1095 29.8472 16.6216 29.8473 18.1339 29.847H18.1339M5.61705 29.8342L18.1339 29.847M18.1339 29.847C18.1622 29.847 18.1923 29.8474 18.2238 29.8478C18.3405 29.8492 18.4759 29.8509 18.6047 29.8335C19.0562 29.7723 19.4051 29.3744 19.4193 28.93M18.1339 29.847L18.6039 27.9783C19.0679 28.0458 19.4341 28.4677 19.4193 28.93M5.89218 27.9658C5.90808 27.9659 5.92325 27.966 5.93753 27.966C10.0514 27.9656 14.1653 27.9656 18.2791 27.966L5.89218 27.9658ZM5.89218 27.9658C5.81047 27.9651 5.70956 27.9644 5.61258 27.9787L5.89218 27.9658ZM19.4193 28.93L19.22 28.9236L19.4193 28.93C19.4193 28.93 19.4193 28.93 19.4193 28.93ZM18.6039 27.9783C18.5074 27.9643 18.4069 27.9651 18.3254 27.9658C18.3092 27.9659 18.2937 27.966 18.2792 27.966L18.6039 27.9783Z" fill="#12CCE5" stroke="#12CCE5" stroke-width="0.4"/>
<path d="M5.93231 19.6533C5.91773 19.6533 5.90184 19.6531 5.88493 19.6529C5.80446 19.652 5.70075 19.6508 5.60299 19.6676L16.4087 19.6528C16.3962 19.6528 16.3844 19.6529 16.3735 19.6529C12.893 19.6528 9.41269 19.6528 5.93231 19.6533ZM5.93231 19.6533V19.8533V19.6533ZM5.90453 21.527H5.90452C5.66431 21.5252 5.38866 21.4575 5.17791 21.3218L5.17788 21.3218C4.83058 21.0981 4.73689 20.7111 4.84319 20.3428L4.84319 20.3428C4.95034 19.9717 5.22048 19.7333 5.60295 19.6676L5.90453 21.527ZM5.90453 21.527C7.25293 21.5372 8.6016 21.5361 9.94933 21.5351C10.3542 21.5348 10.7589 21.5345 11.1635 21.5345C11.1635 21.5345 11.1635 21.5345 11.1635 21.5345L14.9772 21.5346H14.9772C15.1287 21.5346 15.281 21.5352 15.4337 21.5358C15.7998 21.5372 16.1686 21.5386 16.536 21.5316L16.536 21.5316M5.90453 21.527L16.536 21.5316M16.536 21.5316C17.0881 21.521 17.4991 21.1433 17.5082 20.6104C17.5128 20.3425 17.4142 20.1041 17.2339 19.9314C17.055 19.76 16.8074 19.6641 16.5291 19.6538L16.536 21.5316Z" fill="#12CCE5" stroke="#12CCE5" stroke-width="0.4"/>
<path d="M22.1277 28.9055C22.1282 29.3015 21.7964 29.6389 21.4007 29.6445C20.9906 29.6502 20.6434 29.2993 20.6533 28.8889C20.6628 28.4932 21.0034 28.1639 21.3988 28.1685C21.7949 28.1731 22.1271 28.5089 22.1277 28.9055Z" fill="#12CCE5"/>
<path d="M26.7167 13.1601C26.7166 12.913 26.7122 12.6656 26.7174 12.4185C26.7341 11.6333 27.0648 11.1821 27.8241 10.9536C28.4834 10.755 28.9099 10.3517 29.0654 9.67078C29.2734 8.75972 28.6476 7.8772 27.6706 7.71173C26.8221 7.56803 25.9406 8.23248 25.8335 9.09501C25.8184 9.21706 25.8029 9.33986 25.7756 9.45958C25.6747 9.90159 25.3751 10.1183 24.9507 10.0624C24.5573 10.0105 24.2922 9.66817 24.3182 9.2455C24.4116 7.7267 25.3659 6.60278 26.8455 6.26869C28.1688 5.96993 29.5291 6.61988 30.2317 7.8864C31.1312 9.50792 30.3123 11.6624 28.5513 12.2747C28.2903 12.3654 28.1805 12.4809 28.1999 12.7675C28.2274 13.1735 28.2119 13.5829 28.2054 13.9906C28.1969 14.516 27.8835 14.8732 27.4479 14.867C27.0177 14.8609 26.7303 14.5287 26.718 14.0128C26.7111 13.7288 26.7167 13.4444 26.7167 13.1601Z" fill="#12CCE5"/>
<path d="M27.4738 17.7876C27.0652 17.7964 26.7408 17.4938 26.7261 17.0905C26.7109 16.6746 27.0326 16.3215 27.4387 16.3084C27.826 16.2959 28.2024 16.6648 28.2019 17.0565C28.2013 17.4454 27.869 17.7793 27.4738 17.7876Z" fill="#12CCE5"/>
</svg>
