<svg width="38" height="38" viewBox="0 0 38 38" fill="none" xmlns="http://www.w3.org/2000/svg">
<path d="M38 19.8227C37.8263 20.5006 37.7228 21.2063 37.4671 21.8518C36.3268 24.7296 34.2198 26.4697 31.1616 27.0183C30.6296 27.1138 30.0805 27.141 29.5385 27.1494C28.3263 27.1681 27.1136 27.162 25.9012 27.1527C25.0408 27.146 24.4144 26.5505 24.422 25.772C24.4297 24.9829 25.0466 24.4272 25.9243 24.4255C27.211 24.4231 28.4977 24.4314 29.7844 24.4232C32.1565 24.4081 34.2084 22.9655 34.9602 20.7949C35.7452 18.5288 34.997 16.0857 33.0724 14.6485C32.6788 14.3545 32.298 14.0506 32.2687 13.5132C32.2555 13.2717 32.28 13.0207 32.333 12.7842C33.2316 8.77043 31.2989 4.93096 27.4918 3.35428C23.1574 1.55918 18.2672 3.83431 16.7643 8.20538C16.6205 8.62359 16.5304 9.06032 16.4159 9.48859C16.0894 10.7095 15.0438 11.0482 14.0624 10.2507C13.025 9.40746 11.9078 9.27565 10.8352 9.90192C9.94941 10.4191 9.56581 11.2396 9.48979 12.2365C9.42622 13.0707 8.90413 13.5545 8.06521 13.5847C5.25559 13.6857 3.09142 15.6468 2.73941 18.4106C2.37912 21.2396 4.54331 24.0192 7.37324 24.3535C7.7405 24.3969 8.11223 24.4207 8.48208 24.4218C10.6224 24.4283 12.7628 24.4237 14.9032 24.4264C15.443 24.4271 15.8553 24.6656 16.1152 25.1394C16.3687 25.6012 16.3437 26.0687 16.071 26.512C15.8107 26.9351 15.4024 27.1493 14.9192 27.1479C12.3837 27.1402 9.8425 27.2154 7.31416 27.0719C3.81039 26.8731 0.753672 24.0093 0.13972 20.5539C-0.563306 16.5975 1.42981 12.9561 5.1475 11.4364C5.60113 11.2509 6.08217 11.1119 6.56371 11.0221C6.86291 10.9663 6.96743 10.8282 7.04943 10.5668C7.78573 8.21961 10.0188 6.65308 12.4707 6.79206C13.043 6.82451 13.6082 6.98369 14.2367 7.09529C14.2578 7.04532 14.3025 6.93741 14.3488 6.83009C15.9884 3.03492 18.8547 0.776602 22.9298 0.123251C27.0864 -0.543241 31.447 1.54475 33.6559 5.14291C34.7306 6.89351 35.2628 8.79113 35.2966 10.8306C35.3058 11.3832 35.2299 11.9397 35.1591 12.4901C35.13 12.7161 35.1876 12.854 35.349 13.001C36.5997 14.1409 37.4072 15.5428 37.7946 17.1874C37.8672 17.496 37.9317 17.8066 37.9999 18.1163C38 18.685 38 19.2538 38 19.8227Z" fill="#41E16A"/>
<path d="M20.0329 37.9999C19.6854 37.7338 19.3043 37.5015 18.9956 37.196C16.9121 35.1346 14.8449 33.0566 12.7693 30.9872C12.4519 30.6707 12.2193 30.3252 12.233 29.8535C12.2492 29.2925 12.5104 28.8881 13.0086 28.6454C13.4984 28.4069 13.9693 28.4752 14.4039 28.7914C14.523 28.878 14.6266 28.9871 14.7314 29.0917C16.0444 30.4022 17.3561 31.714 18.6688 33.0248C18.7538 33.1096 18.8437 33.1894 18.9964 33.3327C18.9964 33.1195 18.9964 32.9784 18.9964 32.8372C18.9964 26.458 18.9961 20.0787 18.997 13.6995C18.9971 12.9884 19.3615 12.4502 19.9534 12.2727C20.7143 12.0446 21.4906 12.4825 21.6692 13.257C21.7186 13.4706 21.7273 13.6974 21.7274 13.9181C21.7303 20.2108 21.7298 26.5035 21.7298 32.7962C21.7298 32.9421 21.7298 33.0882 21.7298 33.3137C21.8776 33.1773 21.975 33.0934 22.0658 33.0029C23.4053 31.6665 24.7411 30.3262 26.0842 28.9935C26.6636 28.4185 27.3723 28.3507 27.9546 28.7938C28.5383 29.2378 28.6697 30.0479 28.2448 30.6431C28.1379 30.7928 28.0047 30.9255 27.874 31.0564C25.8457 33.0857 23.8208 35.1184 21.7813 37.1365C21.4555 37.459 21.0629 37.7139 20.7012 38C20.4784 37.9999 20.2557 37.9999 20.0329 37.9999Z" fill="#41E16A"/>
</svg>
