<svg width="40" height="40" viewBox="0 0 40 40" fill="none" xmlns="http://www.w3.org/2000/svg">
<path d="M0.800097 3.87018L0.811871 3.8374C0.826106 3.79777 0.837956 3.76839 0.847936 3.74365C0.863409 3.70529 0.874385 3.67808 0.882783 3.64108L0.800097 3.87018ZM0.800097 3.87018V3.90501M0.800097 3.87018V3.90501M0.800097 3.90501L0.8 22.2695L0.799999 22.3102L0.81594 22.3477C0.8241 22.3669 0.835884 22.3917 0.844164 22.409C0.847412 22.4158 0.850121 22.4215 0.851861 22.4253C0.861269 22.4457 0.865103 22.4565 0.86683 22.4635L1.06098 22.4155M0.800097 3.90501L1.06098 22.4155M2.79298 8.11099C2.84492 8.13714 2.89422 8.16248 2.94374 8.18919L3.03869 8.01316L2.94374 8.18919C4.12979 8.82896 5.31607 9.46796 6.50228 10.1069C9.79783 11.8821 13.0929 13.657 16.3811 15.4474L16.3811 15.4474C17.7449 16.1898 19.0771 16.1992 20.4393 15.4596C23.8216 13.6232 27.2081 11.7963 30.5949 9.96919C31.7205 9.36196 32.8461 8.75473 33.9716 8.14712L33.9717 8.14707C33.9995 8.13204 34.0271 8.11777 34.0554 8.10359V8.10415V8.10508V8.10601V8.10693V8.10786V8.10879V8.10971V8.11063V8.11156V8.11248V8.1134V8.11433V8.11525V8.11617V8.11709V8.11801V8.11893V8.11985V8.12077V8.12168V8.1226V8.12352V8.12443V8.12535V8.12626V8.12718V8.12809V8.12901V8.12992V8.13083V8.13174V8.13265V8.13357V8.13448V8.13539V8.1363V8.13721V8.13811V8.13902V8.13993V8.14084V8.14174V8.14265V8.14356V8.14446V8.14537V8.14627V8.14717V8.14808V8.14898V8.14988V8.15079V8.15169V8.15259V8.15349V8.15439V8.15529V8.15619V8.15709V8.15799V8.15889V8.15978V8.16068V8.16158V8.16248V8.16337V8.16427V8.16516V8.16606V8.16695V8.16785V8.16874V8.16963V8.17053V8.17142V8.17231V8.1732V8.1741V8.17499V8.17588V8.17677V8.17766V8.17855V8.17944V8.18033V8.18122V8.18211V8.18299V8.18388V8.18477V8.18566V8.18654V8.18743V8.18832V8.1892V8.19009V8.19097V8.19186V8.19274V8.19363V8.19451V8.19539V8.19628V8.19716V8.19804V8.19893V8.19981V8.20069V8.20157V8.20245V8.20333V8.20421V8.2051V8.20598V8.20686V8.20774V8.20861V8.20949V8.21037V8.21125V8.21213V8.21301V8.21389V8.21476V8.21564V8.21652V8.2174V8.21827V8.21915V8.22003V8.2209V8.22178V8.22265V8.22353V8.2244V8.22528V8.22615V8.22703V8.2279V8.22878V8.22965V8.23052V8.2314V8.23227V8.23315V8.23402V8.23489V8.23576V8.23664V8.23751V8.23838V8.23925V8.24013V8.241V8.24187V8.24274V8.24361V8.24448V8.24535V8.24622V8.2471V8.24797V8.24884V8.24971V8.25058V8.25145V8.25232V8.25319V8.25406V8.25493V8.2558V8.25666V8.25753V8.2584V8.25927V8.26014V8.26101V8.26188V8.26275V8.26362V8.26448V8.26535V8.26622V8.26709V8.26796V8.26883V8.26969V8.27056V8.27143V8.2723V8.27317V8.27403V8.2749V8.27577V8.27664V8.2775V8.27837V8.27924V8.28011V8.28097V8.28184V8.28271V8.28358V8.28444V8.28531V8.28618V8.28705V8.28791V8.28878V8.28965V8.29052L34.0555 20.545C34.0555 20.5766 34.0551 20.6105 34.0546 20.6458C34.0533 20.7462 34.0517 20.8582 34.0601 20.9649C34.0601 20.9649 34.0601 20.9649 34.0601 20.9649L2.79298 8.11099ZM2.79298 8.11099C2.79166 8.13862 2.79088 8.16552 2.79085 8.1931M2.79298 8.11099L2.79085 8.1931M1.06098 22.4155L0.866833 22.4635C1.09972 23.4044 1.51242 24.1376 2.10928 24.6351C2.70761 25.1339 3.47238 25.3803 4.37896 25.3804C8.17626 25.3807 11.9736 25.3805 15.7708 25.3803C15.7964 25.3803 15.8246 25.3808 15.8546 25.3813C15.9487 25.383 16.0605 25.385 16.165 25.3728C16.6645 25.3141 17.0118 24.8713 17.0298 24.3638C17.048 23.8511 16.75 23.3841 16.2471 23.287C16.0588 23.2507 15.8666 23.2505 15.6989 23.2505L15.6921 23.2504H15.6921C14.6576 23.25 13.6231 23.25 12.5887 23.25C9.87535 23.2501 7.16236 23.2502 4.44924 23.2412C4.13844 23.2401 3.82031 23.1957 3.56648 23.0728C3.00317 22.8 2.78712 22.2663 2.78787 21.5396C2.79091 18.5733 2.79078 15.6069 2.79065 12.6405C2.79059 11.158 2.79052 9.67554 2.79085 8.1931M1.06098 22.4155L2.79085 8.19323C2.79085 8.19319 2.79085 8.19315 2.79085 8.1931M4.13151 0.808233L4.13152 0.808233C4.56021 0.797223 4.99094 0.799644 5.41799 0.802045C5.59774 0.803055 5.77683 0.804062 5.95485 0.804062C7.91799 0.804038 9.88114 0.803982 11.8443 0.803926C18.725 0.80373 25.6058 0.803535 32.4865 0.804711C34.25 0.805055 35.5873 1.919 35.9574 3.69423L35.7631 3.73474L35.9574 3.69425C36.0294 4.03992 36.0403 4.40107 36.0406 4.7382C36.0453 10.0088 36.0441 15.2794 36.0427 20.5499C36.0427 20.7111 36.0405 20.8891 36.0126 21.0645L35.815 21.033L4.13151 0.808233ZM4.13151 0.808233C2.54599 0.849006 1.25418 2.00062 0.8828 3.64101L4.13151 0.808233ZM2.784 5.40295L2.784 5.40298C2.77159 5.54163 2.79219 5.61908 2.82388 5.6723C2.8573 5.72843 2.91926 5.7851 3.04249 5.85128L3.04253 5.8513C7.76975 8.39138 12.496 10.935 17.2099 13.5057C17.6348 13.7375 18.0308 13.8478 18.4192 13.848C18.8076 13.8482 19.2031 13.7383 19.6271 13.5072C24.1659 11.0335 28.7103 8.56976 33.2751 6.15154C33.6002 5.97935 33.7992 5.81771 33.9197 5.61889C34.0396 5.42116 34.0976 5.16014 34.0843 4.75673C34.067 4.23195 33.9091 3.77565 33.6344 3.45531C33.3636 3.13947 32.9677 2.9413 32.4368 2.94555C29.0249 2.97283 25.6124 2.96848 22.201 2.96413C20.9359 2.96252 19.671 2.9609 18.4064 2.9609C17.1772 2.9609 15.9481 2.96081 14.719 2.96073C11.2347 2.96048 7.75048 2.96023 4.26616 2.96198L2.784 5.40295ZM2.784 5.40295C2.79755 5.25143 2.79703 5.10096 2.79466 4.95821M2.784 5.40295L2.79466 4.95821M2.79466 4.95821C2.79419 4.9299 2.79365 4.90201 2.79312 4.87445M2.79466 4.95821L2.79312 4.87445M2.79312 4.87445C2.79091 4.76005 2.78881 4.65132 2.79214 4.54231L2.79312 4.87445Z" fill="#887EF9" stroke="#887EF9" stroke-width="0.4"/>
<path d="M24.7232 18.5088C22.1601 21.3004 19.5975 24.0928 17.0367 26.8872L17.0367 26.8872C16.779 27.1684 16.6217 27.4572 16.6213 27.7706C16.6209 28.0841 16.7776 28.3727 17.0348 28.6534C18.0276 29.7368 19.0208 30.8195 20.014 31.9021C21.5828 33.6122 23.1515 35.3222 24.7181 37.0348C24.8689 37.1996 25.0418 37.3405 25.2434 37.4137C25.4517 37.4893 25.6753 37.4871 25.9088 37.3904C26.1583 37.287 26.3234 37.1152 26.4216 36.9021C26.5167 36.6957 26.5451 36.4595 26.5441 36.2253C26.5403 35.3547 26.5411 34.4843 26.5419 33.6133C26.5422 33.2712 26.5425 32.9291 26.5425 32.5868V32.5868V32.586V32.5851V32.5843V32.5834V32.5826V32.5817V32.5809V32.58V32.5792V32.5783V32.5775V32.5766V32.5758V32.5749V32.5741V32.5732V32.5724V32.5715V32.5707V32.5698V32.569V32.5681V32.5673V32.5664V32.5655V32.5647V32.5638V32.563V32.5621V32.5613V32.5604V32.5596V32.5587V32.5579V32.557V32.5562V32.5553V32.5545V32.5536V32.5528V32.5519V32.5511V32.5502V32.5494V32.5485V32.5477V32.5468V32.546V32.5451V32.5443V32.5434V32.5425V32.5417V32.5408V32.54V32.5391V32.5383V32.5374V32.5366V32.5357V32.5349V32.534V32.5332V32.5323V32.5315V32.5306V32.5297V32.5289V32.528V32.5272V32.5263V32.5255V32.5246V32.5238V32.5229V32.5221V32.5212V32.5203V32.5195V32.5186V32.5178V32.5169V32.5161V32.5152V32.5144V32.5135V32.5126V32.5118V32.5109V32.5101V32.5092V32.5084V32.5075V32.5066V32.5058V32.5049V32.5041V32.5032V32.5024V32.5015V32.5006V32.4998V32.4989V32.4981V32.4972V32.4963V32.4955V32.4946V32.4938V32.4929V32.4921V32.4912V32.4903V32.4895V32.4886V32.4878V32.4869V32.486V32.4852V32.4843V32.4834V32.4826V32.4817V32.4809V32.48V32.4791V32.4783V32.4774V32.4765V32.4757V32.4748V32.474V32.4731V32.4722V32.4714V32.4705V32.4696V32.4688V32.4679V32.467V32.4662V32.4653V32.4644V32.4636V32.4627V32.4618V32.461V32.4601V32.4592V32.4584V32.4575V32.4566V32.4558V32.4549V32.454V32.4532V32.4523V32.4514V32.4506V32.4497V32.4488V32.448V32.4471V32.4462V32.4453V32.4445V32.4436V32.4427V32.4419V32.441V32.4401V32.4392V32.4384V32.4375V32.4366V32.4357V32.4349V32.434V32.4331V32.4322V32.4314V32.4305V32.4296V32.4287V32.4279V32.427V32.4261V32.4252V32.4244V32.4235V32.4226V32.4217V32.4209V32.42V32.4191V32.4182V32.4173V32.4165V32.4156V32.4147V32.4138V32.4129V32.4121V32.4112V32.4103V32.4094V32.4085V32.4076V32.4068V32.4059V32.405V32.4041V32.4032V32.4023V32.4015V32.4006V32.3997V32.3988V32.3979V32.397V32.3961V32.3953V32.3944V32.3935V32.3926V32.3917V32.3908V32.3899V32.389V32.3881V32.3873V32.3864V32.3855V32.3846V32.3837V32.3828V32.3819V32.381V32.3801V32.3792V32.3783V32.3774V32.3765V32.3757V32.3748V32.3739V32.373V32.3721V32.3712V32.3703V32.3694V32.3685V32.3676V32.3667V32.3658V32.3649V32.364V32.3631V32.3622V32.3613V32.3604V32.3595V32.3586V32.3577V32.3568V32.3559V32.355V32.3541V32.3532V32.3523V32.3513V32.3504V32.3495V32.3486V32.3477V32.3468V32.3459V32.345V32.3441V32.3432V32.3423V32.3414V32.3405V32.3395V32.3386V32.3377V32.3368V32.3359V32.335V32.3341V32.3332V32.3322V32.3313V32.3304V32.3295V32.3286V32.3277V32.3268V32.3258V32.3249V32.324V32.3231V32.3222V32.3212V32.3203V32.3194V32.3185V32.3176V32.3166V32.3157V32.3148V32.3139V32.3129V32.312V32.3111V32.3102V32.3093V32.3083V32.3074V32.3065V32.3055V32.3046V32.3037V32.3028V32.3018V32.3009V32.3V32.299V32.2989M24.7232 18.5088L24.8705 18.644L24.7232 18.5088ZM24.7232 18.5088C24.9035 18.3124 25.0993 18.1724 25.3125 18.111C25.5309 18.0482 25.7491 18.0733 25.9572 18.1755L25.9572 18.1755C26.1931 18.2914 26.3452 18.4643 26.4343 18.6722C26.5207 18.8737 26.5442 19.0992 26.5436 19.3206C26.5411 20.2028 26.5416 21.0849 26.5422 21.9674C26.5424 22.3114 26.5426 22.6555 26.5426 22.9997V22.9997V23.0006V23.0014V23.0023V23.0032V23.004V23.0049V23.0057V23.0066V23.0074V23.0083V23.0092V23.01V23.0109V23.0117V23.0126V23.0134V23.0143V23.0151V23.016V23.0169V23.0177V23.0186V23.0194V23.0203V23.0211V23.022V23.0228V23.0237V23.0245V23.0254V23.0263V23.0271V23.028V23.0288V23.0297V23.0305V23.0314V23.0322V23.0331V23.0339V23.0348V23.0357V23.0365V23.0374V23.0382V23.0391V23.0399V23.0408V23.0416V23.0425V23.0433V23.0442V23.045V23.0459V23.0467V23.0476V23.0484V23.0493V23.0501V23.051V23.0518V23.0527V23.0535V23.0544V23.0552V23.0561V23.0569V23.0578V23.0586V23.0595V23.0603V23.0612V23.062V23.0629V23.0637V23.0646V23.0654V23.0663V23.0671V23.068V23.0688V23.0697V23.0705V23.0714V23.0722V23.073V23.0739V23.0747V23.0756V23.0764V23.0773V23.0781V23.079V23.0798V23.0806V23.0815V23.0823V23.0832V23.084V23.0849V23.0857V23.0865V23.0874V23.0882V23.0891V23.0899V23.0907V23.0916V23.0924V23.0933V23.0941V23.0949V23.0958V23.0966V23.0975V23.0983V23.0991V23.1V23.1008V23.1016V23.1025V23.1033V23.1041V23.105V23.1058V23.1066V23.1075V23.1083V23.1091V23.11V23.1108V23.1116V23.1125V23.1133V23.1141V23.115V23.1158V23.1166V23.1174V23.1183V23.1191V23.1199V23.1208V23.1216V23.1224V23.1232V23.1241V23.1249V23.1257V23.1265V23.1274V23.1282V23.129V23.1298V23.1306V23.1315V23.1323V23.1331V23.1339V23.1347V23.1356V23.1364V23.1372V23.138V23.1388V23.1397V23.1405V23.1413V23.1421V23.1429V23.1437V23.1445V23.1454V23.1462V23.147V23.1478V23.1486V23.1494V23.1502V23.151V23.1519V23.1527V23.1535V23.1543V23.1551V23.1559V23.1567V23.1575V23.1583V23.1591V23.1599V23.1607V23.1615V23.1623V23.1631V23.1639V23.1647V23.1655V23.1663V23.1671V23.1679V23.1687V23.1695V23.1703V23.1711V23.1719V23.1727V23.1735V23.1743V23.1751V23.1759V23.1767V23.1775V23.1783V23.179V23.1798V23.1806V23.1814V23.1822V23.183V23.1838V23.1846V23.1853V23.1861V23.1869V23.1877V23.1885V23.1893V23.19V23.1908V23.1916V23.1924V23.1932V23.1939V23.1947V23.1955V23.1963V23.197V23.1978V23.1986V23.1994V23.2001V23.2009V23.2017V23.2025V23.2032V23.204V23.2048V23.2055V23.2063V23.2071V23.2078V23.2086V23.2094V23.2101V23.2109V23.2116V23.2124V23.213C26.8103 23.2705 27.0811 23.3222 27.3524 23.374C28.0618 23.5095 28.7747 23.6457 29.4448 23.8862C34.6555 25.7559 37.8647 29.6319 38.9743 35.4888C39.1016 36.1606 39.1378 36.8562 39.173 37.5326C39.1805 37.6766 39.1879 37.8197 39.1962 37.9615C39.2138 38.2628 39.1681 38.5215 39.0409 38.7291C38.9117 38.94 38.7132 39.0741 38.4729 39.1517M38.4729 39.1517L38.4114 38.9614L38.4729 39.1517C38.4729 39.1517 38.4729 39.1517 38.4729 39.1517ZM38.4729 39.1517C38.244 39.2256 38.0184 39.2171 37.8074 39.1069C37.604 39.0007 37.4346 38.8106 37.2873 38.5615C36.0436 36.4573 34.407 34.8348 32.359 33.7159C30.5572 32.7315 28.6412 32.2802 26.6267 32.2938L26.626 32.2938C26.5989 32.2939 26.5743 32.2957 26.5425 32.2989M26.5425 32.2989V32.2981V32.2972V32.2962V32.2953V32.2944V32.2934V32.2925V32.2916V32.2906V32.2897V32.2888V32.2878V32.2869V32.286V32.285V32.2841V32.2831V32.2822V32.2813V32.2803V32.2794V32.2784V32.2775V32.2766V32.2756V32.2747V32.2737V32.2728V32.2718V32.2709V32.2699V32.269V32.268V32.2671V32.2662V32.2652V32.2643V32.2633V32.2624V32.2614V32.2604V32.2595V32.2585V32.2576V32.2566V32.2557V32.2547V32.2538V32.2528V32.2519V32.2509V32.2499V32.249V32.248V32.2471V32.2461V32.2451V32.2442V32.2432V32.2423V32.2413V32.2403V32.2394V32.2384V32.2374V32.2365V32.2355V32.2345V32.2336V32.2326V32.2316V32.2307V32.2297V32.2287V32.2277V32.2268V32.2258V32.2248V32.2239V32.2229V32.2219V32.2209V32.2199V32.219V32.218V32.217V32.216V32.2151V32.2141V32.2131V32.2121V32.2111V32.2102V32.2092V32.2082V32.2072V32.2062V32.2052V32.2042V32.2033V32.2023V32.2013V32.2003V32.1993V32.1983V32.1973V32.1963V32.1953V32.1943V32.1933V32.1924V32.1914V32.1904V32.1894V32.1884V32.1874V32.1864V32.1854V32.1844V32.1834V32.1824V32.1814V32.1804V32.1794V32.1784V32.1774V32.1764V32.1754V32.1743V32.1733V32.1723V32.1713V32.1703V32.1693V32.1683V32.1673V32.1663V32.1653V32.1642V32.1632V32.1622V32.1612V32.1602V32.1592V32.1582V32.1571V32.1561V32.1551V32.1541V32.1531V32.152V32.151V32.15V32.149V32.1479V32.1469V32.1459V32.1449V32.1438V32.1428V32.1418V32.1407V32.1397V32.1387V32.1377V32.1366V32.1356V32.1346V32.1335V32.1325V32.1314V32.1304V32.1294V32.1283V32.1273V32.1263V32.1252V32.1242V32.1231V32.1221V32.121V32.12V32.119V32.1179H26.3425L26.3602 32.3171C26.4211 32.3117 26.4656 32.307 26.501 32.3032C26.5163 32.3016 26.53 32.3001 26.5425 32.2989ZM36.7019 34.368C35.325 29.2583 30.8043 25.5037 25.8083 25.3854C25.3818 25.3753 25.0356 25.3132 24.8154 25.0647C24.6015 24.8232 24.554 24.4561 24.554 23.99V21.8869L19.1844 27.7354L24.5537 33.5974C24.5536 33.5043 24.5535 33.4106 24.5534 33.3163C24.5526 32.6542 24.5517 31.965 24.5556 31.2763C24.5573 30.9567 24.6436 30.6773 24.8269 30.4746C25.0124 30.2696 25.275 30.1676 25.5782 30.1628L36.7019 34.368ZM36.7019 34.368C36.5608 34.2513 36.419 34.1329 36.2763 34.0137C35.5937 33.4436 34.89 32.8559 34.1451 32.3545M36.7019 34.368L26.9188 30.1623C29.5055 30.1828 31.9408 30.8706 34.1451 32.3545M34.1451 32.3545L34.0334 32.5204L34.1451 32.3545Z" fill="#887EF9" stroke="#887EF9" stroke-width="0.4"/>
</svg>
